G04 #@! TF.FileFunction,Copper,L1,Top,Signal*
%FSLAX46Y46*%
G04 Gerber Fmt 4.6, Leading zero omitted, Abs format (unit mm)*
G04 Created by KiCad (PCBNEW 4.0.7-e2-6376~60~ubuntu17.10.1) date Sat Dec 16 23:23:54 2017*
%MOMM*%
%LPD*%
G01*
G04 APERTURE LIST*
%ADD10C,0.100000*%
%ADD11C,1.600000*%
%ADD12O,1.600000X1.600000*%
%ADD13R,1.700000X1.700000*%
%ADD14O,1.700000X1.700000*%
%ADD15R,1.270000X0.970000*%
%ADD16C,1.524000*%
%ADD17O,1.500000X1.050000*%
%ADD18R,1.500000X1.050000*%
%ADD19R,1.800000X1.800000*%
%ADD20O,1.800000X1.800000*%
%ADD21C,0.600000*%
%ADD22C,0.250000*%
%ADD23C,0.254000*%
G04 APERTURE END LIST*
D10*
D11*
X175895000Y-112395000D03*
D12*
X175895000Y-114935000D03*
D13*
X177800000Y-122555000D03*
D14*
X177800000Y-125095000D03*
D13*
X129540000Y-122555000D03*
D14*
X129540000Y-125095000D03*
D13*
X149860000Y-125095000D03*
D14*
X152400000Y-125095000D03*
X154940000Y-125095000D03*
X157480000Y-125095000D03*
D13*
X129540000Y-99060000D03*
D14*
X132080000Y-99060000D03*
X134620000Y-99060000D03*
X137160000Y-99060000D03*
X139700000Y-99060000D03*
D13*
X142240000Y-99060000D03*
D14*
X144780000Y-99060000D03*
X147320000Y-99060000D03*
X149860000Y-99060000D03*
X152400000Y-99060000D03*
D13*
X154940000Y-99060000D03*
D14*
X157480000Y-99060000D03*
X160020000Y-99060000D03*
X162560000Y-99060000D03*
X165100000Y-99060000D03*
D13*
X167640000Y-99060000D03*
D14*
X170180000Y-99060000D03*
X172720000Y-99060000D03*
X175260000Y-99060000D03*
X177800000Y-99060000D03*
D15*
X134620000Y-116200000D03*
X134620000Y-117480000D03*
X147320000Y-116200000D03*
X147320000Y-117480000D03*
X160020000Y-116200000D03*
X160020000Y-117480000D03*
X172720000Y-116200000D03*
X172720000Y-117480000D03*
D16*
X134620000Y-102235000D03*
X129540000Y-102235000D03*
X134620000Y-104775000D03*
X129540000Y-104775000D03*
X134620000Y-112395000D03*
X129540000Y-112395000D03*
X147320000Y-102235000D03*
X142240000Y-102235000D03*
X147320000Y-104775000D03*
X142240000Y-104775000D03*
X147320000Y-112395000D03*
X142240000Y-112395000D03*
X160020000Y-102235000D03*
X154940000Y-102235000D03*
X160020000Y-104775000D03*
X154940000Y-104775000D03*
X160020000Y-112395000D03*
X154940000Y-112395000D03*
X172720000Y-102235000D03*
X167640000Y-102235000D03*
X172720000Y-104775000D03*
X167640000Y-104775000D03*
X172720000Y-112395000D03*
X167640000Y-112395000D03*
D17*
X131445000Y-118110000D03*
X131445000Y-116840000D03*
D18*
X131445000Y-119380000D03*
D17*
X144145000Y-118110000D03*
X144145000Y-116840000D03*
D18*
X144145000Y-119380000D03*
D17*
X156845000Y-118110000D03*
X156845000Y-116840000D03*
D18*
X156845000Y-119380000D03*
D17*
X169545000Y-118110000D03*
X169545000Y-116840000D03*
D18*
X169545000Y-119380000D03*
D19*
X137795000Y-102235000D03*
D20*
X137795000Y-109855000D03*
D19*
X150495000Y-102235000D03*
D20*
X150495000Y-109855000D03*
D19*
X163195000Y-102235000D03*
D20*
X163195000Y-109855000D03*
D19*
X175895000Y-102235000D03*
D20*
X175895000Y-109855000D03*
D11*
X137795000Y-112395000D03*
D12*
X137795000Y-114935000D03*
D11*
X137795000Y-120015000D03*
D12*
X137795000Y-117475000D03*
D11*
X150495000Y-120015000D03*
D12*
X150495000Y-117475000D03*
D11*
X150495000Y-112395000D03*
D12*
X150495000Y-114935000D03*
D11*
X163195000Y-120015000D03*
D12*
X163195000Y-117475000D03*
D11*
X163195000Y-112395000D03*
D12*
X163195000Y-114935000D03*
D11*
X175895000Y-120015000D03*
D12*
X175895000Y-117475000D03*
D21*
X169545000Y-113665000D03*
X171450000Y-109855000D03*
X172720000Y-107315000D03*
X175895000Y-106045000D03*
X151130000Y-106680000D03*
X132715000Y-114935000D03*
X135890000Y-108585000D03*
X135890000Y-111125000D03*
X153670000Y-116205000D03*
X153670000Y-110490000D03*
X163195000Y-106680000D03*
X160655000Y-106680000D03*
X158750000Y-108585000D03*
X141605000Y-116205000D03*
X144145000Y-113665000D03*
X146685000Y-109855000D03*
D22*
X136669700Y-116390600D02*
X135580300Y-117480000D01*
X136669700Y-114935000D02*
X136669700Y-116390600D01*
X137795000Y-114935000D02*
X136669700Y-114935000D01*
X134620000Y-117480000D02*
X135580300Y-117480000D01*
X175895000Y-102235000D02*
X174669700Y-102235000D01*
X163195000Y-102235000D02*
X161969700Y-102235000D01*
X150495000Y-102235000D02*
X149269700Y-102235000D01*
X136569700Y-102825300D02*
X134620000Y-104775000D01*
X136569700Y-102235000D02*
X136569700Y-102825300D01*
X137795000Y-102235000D02*
X136569700Y-102235000D01*
X163195000Y-102235000D02*
X164420300Y-102235000D01*
X172720000Y-103505000D02*
X172720000Y-104775000D01*
X173399700Y-103505000D02*
X172720000Y-103505000D01*
X174669700Y-102235000D02*
X173399700Y-103505000D01*
X165690300Y-103505000D02*
X164420300Y-102235000D01*
X172720000Y-103505000D02*
X165690300Y-103505000D01*
X150495000Y-102235000D02*
X151720300Y-102235000D01*
X160020000Y-103505000D02*
X160020000Y-104775000D01*
X160699700Y-103505000D02*
X160020000Y-103505000D01*
X161969700Y-102235000D02*
X160699700Y-103505000D01*
X152990300Y-103505000D02*
X151720300Y-102235000D01*
X160020000Y-103505000D02*
X152990300Y-103505000D01*
X137795000Y-102235000D02*
X139020300Y-102235000D01*
X147320000Y-103505000D02*
X147320000Y-104775000D01*
X147999700Y-103505000D02*
X147320000Y-103505000D01*
X149269700Y-102235000D02*
X147999700Y-103505000D01*
X172720000Y-117480000D02*
X171759700Y-117480000D01*
X160020000Y-117480000D02*
X159059700Y-117480000D01*
X147320000Y-117480000D02*
X146359700Y-117480000D01*
X169214700Y-114935000D02*
X163195000Y-114935000D01*
X171759700Y-117480000D02*
X169214700Y-114935000D01*
X162069700Y-116390600D02*
X160980300Y-117480000D01*
X162069700Y-114935000D02*
X162069700Y-116390600D01*
X163195000Y-114935000D02*
X162069700Y-114935000D01*
X160020000Y-117480000D02*
X160980300Y-117480000D01*
X174769700Y-116390600D02*
X173680300Y-117480000D01*
X174769700Y-114935000D02*
X174769700Y-116390600D01*
X175895000Y-114935000D02*
X174769700Y-114935000D01*
X172720000Y-117480000D02*
X173680300Y-117480000D01*
X147320000Y-103505000D02*
X140290300Y-103505000D01*
X140290300Y-103505000D02*
X139020300Y-102235000D01*
X140290300Y-114935000D02*
X140290300Y-103505000D01*
X143814700Y-114935000D02*
X140290300Y-114935000D01*
X146359700Y-117480000D02*
X143814700Y-114935000D01*
X140290300Y-114935000D02*
X137795000Y-114935000D01*
X156514700Y-114935000D02*
X150495000Y-114935000D01*
X159059700Y-117480000D02*
X156514700Y-114935000D01*
X149369700Y-116390600D02*
X148280300Y-117480000D01*
X149369700Y-114935000D02*
X149369700Y-116390600D01*
X150495000Y-114935000D02*
X149369700Y-114935000D01*
X147320000Y-117480000D02*
X148280300Y-117480000D01*
X137795000Y-109855000D02*
X136569700Y-109855000D01*
X135583200Y-109855000D02*
X135101600Y-110336600D01*
X136569700Y-109855000D02*
X135583200Y-109855000D01*
X131445000Y-113993200D02*
X131445000Y-116840000D01*
X135101600Y-110336600D02*
X131445000Y-113993200D01*
X135101600Y-110336600D02*
X129540000Y-104775000D01*
X134079700Y-100235300D02*
X129540000Y-104775000D01*
X135176800Y-100235300D02*
X134079700Y-100235300D01*
X135984700Y-99427400D02*
X135176800Y-100235300D01*
X135984700Y-99060000D02*
X135984700Y-99427400D01*
X137160000Y-99060000D02*
X135984700Y-99060000D01*
X144189700Y-104775000D02*
X142240000Y-104775000D01*
X149269700Y-109855000D02*
X144189700Y-104775000D01*
X150495000Y-109855000D02*
X149269700Y-109855000D01*
X156889700Y-104775000D02*
X154940000Y-104775000D01*
X161969700Y-109855000D02*
X156889700Y-104775000D01*
X163195000Y-109855000D02*
X161969700Y-109855000D01*
X172720000Y-109855000D02*
X167640000Y-104775000D01*
X175895000Y-109855000D02*
X172720000Y-109855000D01*
X172720000Y-107315000D02*
X174625000Y-107315000D01*
X169545000Y-113665000D02*
X170815000Y-112395000D01*
X170815000Y-112395000D02*
X170815000Y-110490000D01*
X170815000Y-110490000D02*
X171450000Y-109855000D01*
X174625000Y-107315000D02*
X175895000Y-106045000D01*
X153670000Y-110490000D02*
X153670000Y-107315000D01*
X153035000Y-106680000D02*
X151130000Y-106680000D01*
X153670000Y-107315000D02*
X153035000Y-106680000D01*
X132715000Y-114935000D02*
X133985000Y-114935000D01*
X135890000Y-113030000D02*
X135890000Y-111125000D01*
X133985000Y-114935000D02*
X135890000Y-113030000D01*
X153670000Y-110490000D02*
X154305000Y-110490000D01*
X153670000Y-120015000D02*
X153670000Y-116205000D01*
X160655000Y-106680000D02*
X163195000Y-106680000D01*
X156210000Y-108585000D02*
X158750000Y-108585000D01*
X154305000Y-110490000D02*
X156210000Y-108585000D01*
X144145000Y-113665000D02*
X144145000Y-112395000D01*
X141605000Y-120015000D02*
X141605000Y-116205000D01*
X144145000Y-112395000D02*
X146685000Y-109855000D01*
X175895000Y-120015000D02*
X175895000Y-120650000D01*
X175895000Y-120650000D02*
X177800000Y-122555000D01*
X156845000Y-119380000D02*
X155769700Y-119380000D01*
X144145000Y-119380000D02*
X143069700Y-119380000D01*
X156845000Y-119380000D02*
X157920300Y-119380000D01*
X155134700Y-120015000D02*
X153670000Y-120015000D01*
X153670000Y-120015000D02*
X150495000Y-120015000D01*
X155769700Y-119380000D02*
X155134700Y-120015000D01*
X145855300Y-120015000D02*
X145220300Y-119380000D01*
X150495000Y-120015000D02*
X145855300Y-120015000D01*
X144145000Y-119380000D02*
X145220300Y-119380000D01*
X142434700Y-120015000D02*
X141605000Y-120015000D01*
X141605000Y-120015000D02*
X137795000Y-120015000D01*
X143069700Y-119380000D02*
X142434700Y-120015000D01*
X133155300Y-120015000D02*
X132520300Y-119380000D01*
X137795000Y-120015000D02*
X133155300Y-120015000D01*
X131445000Y-119380000D02*
X132520300Y-119380000D01*
X171255300Y-120015000D02*
X170620300Y-119380000D01*
X175895000Y-120015000D02*
X171255300Y-120015000D01*
X169545000Y-119380000D02*
X170620300Y-119380000D01*
X158555300Y-120015000D02*
X163195000Y-120015000D01*
X157920300Y-119380000D02*
X158555300Y-120015000D01*
X167834700Y-120015000D02*
X168469700Y-119380000D01*
X163195000Y-120015000D02*
X167834700Y-120015000D01*
X169545000Y-119380000D02*
X168469700Y-119380000D01*
X132700600Y-118290300D02*
X132520300Y-118110000D01*
X135854400Y-118290300D02*
X132700600Y-118290300D01*
X136669700Y-117475000D02*
X135854400Y-118290300D01*
X137795000Y-117475000D02*
X136669700Y-117475000D01*
X131445000Y-118110000D02*
X132520300Y-118110000D01*
X148554400Y-118290300D02*
X149369700Y-117475000D01*
X145400600Y-118290300D02*
X148554400Y-118290300D01*
X145220300Y-118110000D02*
X145400600Y-118290300D01*
X144145000Y-118110000D02*
X145220300Y-118110000D01*
X150495000Y-117475000D02*
X149369700Y-117475000D01*
X158100600Y-118290300D02*
X157920300Y-118110000D01*
X161254400Y-118290300D02*
X158100600Y-118290300D01*
X162069700Y-117475000D02*
X161254400Y-118290300D01*
X163195000Y-117475000D02*
X162069700Y-117475000D01*
X156845000Y-118110000D02*
X157920300Y-118110000D01*
X170800600Y-118290300D02*
X170620300Y-118110000D01*
X173954400Y-118290300D02*
X170800600Y-118290300D01*
X174769700Y-117475000D02*
X173954400Y-118290300D01*
X175895000Y-117475000D02*
X174769700Y-117475000D01*
X169545000Y-118110000D02*
X170620300Y-118110000D01*
X134800300Y-115389700D02*
X134620000Y-115389700D01*
X137795000Y-112395000D02*
X134800300Y-115389700D01*
X134620000Y-116200000D02*
X134620000Y-115389700D01*
X147500300Y-115389700D02*
X147320000Y-115389700D01*
X150495000Y-112395000D02*
X147500300Y-115389700D01*
X147320000Y-116200000D02*
X147320000Y-115389700D01*
X160200300Y-115389700D02*
X160020000Y-115389700D01*
X163195000Y-112395000D02*
X160200300Y-115389700D01*
X160020000Y-116200000D02*
X160020000Y-115389700D01*
X172900300Y-115389700D02*
X172720000Y-115389700D01*
X175895000Y-112395000D02*
X172900300Y-115389700D01*
X172720000Y-116200000D02*
X172720000Y-115389700D01*
D23*
G36*
X179630000Y-126925000D02*
X127710000Y-126925000D01*
X127710000Y-125095000D01*
X128025907Y-125095000D01*
X128138946Y-125663285D01*
X128460853Y-126145054D01*
X128942622Y-126466961D01*
X129510907Y-126580000D01*
X129569093Y-126580000D01*
X130137378Y-126466961D01*
X130619147Y-126145054D01*
X130941054Y-125663285D01*
X131054093Y-125095000D01*
X130941054Y-124526715D01*
X130752819Y-124245000D01*
X148362560Y-124245000D01*
X148362560Y-125945000D01*
X148406838Y-126180317D01*
X148545910Y-126396441D01*
X148758110Y-126541431D01*
X149010000Y-126592440D01*
X150710000Y-126592440D01*
X150945317Y-126548162D01*
X151161441Y-126409090D01*
X151306431Y-126196890D01*
X151320086Y-126129459D01*
X151349946Y-126174147D01*
X151831715Y-126496054D01*
X152400000Y-126609093D01*
X152968285Y-126496054D01*
X153450054Y-126174147D01*
X153670000Y-125844974D01*
X153889946Y-126174147D01*
X154371715Y-126496054D01*
X154940000Y-126609093D01*
X155508285Y-126496054D01*
X155990054Y-126174147D01*
X156210000Y-125844974D01*
X156429946Y-126174147D01*
X156911715Y-126496054D01*
X157480000Y-126609093D01*
X158048285Y-126496054D01*
X158530054Y-126174147D01*
X158851961Y-125692378D01*
X158965000Y-125124093D01*
X158965000Y-125095000D01*
X176285907Y-125095000D01*
X176398946Y-125663285D01*
X176720853Y-126145054D01*
X177202622Y-126466961D01*
X177770907Y-126580000D01*
X177829093Y-126580000D01*
X178397378Y-126466961D01*
X178879147Y-126145054D01*
X179201054Y-125663285D01*
X179314093Y-125095000D01*
X179201054Y-124526715D01*
X178879147Y-124044946D01*
X178835223Y-124015597D01*
X179009698Y-123943327D01*
X179188327Y-123764699D01*
X179285000Y-123531310D01*
X179285000Y-122840750D01*
X179126250Y-122682000D01*
X177927000Y-122682000D01*
X177927000Y-122702000D01*
X177673000Y-122702000D01*
X177673000Y-122682000D01*
X176473750Y-122682000D01*
X176315000Y-122840750D01*
X176315000Y-123531310D01*
X176411673Y-123764699D01*
X176590302Y-123943327D01*
X176764777Y-124015597D01*
X176720853Y-124044946D01*
X176398946Y-124526715D01*
X176285907Y-125095000D01*
X158965000Y-125095000D01*
X158965000Y-125065907D01*
X158851961Y-124497622D01*
X158530054Y-124015853D01*
X158048285Y-123693946D01*
X157480000Y-123580907D01*
X156911715Y-123693946D01*
X156429946Y-124015853D01*
X156210000Y-124345026D01*
X155990054Y-124015853D01*
X155508285Y-123693946D01*
X154940000Y-123580907D01*
X154371715Y-123693946D01*
X153889946Y-124015853D01*
X153670000Y-124345026D01*
X153450054Y-124015853D01*
X152968285Y-123693946D01*
X152400000Y-123580907D01*
X151831715Y-123693946D01*
X151349946Y-124015853D01*
X151322150Y-124057452D01*
X151313162Y-124009683D01*
X151174090Y-123793559D01*
X150961890Y-123648569D01*
X150710000Y-123597560D01*
X149010000Y-123597560D01*
X148774683Y-123641838D01*
X148558559Y-123780910D01*
X148413569Y-123993110D01*
X148362560Y-124245000D01*
X130752819Y-124245000D01*
X130619147Y-124044946D01*
X130575223Y-124015597D01*
X130749698Y-123943327D01*
X130928327Y-123764699D01*
X131025000Y-123531310D01*
X131025000Y-122840750D01*
X130866250Y-122682000D01*
X129667000Y-122682000D01*
X129667000Y-122702000D01*
X129413000Y-122702000D01*
X129413000Y-122682000D01*
X128213750Y-122682000D01*
X128055000Y-122840750D01*
X128055000Y-123531310D01*
X128151673Y-123764699D01*
X128330302Y-123943327D01*
X128504777Y-124015597D01*
X128460853Y-124044946D01*
X128138946Y-124526715D01*
X128025907Y-125095000D01*
X127710000Y-125095000D01*
X127710000Y-121578690D01*
X128055000Y-121578690D01*
X128055000Y-122269250D01*
X128213750Y-122428000D01*
X129413000Y-122428000D01*
X129413000Y-121228750D01*
X129667000Y-121228750D01*
X129667000Y-122428000D01*
X130866250Y-122428000D01*
X131025000Y-122269250D01*
X131025000Y-121578690D01*
X130928327Y-121345301D01*
X130749698Y-121166673D01*
X130516309Y-121070000D01*
X129825750Y-121070000D01*
X129667000Y-121228750D01*
X129413000Y-121228750D01*
X129254250Y-121070000D01*
X128563691Y-121070000D01*
X128330302Y-121166673D01*
X128151673Y-121345301D01*
X128055000Y-121578690D01*
X127710000Y-121578690D01*
X127710000Y-121022745D01*
X136966861Y-121022745D01*
X137040995Y-121268864D01*
X137578223Y-121461965D01*
X138148454Y-121434778D01*
X138549005Y-121268864D01*
X138623139Y-121022745D01*
X149666861Y-121022745D01*
X149740995Y-121268864D01*
X150278223Y-121461965D01*
X150848454Y-121434778D01*
X151249005Y-121268864D01*
X151323139Y-121022745D01*
X162366861Y-121022745D01*
X162440995Y-121268864D01*
X162978223Y-121461965D01*
X163548454Y-121434778D01*
X163949005Y-121268864D01*
X164023139Y-121022745D01*
X175066861Y-121022745D01*
X175140995Y-121268864D01*
X175678223Y-121461965D01*
X176248454Y-121434778D01*
X176400738Y-121371700D01*
X176315000Y-121578690D01*
X176315000Y-122269250D01*
X176473750Y-122428000D01*
X177673000Y-122428000D01*
X177673000Y-121228750D01*
X177927000Y-121228750D01*
X177927000Y-122428000D01*
X179126250Y-122428000D01*
X179285000Y-122269250D01*
X179285000Y-121578690D01*
X179188327Y-121345301D01*
X179009698Y-121166673D01*
X178776309Y-121070000D01*
X178085750Y-121070000D01*
X177927000Y-121228750D01*
X177673000Y-121228750D01*
X177514250Y-121070000D01*
X176823691Y-121070000D01*
X176692542Y-121124324D01*
X176723139Y-121022745D01*
X175895000Y-120194605D01*
X175066861Y-121022745D01*
X164023139Y-121022745D01*
X163195000Y-120194605D01*
X162366861Y-121022745D01*
X151323139Y-121022745D01*
X150495000Y-120194605D01*
X149666861Y-121022745D01*
X138623139Y-121022745D01*
X137795000Y-120194605D01*
X136966861Y-121022745D01*
X127710000Y-121022745D01*
X127710000Y-119665750D01*
X130060000Y-119665750D01*
X130060000Y-120031309D01*
X130156673Y-120264698D01*
X130335301Y-120443327D01*
X130568690Y-120540000D01*
X131159250Y-120540000D01*
X131318000Y-120381250D01*
X131318000Y-119507000D01*
X131572000Y-119507000D01*
X131572000Y-120381250D01*
X131730750Y-120540000D01*
X132321310Y-120540000D01*
X132554699Y-120443327D01*
X132733327Y-120264698D01*
X132830000Y-120031309D01*
X132830000Y-119798223D01*
X136348035Y-119798223D01*
X136375222Y-120368454D01*
X136541136Y-120769005D01*
X136787255Y-120843139D01*
X137615395Y-120015000D01*
X137974605Y-120015000D01*
X138802745Y-120843139D01*
X139048864Y-120769005D01*
X139241965Y-120231777D01*
X139214979Y-119665750D01*
X142760000Y-119665750D01*
X142760000Y-120031309D01*
X142856673Y-120264698D01*
X143035301Y-120443327D01*
X143268690Y-120540000D01*
X143859250Y-120540000D01*
X144018000Y-120381250D01*
X144018000Y-119507000D01*
X144272000Y-119507000D01*
X144272000Y-120381250D01*
X144430750Y-120540000D01*
X145021310Y-120540000D01*
X145254699Y-120443327D01*
X145433327Y-120264698D01*
X145530000Y-120031309D01*
X145530000Y-119798223D01*
X149048035Y-119798223D01*
X149075222Y-120368454D01*
X149241136Y-120769005D01*
X149487255Y-120843139D01*
X150315395Y-120015000D01*
X150674605Y-120015000D01*
X151502745Y-120843139D01*
X151748864Y-120769005D01*
X151941965Y-120231777D01*
X151914979Y-119665750D01*
X155460000Y-119665750D01*
X155460000Y-120031309D01*
X155556673Y-120264698D01*
X155735301Y-120443327D01*
X155968690Y-120540000D01*
X156559250Y-120540000D01*
X156718000Y-120381250D01*
X156718000Y-119507000D01*
X156972000Y-119507000D01*
X156972000Y-120381250D01*
X157130750Y-120540000D01*
X157721310Y-120540000D01*
X157954699Y-120443327D01*
X158133327Y-120264698D01*
X158230000Y-120031309D01*
X158230000Y-119798223D01*
X161748035Y-119798223D01*
X161775222Y-120368454D01*
X161941136Y-120769005D01*
X162187255Y-120843139D01*
X163015395Y-120015000D01*
X163374605Y-120015000D01*
X164202745Y-120843139D01*
X164448864Y-120769005D01*
X164641965Y-120231777D01*
X164614979Y-119665750D01*
X168160000Y-119665750D01*
X168160000Y-120031309D01*
X168256673Y-120264698D01*
X168435301Y-120443327D01*
X168668690Y-120540000D01*
X169259250Y-120540000D01*
X169418000Y-120381250D01*
X169418000Y-119507000D01*
X169672000Y-119507000D01*
X169672000Y-120381250D01*
X169830750Y-120540000D01*
X170421310Y-120540000D01*
X170654699Y-120443327D01*
X170833327Y-120264698D01*
X170930000Y-120031309D01*
X170930000Y-119798223D01*
X174448035Y-119798223D01*
X174475222Y-120368454D01*
X174641136Y-120769005D01*
X174887255Y-120843139D01*
X175715395Y-120015000D01*
X176074605Y-120015000D01*
X176902745Y-120843139D01*
X177148864Y-120769005D01*
X177341965Y-120231777D01*
X177314778Y-119661546D01*
X177148864Y-119260995D01*
X176902745Y-119186861D01*
X176074605Y-120015000D01*
X175715395Y-120015000D01*
X174887255Y-119186861D01*
X174641136Y-119260995D01*
X174448035Y-119798223D01*
X170930000Y-119798223D01*
X170930000Y-119665750D01*
X170771250Y-119507000D01*
X169672000Y-119507000D01*
X169418000Y-119507000D01*
X168318750Y-119507000D01*
X168160000Y-119665750D01*
X164614979Y-119665750D01*
X164614778Y-119661546D01*
X164448864Y-119260995D01*
X164202745Y-119186861D01*
X163374605Y-120015000D01*
X163015395Y-120015000D01*
X162187255Y-119186861D01*
X161941136Y-119260995D01*
X161748035Y-119798223D01*
X158230000Y-119798223D01*
X158230000Y-119665750D01*
X158071250Y-119507000D01*
X156972000Y-119507000D01*
X156718000Y-119507000D01*
X155618750Y-119507000D01*
X155460000Y-119665750D01*
X151914979Y-119665750D01*
X151914778Y-119661546D01*
X151748864Y-119260995D01*
X151502745Y-119186861D01*
X150674605Y-120015000D01*
X150315395Y-120015000D01*
X149487255Y-119186861D01*
X149241136Y-119260995D01*
X149048035Y-119798223D01*
X145530000Y-119798223D01*
X145530000Y-119665750D01*
X145371250Y-119507000D01*
X144272000Y-119507000D01*
X144018000Y-119507000D01*
X142918750Y-119507000D01*
X142760000Y-119665750D01*
X139214979Y-119665750D01*
X139214778Y-119661546D01*
X139048864Y-119260995D01*
X138802745Y-119186861D01*
X137974605Y-120015000D01*
X137615395Y-120015000D01*
X136787255Y-119186861D01*
X136541136Y-119260995D01*
X136348035Y-119798223D01*
X132830000Y-119798223D01*
X132830000Y-119665750D01*
X132671250Y-119507000D01*
X131572000Y-119507000D01*
X131318000Y-119507000D01*
X130218750Y-119507000D01*
X130060000Y-119665750D01*
X127710000Y-119665750D01*
X127710000Y-112671661D01*
X128142758Y-112671661D01*
X128354990Y-113185303D01*
X128747630Y-113578629D01*
X129260900Y-113791757D01*
X129816661Y-113792242D01*
X130330303Y-113580010D01*
X130723629Y-113187370D01*
X130936757Y-112674100D01*
X130937242Y-112118339D01*
X130725010Y-111604697D01*
X130332370Y-111211371D01*
X129819100Y-110998243D01*
X129263339Y-110997758D01*
X128749697Y-111209990D01*
X128356371Y-111602630D01*
X128143243Y-112115900D01*
X128142758Y-112671661D01*
X127710000Y-112671661D01*
X127710000Y-98210000D01*
X128042560Y-98210000D01*
X128042560Y-99910000D01*
X128086838Y-100145317D01*
X128225910Y-100361441D01*
X128438110Y-100506431D01*
X128690000Y-100557440D01*
X130390000Y-100557440D01*
X130625317Y-100513162D01*
X130841441Y-100374090D01*
X130986431Y-100161890D01*
X131000086Y-100094459D01*
X131029946Y-100139147D01*
X131511715Y-100461054D01*
X132080000Y-100574093D01*
X132648285Y-100461054D01*
X133042649Y-100197549D01*
X130936941Y-102303257D01*
X130937242Y-101958339D01*
X130725010Y-101444697D01*
X130332370Y-101051371D01*
X129819100Y-100838243D01*
X129263339Y-100837758D01*
X128749697Y-101049990D01*
X128356371Y-101442630D01*
X128143243Y-101955900D01*
X128142758Y-102511661D01*
X128354990Y-103025303D01*
X128747630Y-103418629D01*
X128955512Y-103504949D01*
X128749697Y-103589990D01*
X128356371Y-103982630D01*
X128143243Y-104495900D01*
X128142758Y-105051661D01*
X128354990Y-105565303D01*
X128747630Y-105958629D01*
X129260900Y-106171757D01*
X129816661Y-106172242D01*
X129849055Y-106158857D01*
X134026798Y-110336600D01*
X130907599Y-113455799D01*
X130742852Y-113702361D01*
X130685000Y-113993200D01*
X130685000Y-115811032D01*
X130372622Y-116019756D01*
X130121166Y-116396087D01*
X130032866Y-116840000D01*
X130121166Y-117283913D01*
X130248846Y-117475000D01*
X130121166Y-117666087D01*
X130032866Y-118110000D01*
X130121166Y-118553913D01*
X130128098Y-118564288D01*
X130060000Y-118728691D01*
X130060000Y-119094250D01*
X130218750Y-119253000D01*
X131107401Y-119253000D01*
X131192866Y-119270000D01*
X131697134Y-119270000D01*
X131782599Y-119253000D01*
X132671250Y-119253000D01*
X132830000Y-119094250D01*
X132830000Y-119050300D01*
X135854400Y-119050300D01*
X136145239Y-118992448D01*
X136391801Y-118827701D01*
X136748815Y-118470687D01*
X136780302Y-118517811D01*
X137104868Y-118734679D01*
X137040995Y-118761136D01*
X136966861Y-119007255D01*
X137795000Y-119835395D01*
X138623139Y-119007255D01*
X138549005Y-118761136D01*
X138481728Y-118736954D01*
X138809698Y-118517811D01*
X139120767Y-118052264D01*
X139230000Y-117503113D01*
X139230000Y-117446887D01*
X139120767Y-116897736D01*
X138809698Y-116432189D01*
X138469686Y-116205000D01*
X138809698Y-115977811D01*
X138998667Y-115695000D01*
X143499898Y-115695000D01*
X143552584Y-115747686D01*
X143448953Y-115768300D01*
X143072622Y-116019756D01*
X142821166Y-116396087D01*
X142732866Y-116840000D01*
X142821166Y-117283913D01*
X142948846Y-117475000D01*
X142821166Y-117666087D01*
X142732866Y-118110000D01*
X142821166Y-118553913D01*
X142828098Y-118564288D01*
X142760000Y-118728691D01*
X142760000Y-119094250D01*
X142918750Y-119253000D01*
X143807401Y-119253000D01*
X143892866Y-119270000D01*
X144397134Y-119270000D01*
X144482599Y-119253000D01*
X145371250Y-119253000D01*
X145530000Y-119094250D01*
X145530000Y-119050300D01*
X148554400Y-119050300D01*
X148845239Y-118992448D01*
X149091801Y-118827701D01*
X149448815Y-118470687D01*
X149480302Y-118517811D01*
X149804868Y-118734679D01*
X149740995Y-118761136D01*
X149666861Y-119007255D01*
X150495000Y-119835395D01*
X151323139Y-119007255D01*
X151249005Y-118761136D01*
X151181728Y-118736954D01*
X151509698Y-118517811D01*
X151820767Y-118052264D01*
X151930000Y-117503113D01*
X151930000Y-117446887D01*
X151820767Y-116897736D01*
X151509698Y-116432189D01*
X151169686Y-116205000D01*
X151509698Y-115977811D01*
X151698667Y-115695000D01*
X156199898Y-115695000D01*
X156252584Y-115747686D01*
X156148953Y-115768300D01*
X155772622Y-116019756D01*
X155521166Y-116396087D01*
X155432866Y-116840000D01*
X155521166Y-117283913D01*
X155648846Y-117475000D01*
X155521166Y-117666087D01*
X155432866Y-118110000D01*
X155521166Y-118553913D01*
X155528098Y-118564288D01*
X155460000Y-118728691D01*
X155460000Y-119094250D01*
X155618750Y-119253000D01*
X156507401Y-119253000D01*
X156592866Y-119270000D01*
X157097134Y-119270000D01*
X157182599Y-119253000D01*
X158071250Y-119253000D01*
X158230000Y-119094250D01*
X158230000Y-119050300D01*
X161254400Y-119050300D01*
X161545239Y-118992448D01*
X161791801Y-118827701D01*
X162148815Y-118470687D01*
X162180302Y-118517811D01*
X162504868Y-118734679D01*
X162440995Y-118761136D01*
X162366861Y-119007255D01*
X163195000Y-119835395D01*
X164023139Y-119007255D01*
X163949005Y-118761136D01*
X163881728Y-118736954D01*
X164209698Y-118517811D01*
X164520767Y-118052264D01*
X164630000Y-117503113D01*
X164630000Y-117446887D01*
X164520767Y-116897736D01*
X164209698Y-116432189D01*
X163869686Y-116205000D01*
X164209698Y-115977811D01*
X164398667Y-115695000D01*
X168899898Y-115695000D01*
X168952584Y-115747686D01*
X168848953Y-115768300D01*
X168472622Y-116019756D01*
X168221166Y-116396087D01*
X168132866Y-116840000D01*
X168221166Y-117283913D01*
X168348846Y-117475000D01*
X168221166Y-117666087D01*
X168132866Y-118110000D01*
X168221166Y-118553913D01*
X168228098Y-118564288D01*
X168160000Y-118728691D01*
X168160000Y-119094250D01*
X168318750Y-119253000D01*
X169207401Y-119253000D01*
X169292866Y-119270000D01*
X169797134Y-119270000D01*
X169882599Y-119253000D01*
X170771250Y-119253000D01*
X170930000Y-119094250D01*
X170930000Y-119050300D01*
X173954400Y-119050300D01*
X174245239Y-118992448D01*
X174491801Y-118827701D01*
X174848815Y-118470687D01*
X174880302Y-118517811D01*
X175204868Y-118734679D01*
X175140995Y-118761136D01*
X175066861Y-119007255D01*
X175895000Y-119835395D01*
X176723139Y-119007255D01*
X176649005Y-118761136D01*
X176581728Y-118736954D01*
X176909698Y-118517811D01*
X177220767Y-118052264D01*
X177330000Y-117503113D01*
X177330000Y-117446887D01*
X177220767Y-116897736D01*
X176909698Y-116432189D01*
X176569686Y-116205000D01*
X176909698Y-115977811D01*
X177220767Y-115512264D01*
X177330000Y-114963113D01*
X177330000Y-114906887D01*
X177220767Y-114357736D01*
X176909698Y-113892189D01*
X176573290Y-113667408D01*
X176706800Y-113612243D01*
X177110824Y-113208923D01*
X177329750Y-112681691D01*
X177330248Y-112110813D01*
X177112243Y-111583200D01*
X176708923Y-111179176D01*
X176683730Y-111168715D01*
X176980409Y-110970481D01*
X177313155Y-110472491D01*
X177430000Y-109885072D01*
X177430000Y-109824928D01*
X177313155Y-109237509D01*
X176980409Y-108739519D01*
X176482419Y-108406773D01*
X175895000Y-108289928D01*
X175307581Y-108406773D01*
X174809591Y-108739519D01*
X174572066Y-109095000D01*
X173034802Y-109095000D01*
X169024183Y-105084381D01*
X169036757Y-105054100D01*
X169037242Y-104498339D01*
X168940829Y-104265000D01*
X171419121Y-104265000D01*
X171323243Y-104495900D01*
X171322758Y-105051661D01*
X171534990Y-105565303D01*
X171927630Y-105958629D01*
X172440900Y-106171757D01*
X172996661Y-106172242D01*
X173510303Y-105960010D01*
X173903629Y-105567370D01*
X174116757Y-105054100D01*
X174117242Y-104498339D01*
X173930637Y-104046720D01*
X173937101Y-104042401D01*
X174476937Y-103502565D01*
X174530910Y-103586441D01*
X174743110Y-103731431D01*
X174995000Y-103782440D01*
X176795000Y-103782440D01*
X177030317Y-103738162D01*
X177246441Y-103599090D01*
X177391431Y-103386890D01*
X177442440Y-103135000D01*
X177442440Y-101335000D01*
X177398162Y-101099683D01*
X177259090Y-100883559D01*
X177046890Y-100738569D01*
X176795000Y-100687560D01*
X174995000Y-100687560D01*
X174759683Y-100731838D01*
X174543559Y-100870910D01*
X174398569Y-101083110D01*
X174347560Y-101335000D01*
X174347560Y-101553766D01*
X174132299Y-101697599D01*
X174045409Y-101784489D01*
X173905010Y-101444697D01*
X173512370Y-101051371D01*
X172999100Y-100838243D01*
X172443339Y-100837758D01*
X171929697Y-101049990D01*
X171536371Y-101442630D01*
X171323243Y-101955900D01*
X171322758Y-102511661D01*
X171419171Y-102745000D01*
X168940879Y-102745000D01*
X169036757Y-102514100D01*
X169037242Y-101958339D01*
X168825010Y-101444697D01*
X168432370Y-101051371D01*
X167919100Y-100838243D01*
X167363339Y-100837758D01*
X166849697Y-101049990D01*
X166456371Y-101442630D01*
X166243243Y-101955900D01*
X166242758Y-102511661D01*
X166339171Y-102745000D01*
X166005102Y-102745000D01*
X164957701Y-101697599D01*
X164742440Y-101553767D01*
X164742440Y-101335000D01*
X164698162Y-101099683D01*
X164559090Y-100883559D01*
X164346890Y-100738569D01*
X164095000Y-100687560D01*
X162295000Y-100687560D01*
X162059683Y-100731838D01*
X161843559Y-100870910D01*
X161698569Y-101083110D01*
X161647560Y-101335000D01*
X161647560Y-101553766D01*
X161432299Y-101697599D01*
X161345409Y-101784489D01*
X161205010Y-101444697D01*
X160812370Y-101051371D01*
X160299100Y-100838243D01*
X159743339Y-100837758D01*
X159229697Y-101049990D01*
X158836371Y-101442630D01*
X158623243Y-101955900D01*
X158622758Y-102511661D01*
X158719171Y-102745000D01*
X156240879Y-102745000D01*
X156336757Y-102514100D01*
X156337242Y-101958339D01*
X156125010Y-101444697D01*
X155732370Y-101051371D01*
X155219100Y-100838243D01*
X154663339Y-100837758D01*
X154149697Y-101049990D01*
X153756371Y-101442630D01*
X153543243Y-101955900D01*
X153542758Y-102511661D01*
X153639171Y-102745000D01*
X153305102Y-102745000D01*
X152257701Y-101697599D01*
X152042440Y-101553767D01*
X152042440Y-101335000D01*
X151998162Y-101099683D01*
X151859090Y-100883559D01*
X151646890Y-100738569D01*
X151395000Y-100687560D01*
X149595000Y-100687560D01*
X149359683Y-100731838D01*
X149143559Y-100870910D01*
X148998569Y-101083110D01*
X148947560Y-101335000D01*
X148947560Y-101553766D01*
X148732299Y-101697599D01*
X148645409Y-101784489D01*
X148505010Y-101444697D01*
X148112370Y-101051371D01*
X147599100Y-100838243D01*
X147043339Y-100837758D01*
X146529697Y-101049990D01*
X146136371Y-101442630D01*
X145923243Y-101955900D01*
X145922758Y-102511661D01*
X146019171Y-102745000D01*
X143540879Y-102745000D01*
X143636757Y-102514100D01*
X143637242Y-101958339D01*
X143425010Y-101444697D01*
X143032370Y-101051371D01*
X142519100Y-100838243D01*
X141963339Y-100837758D01*
X141449697Y-101049990D01*
X141056371Y-101442630D01*
X140843243Y-101955900D01*
X140842758Y-102511661D01*
X140939171Y-102745000D01*
X140605102Y-102745000D01*
X139557701Y-101697599D01*
X139342440Y-101553767D01*
X139342440Y-101335000D01*
X139298162Y-101099683D01*
X139159090Y-100883559D01*
X138946890Y-100738569D01*
X138695000Y-100687560D01*
X136895000Y-100687560D01*
X136659683Y-100731838D01*
X136443559Y-100870910D01*
X136298569Y-101083110D01*
X136247560Y-101335000D01*
X136247560Y-101553767D01*
X136032299Y-101697599D01*
X135956426Y-101811152D01*
X135805010Y-101444697D01*
X135412370Y-101051371D01*
X135244774Y-100981779D01*
X135467639Y-100937448D01*
X135714201Y-100772701D01*
X136252502Y-100234400D01*
X136591715Y-100461054D01*
X137160000Y-100574093D01*
X137728285Y-100461054D01*
X138210054Y-100139147D01*
X138430000Y-99809974D01*
X138649946Y-100139147D01*
X139131715Y-100461054D01*
X139700000Y-100574093D01*
X140268285Y-100461054D01*
X140750054Y-100139147D01*
X140777850Y-100097548D01*
X140786838Y-100145317D01*
X140925910Y-100361441D01*
X141138110Y-100506431D01*
X141390000Y-100557440D01*
X143090000Y-100557440D01*
X143325317Y-100513162D01*
X143541441Y-100374090D01*
X143686431Y-100161890D01*
X143700086Y-100094459D01*
X143729946Y-100139147D01*
X144211715Y-100461054D01*
X144780000Y-100574093D01*
X145348285Y-100461054D01*
X145830054Y-100139147D01*
X146050000Y-99809974D01*
X146269946Y-100139147D01*
X146751715Y-100461054D01*
X147320000Y-100574093D01*
X147888285Y-100461054D01*
X148370054Y-100139147D01*
X148590000Y-99809974D01*
X148809946Y-100139147D01*
X149291715Y-100461054D01*
X149860000Y-100574093D01*
X150428285Y-100461054D01*
X150910054Y-100139147D01*
X151130000Y-99809974D01*
X151349946Y-100139147D01*
X151831715Y-100461054D01*
X152400000Y-100574093D01*
X152968285Y-100461054D01*
X153450054Y-100139147D01*
X153477850Y-100097548D01*
X153486838Y-100145317D01*
X153625910Y-100361441D01*
X153838110Y-100506431D01*
X154090000Y-100557440D01*
X155790000Y-100557440D01*
X156025317Y-100513162D01*
X156241441Y-100374090D01*
X156386431Y-100161890D01*
X156400086Y-100094459D01*
X156429946Y-100139147D01*
X156911715Y-100461054D01*
X157480000Y-100574093D01*
X158048285Y-100461054D01*
X158530054Y-100139147D01*
X158750000Y-99809974D01*
X158969946Y-100139147D01*
X159451715Y-100461054D01*
X160020000Y-100574093D01*
X160588285Y-100461054D01*
X161070054Y-100139147D01*
X161290000Y-99809974D01*
X161509946Y-100139147D01*
X161991715Y-100461054D01*
X162560000Y-100574093D01*
X163128285Y-100461054D01*
X163610054Y-100139147D01*
X163830000Y-99809974D01*
X164049946Y-100139147D01*
X164531715Y-100461054D01*
X165100000Y-100574093D01*
X165668285Y-100461054D01*
X166150054Y-100139147D01*
X166177850Y-100097548D01*
X166186838Y-100145317D01*
X166325910Y-100361441D01*
X166538110Y-100506431D01*
X166790000Y-100557440D01*
X168490000Y-100557440D01*
X168725317Y-100513162D01*
X168941441Y-100374090D01*
X169086431Y-100161890D01*
X169100086Y-100094459D01*
X169129946Y-100139147D01*
X169611715Y-100461054D01*
X170180000Y-100574093D01*
X170748285Y-100461054D01*
X171230054Y-100139147D01*
X171450000Y-99809974D01*
X171669946Y-100139147D01*
X172151715Y-100461054D01*
X172720000Y-100574093D01*
X173288285Y-100461054D01*
X173770054Y-100139147D01*
X173990000Y-99809974D01*
X174209946Y-100139147D01*
X174691715Y-100461054D01*
X175260000Y-100574093D01*
X175828285Y-100461054D01*
X176310054Y-100139147D01*
X176530000Y-99809974D01*
X176749946Y-100139147D01*
X177231715Y-100461054D01*
X177800000Y-100574093D01*
X178368285Y-100461054D01*
X178850054Y-100139147D01*
X179171961Y-99657378D01*
X179285000Y-99089093D01*
X179285000Y-99030907D01*
X179171961Y-98462622D01*
X178850054Y-97980853D01*
X178368285Y-97658946D01*
X177800000Y-97545907D01*
X177231715Y-97658946D01*
X176749946Y-97980853D01*
X176530000Y-98310026D01*
X176310054Y-97980853D01*
X175828285Y-97658946D01*
X175260000Y-97545907D01*
X174691715Y-97658946D01*
X174209946Y-97980853D01*
X173990000Y-98310026D01*
X173770054Y-97980853D01*
X173288285Y-97658946D01*
X172720000Y-97545907D01*
X172151715Y-97658946D01*
X171669946Y-97980853D01*
X171450000Y-98310026D01*
X171230054Y-97980853D01*
X170748285Y-97658946D01*
X170180000Y-97545907D01*
X169611715Y-97658946D01*
X169129946Y-97980853D01*
X169102150Y-98022452D01*
X169093162Y-97974683D01*
X168954090Y-97758559D01*
X168741890Y-97613569D01*
X168490000Y-97562560D01*
X166790000Y-97562560D01*
X166554683Y-97606838D01*
X166338559Y-97745910D01*
X166193569Y-97958110D01*
X166179914Y-98025541D01*
X166150054Y-97980853D01*
X165668285Y-97658946D01*
X165100000Y-97545907D01*
X164531715Y-97658946D01*
X164049946Y-97980853D01*
X163830000Y-98310026D01*
X163610054Y-97980853D01*
X163128285Y-97658946D01*
X162560000Y-97545907D01*
X161991715Y-97658946D01*
X161509946Y-97980853D01*
X161290000Y-98310026D01*
X161070054Y-97980853D01*
X160588285Y-97658946D01*
X160020000Y-97545907D01*
X159451715Y-97658946D01*
X158969946Y-97980853D01*
X158750000Y-98310026D01*
X158530054Y-97980853D01*
X158048285Y-97658946D01*
X157480000Y-97545907D01*
X156911715Y-97658946D01*
X156429946Y-97980853D01*
X156402150Y-98022452D01*
X156393162Y-97974683D01*
X156254090Y-97758559D01*
X156041890Y-97613569D01*
X155790000Y-97562560D01*
X154090000Y-97562560D01*
X153854683Y-97606838D01*
X153638559Y-97745910D01*
X153493569Y-97958110D01*
X153479914Y-98025541D01*
X153450054Y-97980853D01*
X152968285Y-97658946D01*
X152400000Y-97545907D01*
X151831715Y-97658946D01*
X151349946Y-97980853D01*
X151130000Y-98310026D01*
X150910054Y-97980853D01*
X150428285Y-97658946D01*
X149860000Y-97545907D01*
X149291715Y-97658946D01*
X148809946Y-97980853D01*
X148590000Y-98310026D01*
X148370054Y-97980853D01*
X147888285Y-97658946D01*
X147320000Y-97545907D01*
X146751715Y-97658946D01*
X146269946Y-97980853D01*
X146050000Y-98310026D01*
X145830054Y-97980853D01*
X145348285Y-97658946D01*
X144780000Y-97545907D01*
X144211715Y-97658946D01*
X143729946Y-97980853D01*
X143702150Y-98022452D01*
X143693162Y-97974683D01*
X143554090Y-97758559D01*
X143341890Y-97613569D01*
X143090000Y-97562560D01*
X141390000Y-97562560D01*
X141154683Y-97606838D01*
X140938559Y-97745910D01*
X140793569Y-97958110D01*
X140779914Y-98025541D01*
X140750054Y-97980853D01*
X140268285Y-97658946D01*
X139700000Y-97545907D01*
X139131715Y-97658946D01*
X138649946Y-97980853D01*
X138430000Y-98310026D01*
X138210054Y-97980853D01*
X137728285Y-97658946D01*
X137160000Y-97545907D01*
X136591715Y-97658946D01*
X136109946Y-97980853D01*
X135890000Y-98310026D01*
X135670054Y-97980853D01*
X135188285Y-97658946D01*
X134620000Y-97545907D01*
X134051715Y-97658946D01*
X133569946Y-97980853D01*
X133350000Y-98310026D01*
X133130054Y-97980853D01*
X132648285Y-97658946D01*
X132080000Y-97545907D01*
X131511715Y-97658946D01*
X131029946Y-97980853D01*
X131002150Y-98022452D01*
X130993162Y-97974683D01*
X130854090Y-97758559D01*
X130641890Y-97613569D01*
X130390000Y-97562560D01*
X128690000Y-97562560D01*
X128454683Y-97606838D01*
X128238559Y-97745910D01*
X128093569Y-97958110D01*
X128042560Y-98210000D01*
X127710000Y-98210000D01*
X127710000Y-97230000D01*
X179630000Y-97230000D01*
X179630000Y-126925000D01*
X179630000Y-126925000D01*
G37*
X179630000Y-126925000D02*
X127710000Y-126925000D01*
X127710000Y-125095000D01*
X128025907Y-125095000D01*
X128138946Y-125663285D01*
X128460853Y-126145054D01*
X128942622Y-126466961D01*
X129510907Y-126580000D01*
X129569093Y-126580000D01*
X130137378Y-126466961D01*
X130619147Y-126145054D01*
X130941054Y-125663285D01*
X131054093Y-125095000D01*
X130941054Y-124526715D01*
X130752819Y-124245000D01*
X148362560Y-124245000D01*
X148362560Y-125945000D01*
X148406838Y-126180317D01*
X148545910Y-126396441D01*
X148758110Y-126541431D01*
X149010000Y-126592440D01*
X150710000Y-126592440D01*
X150945317Y-126548162D01*
X151161441Y-126409090D01*
X151306431Y-126196890D01*
X151320086Y-126129459D01*
X151349946Y-126174147D01*
X151831715Y-126496054D01*
X152400000Y-126609093D01*
X152968285Y-126496054D01*
X153450054Y-126174147D01*
X153670000Y-125844974D01*
X153889946Y-126174147D01*
X154371715Y-126496054D01*
X154940000Y-126609093D01*
X155508285Y-126496054D01*
X155990054Y-126174147D01*
X156210000Y-125844974D01*
X156429946Y-126174147D01*
X156911715Y-126496054D01*
X157480000Y-126609093D01*
X158048285Y-126496054D01*
X158530054Y-126174147D01*
X158851961Y-125692378D01*
X158965000Y-125124093D01*
X158965000Y-125095000D01*
X176285907Y-125095000D01*
X176398946Y-125663285D01*
X176720853Y-126145054D01*
X177202622Y-126466961D01*
X177770907Y-126580000D01*
X177829093Y-126580000D01*
X178397378Y-126466961D01*
X178879147Y-126145054D01*
X179201054Y-125663285D01*
X179314093Y-125095000D01*
X179201054Y-124526715D01*
X178879147Y-124044946D01*
X178835223Y-124015597D01*
X179009698Y-123943327D01*
X179188327Y-123764699D01*
X179285000Y-123531310D01*
X179285000Y-122840750D01*
X179126250Y-122682000D01*
X177927000Y-122682000D01*
X177927000Y-122702000D01*
X177673000Y-122702000D01*
X177673000Y-122682000D01*
X176473750Y-122682000D01*
X176315000Y-122840750D01*
X176315000Y-123531310D01*
X176411673Y-123764699D01*
X176590302Y-123943327D01*
X176764777Y-124015597D01*
X176720853Y-124044946D01*
X176398946Y-124526715D01*
X176285907Y-125095000D01*
X158965000Y-125095000D01*
X158965000Y-125065907D01*
X158851961Y-124497622D01*
X158530054Y-124015853D01*
X158048285Y-123693946D01*
X157480000Y-123580907D01*
X156911715Y-123693946D01*
X156429946Y-124015853D01*
X156210000Y-124345026D01*
X155990054Y-124015853D01*
X155508285Y-123693946D01*
X154940000Y-123580907D01*
X154371715Y-123693946D01*
X153889946Y-124015853D01*
X153670000Y-124345026D01*
X153450054Y-124015853D01*
X152968285Y-123693946D01*
X152400000Y-123580907D01*
X151831715Y-123693946D01*
X151349946Y-124015853D01*
X151322150Y-124057452D01*
X151313162Y-124009683D01*
X151174090Y-123793559D01*
X150961890Y-123648569D01*
X150710000Y-123597560D01*
X149010000Y-123597560D01*
X148774683Y-123641838D01*
X148558559Y-123780910D01*
X148413569Y-123993110D01*
X148362560Y-124245000D01*
X130752819Y-124245000D01*
X130619147Y-124044946D01*
X130575223Y-124015597D01*
X130749698Y-123943327D01*
X130928327Y-123764699D01*
X131025000Y-123531310D01*
X131025000Y-122840750D01*
X130866250Y-122682000D01*
X129667000Y-122682000D01*
X129667000Y-122702000D01*
X129413000Y-122702000D01*
X129413000Y-122682000D01*
X128213750Y-122682000D01*
X128055000Y-122840750D01*
X128055000Y-123531310D01*
X128151673Y-123764699D01*
X128330302Y-123943327D01*
X128504777Y-124015597D01*
X128460853Y-124044946D01*
X128138946Y-124526715D01*
X128025907Y-125095000D01*
X127710000Y-125095000D01*
X127710000Y-121578690D01*
X128055000Y-121578690D01*
X128055000Y-122269250D01*
X128213750Y-122428000D01*
X129413000Y-122428000D01*
X129413000Y-121228750D01*
X129667000Y-121228750D01*
X129667000Y-122428000D01*
X130866250Y-122428000D01*
X131025000Y-122269250D01*
X131025000Y-121578690D01*
X130928327Y-121345301D01*
X130749698Y-121166673D01*
X130516309Y-121070000D01*
X129825750Y-121070000D01*
X129667000Y-121228750D01*
X129413000Y-121228750D01*
X129254250Y-121070000D01*
X128563691Y-121070000D01*
X128330302Y-121166673D01*
X128151673Y-121345301D01*
X128055000Y-121578690D01*
X127710000Y-121578690D01*
X127710000Y-121022745D01*
X136966861Y-121022745D01*
X137040995Y-121268864D01*
X137578223Y-121461965D01*
X138148454Y-121434778D01*
X138549005Y-121268864D01*
X138623139Y-121022745D01*
X149666861Y-121022745D01*
X149740995Y-121268864D01*
X150278223Y-121461965D01*
X150848454Y-121434778D01*
X151249005Y-121268864D01*
X151323139Y-121022745D01*
X162366861Y-121022745D01*
X162440995Y-121268864D01*
X162978223Y-121461965D01*
X163548454Y-121434778D01*
X163949005Y-121268864D01*
X164023139Y-121022745D01*
X175066861Y-121022745D01*
X175140995Y-121268864D01*
X175678223Y-121461965D01*
X176248454Y-121434778D01*
X176400738Y-121371700D01*
X176315000Y-121578690D01*
X176315000Y-122269250D01*
X176473750Y-122428000D01*
X177673000Y-122428000D01*
X177673000Y-121228750D01*
X177927000Y-121228750D01*
X177927000Y-122428000D01*
X179126250Y-122428000D01*
X179285000Y-122269250D01*
X179285000Y-121578690D01*
X179188327Y-121345301D01*
X179009698Y-121166673D01*
X178776309Y-121070000D01*
X178085750Y-121070000D01*
X177927000Y-121228750D01*
X177673000Y-121228750D01*
X177514250Y-121070000D01*
X176823691Y-121070000D01*
X176692542Y-121124324D01*
X176723139Y-121022745D01*
X175895000Y-120194605D01*
X175066861Y-121022745D01*
X164023139Y-121022745D01*
X163195000Y-120194605D01*
X162366861Y-121022745D01*
X151323139Y-121022745D01*
X150495000Y-120194605D01*
X149666861Y-121022745D01*
X138623139Y-121022745D01*
X137795000Y-120194605D01*
X136966861Y-121022745D01*
X127710000Y-121022745D01*
X127710000Y-119665750D01*
X130060000Y-119665750D01*
X130060000Y-120031309D01*
X130156673Y-120264698D01*
X130335301Y-120443327D01*
X130568690Y-120540000D01*
X131159250Y-120540000D01*
X131318000Y-120381250D01*
X131318000Y-119507000D01*
X131572000Y-119507000D01*
X131572000Y-120381250D01*
X131730750Y-120540000D01*
X132321310Y-120540000D01*
X132554699Y-120443327D01*
X132733327Y-120264698D01*
X132830000Y-120031309D01*
X132830000Y-119798223D01*
X136348035Y-119798223D01*
X136375222Y-120368454D01*
X136541136Y-120769005D01*
X136787255Y-120843139D01*
X137615395Y-120015000D01*
X137974605Y-120015000D01*
X138802745Y-120843139D01*
X139048864Y-120769005D01*
X139241965Y-120231777D01*
X139214979Y-119665750D01*
X142760000Y-119665750D01*
X142760000Y-120031309D01*
X142856673Y-120264698D01*
X143035301Y-120443327D01*
X143268690Y-120540000D01*
X143859250Y-120540000D01*
X144018000Y-120381250D01*
X144018000Y-119507000D01*
X144272000Y-119507000D01*
X144272000Y-120381250D01*
X144430750Y-120540000D01*
X145021310Y-120540000D01*
X145254699Y-120443327D01*
X145433327Y-120264698D01*
X145530000Y-120031309D01*
X145530000Y-119798223D01*
X149048035Y-119798223D01*
X149075222Y-120368454D01*
X149241136Y-120769005D01*
X149487255Y-120843139D01*
X150315395Y-120015000D01*
X150674605Y-120015000D01*
X151502745Y-120843139D01*
X151748864Y-120769005D01*
X151941965Y-120231777D01*
X151914979Y-119665750D01*
X155460000Y-119665750D01*
X155460000Y-120031309D01*
X155556673Y-120264698D01*
X155735301Y-120443327D01*
X155968690Y-120540000D01*
X156559250Y-120540000D01*
X156718000Y-120381250D01*
X156718000Y-119507000D01*
X156972000Y-119507000D01*
X156972000Y-120381250D01*
X157130750Y-120540000D01*
X157721310Y-120540000D01*
X157954699Y-120443327D01*
X158133327Y-120264698D01*
X158230000Y-120031309D01*
X158230000Y-119798223D01*
X161748035Y-119798223D01*
X161775222Y-120368454D01*
X161941136Y-120769005D01*
X162187255Y-120843139D01*
X163015395Y-120015000D01*
X163374605Y-120015000D01*
X164202745Y-120843139D01*
X164448864Y-120769005D01*
X164641965Y-120231777D01*
X164614979Y-119665750D01*
X168160000Y-119665750D01*
X168160000Y-120031309D01*
X168256673Y-120264698D01*
X168435301Y-120443327D01*
X168668690Y-120540000D01*
X169259250Y-120540000D01*
X169418000Y-120381250D01*
X169418000Y-119507000D01*
X169672000Y-119507000D01*
X169672000Y-120381250D01*
X169830750Y-120540000D01*
X170421310Y-120540000D01*
X170654699Y-120443327D01*
X170833327Y-120264698D01*
X170930000Y-120031309D01*
X170930000Y-119798223D01*
X174448035Y-119798223D01*
X174475222Y-120368454D01*
X174641136Y-120769005D01*
X174887255Y-120843139D01*
X175715395Y-120015000D01*
X176074605Y-120015000D01*
X176902745Y-120843139D01*
X177148864Y-120769005D01*
X177341965Y-120231777D01*
X177314778Y-119661546D01*
X177148864Y-119260995D01*
X176902745Y-119186861D01*
X176074605Y-120015000D01*
X175715395Y-120015000D01*
X174887255Y-119186861D01*
X174641136Y-119260995D01*
X174448035Y-119798223D01*
X170930000Y-119798223D01*
X170930000Y-119665750D01*
X170771250Y-119507000D01*
X169672000Y-119507000D01*
X169418000Y-119507000D01*
X168318750Y-119507000D01*
X168160000Y-119665750D01*
X164614979Y-119665750D01*
X164614778Y-119661546D01*
X164448864Y-119260995D01*
X164202745Y-119186861D01*
X163374605Y-120015000D01*
X163015395Y-120015000D01*
X162187255Y-119186861D01*
X161941136Y-119260995D01*
X161748035Y-119798223D01*
X158230000Y-119798223D01*
X158230000Y-119665750D01*
X158071250Y-119507000D01*
X156972000Y-119507000D01*
X156718000Y-119507000D01*
X155618750Y-119507000D01*
X155460000Y-119665750D01*
X151914979Y-119665750D01*
X151914778Y-119661546D01*
X151748864Y-119260995D01*
X151502745Y-119186861D01*
X150674605Y-120015000D01*
X150315395Y-120015000D01*
X149487255Y-119186861D01*
X149241136Y-119260995D01*
X149048035Y-119798223D01*
X145530000Y-119798223D01*
X145530000Y-119665750D01*
X145371250Y-119507000D01*
X144272000Y-119507000D01*
X144018000Y-119507000D01*
X142918750Y-119507000D01*
X142760000Y-119665750D01*
X139214979Y-119665750D01*
X139214778Y-119661546D01*
X139048864Y-119260995D01*
X138802745Y-119186861D01*
X137974605Y-120015000D01*
X137615395Y-120015000D01*
X136787255Y-119186861D01*
X136541136Y-119260995D01*
X136348035Y-119798223D01*
X132830000Y-119798223D01*
X132830000Y-119665750D01*
X132671250Y-119507000D01*
X131572000Y-119507000D01*
X131318000Y-119507000D01*
X130218750Y-119507000D01*
X130060000Y-119665750D01*
X127710000Y-119665750D01*
X127710000Y-112671661D01*
X128142758Y-112671661D01*
X128354990Y-113185303D01*
X128747630Y-113578629D01*
X129260900Y-113791757D01*
X129816661Y-113792242D01*
X130330303Y-113580010D01*
X130723629Y-113187370D01*
X130936757Y-112674100D01*
X130937242Y-112118339D01*
X130725010Y-111604697D01*
X130332370Y-111211371D01*
X129819100Y-110998243D01*
X129263339Y-110997758D01*
X128749697Y-111209990D01*
X128356371Y-111602630D01*
X128143243Y-112115900D01*
X128142758Y-112671661D01*
X127710000Y-112671661D01*
X127710000Y-98210000D01*
X128042560Y-98210000D01*
X128042560Y-99910000D01*
X128086838Y-100145317D01*
X128225910Y-100361441D01*
X128438110Y-100506431D01*
X128690000Y-100557440D01*
X130390000Y-100557440D01*
X130625317Y-100513162D01*
X130841441Y-100374090D01*
X130986431Y-100161890D01*
X131000086Y-100094459D01*
X131029946Y-100139147D01*
X131511715Y-100461054D01*
X132080000Y-100574093D01*
X132648285Y-100461054D01*
X133042649Y-100197549D01*
X130936941Y-102303257D01*
X130937242Y-101958339D01*
X130725010Y-101444697D01*
X130332370Y-101051371D01*
X129819100Y-100838243D01*
X129263339Y-100837758D01*
X128749697Y-101049990D01*
X128356371Y-101442630D01*
X128143243Y-101955900D01*
X128142758Y-102511661D01*
X128354990Y-103025303D01*
X128747630Y-103418629D01*
X128955512Y-103504949D01*
X128749697Y-103589990D01*
X128356371Y-103982630D01*
X128143243Y-104495900D01*
X128142758Y-105051661D01*
X128354990Y-105565303D01*
X128747630Y-105958629D01*
X129260900Y-106171757D01*
X129816661Y-106172242D01*
X129849055Y-106158857D01*
X134026798Y-110336600D01*
X130907599Y-113455799D01*
X130742852Y-113702361D01*
X130685000Y-113993200D01*
X130685000Y-115811032D01*
X130372622Y-116019756D01*
X130121166Y-116396087D01*
X130032866Y-116840000D01*
X130121166Y-117283913D01*
X130248846Y-117475000D01*
X130121166Y-117666087D01*
X130032866Y-118110000D01*
X130121166Y-118553913D01*
X130128098Y-118564288D01*
X130060000Y-118728691D01*
X130060000Y-119094250D01*
X130218750Y-119253000D01*
X131107401Y-119253000D01*
X131192866Y-119270000D01*
X131697134Y-119270000D01*
X131782599Y-119253000D01*
X132671250Y-119253000D01*
X132830000Y-119094250D01*
X132830000Y-119050300D01*
X135854400Y-119050300D01*
X136145239Y-118992448D01*
X136391801Y-118827701D01*
X136748815Y-118470687D01*
X136780302Y-118517811D01*
X137104868Y-118734679D01*
X137040995Y-118761136D01*
X136966861Y-119007255D01*
X137795000Y-119835395D01*
X138623139Y-119007255D01*
X138549005Y-118761136D01*
X138481728Y-118736954D01*
X138809698Y-118517811D01*
X139120767Y-118052264D01*
X139230000Y-117503113D01*
X139230000Y-117446887D01*
X139120767Y-116897736D01*
X138809698Y-116432189D01*
X138469686Y-116205000D01*
X138809698Y-115977811D01*
X138998667Y-115695000D01*
X143499898Y-115695000D01*
X143552584Y-115747686D01*
X143448953Y-115768300D01*
X143072622Y-116019756D01*
X142821166Y-116396087D01*
X142732866Y-116840000D01*
X142821166Y-117283913D01*
X142948846Y-117475000D01*
X142821166Y-117666087D01*
X142732866Y-118110000D01*
X142821166Y-118553913D01*
X142828098Y-118564288D01*
X142760000Y-118728691D01*
X142760000Y-119094250D01*
X142918750Y-119253000D01*
X143807401Y-119253000D01*
X143892866Y-119270000D01*
X144397134Y-119270000D01*
X144482599Y-119253000D01*
X145371250Y-119253000D01*
X145530000Y-119094250D01*
X145530000Y-119050300D01*
X148554400Y-119050300D01*
X148845239Y-118992448D01*
X149091801Y-118827701D01*
X149448815Y-118470687D01*
X149480302Y-118517811D01*
X149804868Y-118734679D01*
X149740995Y-118761136D01*
X149666861Y-119007255D01*
X150495000Y-119835395D01*
X151323139Y-119007255D01*
X151249005Y-118761136D01*
X151181728Y-118736954D01*
X151509698Y-118517811D01*
X151820767Y-118052264D01*
X151930000Y-117503113D01*
X151930000Y-117446887D01*
X151820767Y-116897736D01*
X151509698Y-116432189D01*
X151169686Y-116205000D01*
X151509698Y-115977811D01*
X151698667Y-115695000D01*
X156199898Y-115695000D01*
X156252584Y-115747686D01*
X156148953Y-115768300D01*
X155772622Y-116019756D01*
X155521166Y-116396087D01*
X155432866Y-116840000D01*
X155521166Y-117283913D01*
X155648846Y-117475000D01*
X155521166Y-117666087D01*
X155432866Y-118110000D01*
X155521166Y-118553913D01*
X155528098Y-118564288D01*
X155460000Y-118728691D01*
X155460000Y-119094250D01*
X155618750Y-119253000D01*
X156507401Y-119253000D01*
X156592866Y-119270000D01*
X157097134Y-119270000D01*
X157182599Y-119253000D01*
X158071250Y-119253000D01*
X158230000Y-119094250D01*
X158230000Y-119050300D01*
X161254400Y-119050300D01*
X161545239Y-118992448D01*
X161791801Y-118827701D01*
X162148815Y-118470687D01*
X162180302Y-118517811D01*
X162504868Y-118734679D01*
X162440995Y-118761136D01*
X162366861Y-119007255D01*
X163195000Y-119835395D01*
X164023139Y-119007255D01*
X163949005Y-118761136D01*
X163881728Y-118736954D01*
X164209698Y-118517811D01*
X164520767Y-118052264D01*
X164630000Y-117503113D01*
X164630000Y-117446887D01*
X164520767Y-116897736D01*
X164209698Y-116432189D01*
X163869686Y-116205000D01*
X164209698Y-115977811D01*
X164398667Y-115695000D01*
X168899898Y-115695000D01*
X168952584Y-115747686D01*
X168848953Y-115768300D01*
X168472622Y-116019756D01*
X168221166Y-116396087D01*
X168132866Y-116840000D01*
X168221166Y-117283913D01*
X168348846Y-117475000D01*
X168221166Y-117666087D01*
X168132866Y-118110000D01*
X168221166Y-118553913D01*
X168228098Y-118564288D01*
X168160000Y-118728691D01*
X168160000Y-119094250D01*
X168318750Y-119253000D01*
X169207401Y-119253000D01*
X169292866Y-119270000D01*
X169797134Y-119270000D01*
X169882599Y-119253000D01*
X170771250Y-119253000D01*
X170930000Y-119094250D01*
X170930000Y-119050300D01*
X173954400Y-119050300D01*
X174245239Y-118992448D01*
X174491801Y-118827701D01*
X174848815Y-118470687D01*
X174880302Y-118517811D01*
X175204868Y-118734679D01*
X175140995Y-118761136D01*
X175066861Y-119007255D01*
X175895000Y-119835395D01*
X176723139Y-119007255D01*
X176649005Y-118761136D01*
X176581728Y-118736954D01*
X176909698Y-118517811D01*
X177220767Y-118052264D01*
X177330000Y-117503113D01*
X177330000Y-117446887D01*
X177220767Y-116897736D01*
X176909698Y-116432189D01*
X176569686Y-116205000D01*
X176909698Y-115977811D01*
X177220767Y-115512264D01*
X177330000Y-114963113D01*
X177330000Y-114906887D01*
X177220767Y-114357736D01*
X176909698Y-113892189D01*
X176573290Y-113667408D01*
X176706800Y-113612243D01*
X177110824Y-113208923D01*
X177329750Y-112681691D01*
X177330248Y-112110813D01*
X177112243Y-111583200D01*
X176708923Y-111179176D01*
X176683730Y-111168715D01*
X176980409Y-110970481D01*
X177313155Y-110472491D01*
X177430000Y-109885072D01*
X177430000Y-109824928D01*
X177313155Y-109237509D01*
X176980409Y-108739519D01*
X176482419Y-108406773D01*
X175895000Y-108289928D01*
X175307581Y-108406773D01*
X174809591Y-108739519D01*
X174572066Y-109095000D01*
X173034802Y-109095000D01*
X169024183Y-105084381D01*
X169036757Y-105054100D01*
X169037242Y-104498339D01*
X168940829Y-104265000D01*
X171419121Y-104265000D01*
X171323243Y-104495900D01*
X171322758Y-105051661D01*
X171534990Y-105565303D01*
X171927630Y-105958629D01*
X172440900Y-106171757D01*
X172996661Y-106172242D01*
X173510303Y-105960010D01*
X173903629Y-105567370D01*
X174116757Y-105054100D01*
X174117242Y-104498339D01*
X173930637Y-104046720D01*
X173937101Y-104042401D01*
X174476937Y-103502565D01*
X174530910Y-103586441D01*
X174743110Y-103731431D01*
X174995000Y-103782440D01*
X176795000Y-103782440D01*
X177030317Y-103738162D01*
X177246441Y-103599090D01*
X177391431Y-103386890D01*
X177442440Y-103135000D01*
X177442440Y-101335000D01*
X177398162Y-101099683D01*
X177259090Y-100883559D01*
X177046890Y-100738569D01*
X176795000Y-100687560D01*
X174995000Y-100687560D01*
X174759683Y-100731838D01*
X174543559Y-100870910D01*
X174398569Y-101083110D01*
X174347560Y-101335000D01*
X174347560Y-101553766D01*
X174132299Y-101697599D01*
X174045409Y-101784489D01*
X173905010Y-101444697D01*
X173512370Y-101051371D01*
X172999100Y-100838243D01*
X172443339Y-100837758D01*
X171929697Y-101049990D01*
X171536371Y-101442630D01*
X171323243Y-101955900D01*
X171322758Y-102511661D01*
X171419171Y-102745000D01*
X168940879Y-102745000D01*
X169036757Y-102514100D01*
X169037242Y-101958339D01*
X168825010Y-101444697D01*
X168432370Y-101051371D01*
X167919100Y-100838243D01*
X167363339Y-100837758D01*
X166849697Y-101049990D01*
X166456371Y-101442630D01*
X166243243Y-101955900D01*
X166242758Y-102511661D01*
X166339171Y-102745000D01*
X166005102Y-102745000D01*
X164957701Y-101697599D01*
X164742440Y-101553767D01*
X164742440Y-101335000D01*
X164698162Y-101099683D01*
X164559090Y-100883559D01*
X164346890Y-100738569D01*
X164095000Y-100687560D01*
X162295000Y-100687560D01*
X162059683Y-100731838D01*
X161843559Y-100870910D01*
X161698569Y-101083110D01*
X161647560Y-101335000D01*
X161647560Y-101553766D01*
X161432299Y-101697599D01*
X161345409Y-101784489D01*
X161205010Y-101444697D01*
X160812370Y-101051371D01*
X160299100Y-100838243D01*
X159743339Y-100837758D01*
X159229697Y-101049990D01*
X158836371Y-101442630D01*
X158623243Y-101955900D01*
X158622758Y-102511661D01*
X158719171Y-102745000D01*
X156240879Y-102745000D01*
X156336757Y-102514100D01*
X156337242Y-101958339D01*
X156125010Y-101444697D01*
X155732370Y-101051371D01*
X155219100Y-100838243D01*
X154663339Y-100837758D01*
X154149697Y-101049990D01*
X153756371Y-101442630D01*
X153543243Y-101955900D01*
X153542758Y-102511661D01*
X153639171Y-102745000D01*
X153305102Y-102745000D01*
X152257701Y-101697599D01*
X152042440Y-101553767D01*
X152042440Y-101335000D01*
X151998162Y-101099683D01*
X151859090Y-100883559D01*
X151646890Y-100738569D01*
X151395000Y-100687560D01*
X149595000Y-100687560D01*
X149359683Y-100731838D01*
X149143559Y-100870910D01*
X148998569Y-101083110D01*
X148947560Y-101335000D01*
X148947560Y-101553766D01*
X148732299Y-101697599D01*
X148645409Y-101784489D01*
X148505010Y-101444697D01*
X148112370Y-101051371D01*
X147599100Y-100838243D01*
X147043339Y-100837758D01*
X146529697Y-101049990D01*
X146136371Y-101442630D01*
X145923243Y-101955900D01*
X145922758Y-102511661D01*
X146019171Y-102745000D01*
X143540879Y-102745000D01*
X143636757Y-102514100D01*
X143637242Y-101958339D01*
X143425010Y-101444697D01*
X143032370Y-101051371D01*
X142519100Y-100838243D01*
X141963339Y-100837758D01*
X141449697Y-101049990D01*
X141056371Y-101442630D01*
X140843243Y-101955900D01*
X140842758Y-102511661D01*
X140939171Y-102745000D01*
X140605102Y-102745000D01*
X139557701Y-101697599D01*
X139342440Y-101553767D01*
X139342440Y-101335000D01*
X139298162Y-101099683D01*
X139159090Y-100883559D01*
X138946890Y-100738569D01*
X138695000Y-100687560D01*
X136895000Y-100687560D01*
X136659683Y-100731838D01*
X136443559Y-100870910D01*
X136298569Y-101083110D01*
X136247560Y-101335000D01*
X136247560Y-101553767D01*
X136032299Y-101697599D01*
X135956426Y-101811152D01*
X135805010Y-101444697D01*
X135412370Y-101051371D01*
X135244774Y-100981779D01*
X135467639Y-100937448D01*
X135714201Y-100772701D01*
X136252502Y-100234400D01*
X136591715Y-100461054D01*
X137160000Y-100574093D01*
X137728285Y-100461054D01*
X138210054Y-100139147D01*
X138430000Y-99809974D01*
X138649946Y-100139147D01*
X139131715Y-100461054D01*
X139700000Y-100574093D01*
X140268285Y-100461054D01*
X140750054Y-100139147D01*
X140777850Y-100097548D01*
X140786838Y-100145317D01*
X140925910Y-100361441D01*
X141138110Y-100506431D01*
X141390000Y-100557440D01*
X143090000Y-100557440D01*
X143325317Y-100513162D01*
X143541441Y-100374090D01*
X143686431Y-100161890D01*
X143700086Y-100094459D01*
X143729946Y-100139147D01*
X144211715Y-100461054D01*
X144780000Y-100574093D01*
X145348285Y-100461054D01*
X145830054Y-100139147D01*
X146050000Y-99809974D01*
X146269946Y-100139147D01*
X146751715Y-100461054D01*
X147320000Y-100574093D01*
X147888285Y-100461054D01*
X148370054Y-100139147D01*
X148590000Y-99809974D01*
X148809946Y-100139147D01*
X149291715Y-100461054D01*
X149860000Y-100574093D01*
X150428285Y-100461054D01*
X150910054Y-100139147D01*
X151130000Y-99809974D01*
X151349946Y-100139147D01*
X151831715Y-100461054D01*
X152400000Y-100574093D01*
X152968285Y-100461054D01*
X153450054Y-100139147D01*
X153477850Y-100097548D01*
X153486838Y-100145317D01*
X153625910Y-100361441D01*
X153838110Y-100506431D01*
X154090000Y-100557440D01*
X155790000Y-100557440D01*
X156025317Y-100513162D01*
X156241441Y-100374090D01*
X156386431Y-100161890D01*
X156400086Y-100094459D01*
X156429946Y-100139147D01*
X156911715Y-100461054D01*
X157480000Y-100574093D01*
X158048285Y-100461054D01*
X158530054Y-100139147D01*
X158750000Y-99809974D01*
X158969946Y-100139147D01*
X159451715Y-100461054D01*
X160020000Y-100574093D01*
X160588285Y-100461054D01*
X161070054Y-100139147D01*
X161290000Y-99809974D01*
X161509946Y-100139147D01*
X161991715Y-100461054D01*
X162560000Y-100574093D01*
X163128285Y-100461054D01*
X163610054Y-100139147D01*
X163830000Y-99809974D01*
X164049946Y-100139147D01*
X164531715Y-100461054D01*
X165100000Y-100574093D01*
X165668285Y-100461054D01*
X166150054Y-100139147D01*
X166177850Y-100097548D01*
X166186838Y-100145317D01*
X166325910Y-100361441D01*
X166538110Y-100506431D01*
X166790000Y-100557440D01*
X168490000Y-100557440D01*
X168725317Y-100513162D01*
X168941441Y-100374090D01*
X169086431Y-100161890D01*
X169100086Y-100094459D01*
X169129946Y-100139147D01*
X169611715Y-100461054D01*
X170180000Y-100574093D01*
X170748285Y-100461054D01*
X171230054Y-100139147D01*
X171450000Y-99809974D01*
X171669946Y-100139147D01*
X172151715Y-100461054D01*
X172720000Y-100574093D01*
X173288285Y-100461054D01*
X173770054Y-100139147D01*
X173990000Y-99809974D01*
X174209946Y-100139147D01*
X174691715Y-100461054D01*
X175260000Y-100574093D01*
X175828285Y-100461054D01*
X176310054Y-100139147D01*
X176530000Y-99809974D01*
X176749946Y-100139147D01*
X177231715Y-100461054D01*
X177800000Y-100574093D01*
X178368285Y-100461054D01*
X178850054Y-100139147D01*
X179171961Y-99657378D01*
X179285000Y-99089093D01*
X179285000Y-99030907D01*
X179171961Y-98462622D01*
X178850054Y-97980853D01*
X178368285Y-97658946D01*
X177800000Y-97545907D01*
X177231715Y-97658946D01*
X176749946Y-97980853D01*
X176530000Y-98310026D01*
X176310054Y-97980853D01*
X175828285Y-97658946D01*
X175260000Y-97545907D01*
X174691715Y-97658946D01*
X174209946Y-97980853D01*
X173990000Y-98310026D01*
X173770054Y-97980853D01*
X173288285Y-97658946D01*
X172720000Y-97545907D01*
X172151715Y-97658946D01*
X171669946Y-97980853D01*
X171450000Y-98310026D01*
X171230054Y-97980853D01*
X170748285Y-97658946D01*
X170180000Y-97545907D01*
X169611715Y-97658946D01*
X169129946Y-97980853D01*
X169102150Y-98022452D01*
X169093162Y-97974683D01*
X168954090Y-97758559D01*
X168741890Y-97613569D01*
X168490000Y-97562560D01*
X166790000Y-97562560D01*
X166554683Y-97606838D01*
X166338559Y-97745910D01*
X166193569Y-97958110D01*
X166179914Y-98025541D01*
X166150054Y-97980853D01*
X165668285Y-97658946D01*
X165100000Y-97545907D01*
X164531715Y-97658946D01*
X164049946Y-97980853D01*
X163830000Y-98310026D01*
X163610054Y-97980853D01*
X163128285Y-97658946D01*
X162560000Y-97545907D01*
X161991715Y-97658946D01*
X161509946Y-97980853D01*
X161290000Y-98310026D01*
X161070054Y-97980853D01*
X160588285Y-97658946D01*
X160020000Y-97545907D01*
X159451715Y-97658946D01*
X158969946Y-97980853D01*
X158750000Y-98310026D01*
X158530054Y-97980853D01*
X158048285Y-97658946D01*
X157480000Y-97545907D01*
X156911715Y-97658946D01*
X156429946Y-97980853D01*
X156402150Y-98022452D01*
X156393162Y-97974683D01*
X156254090Y-97758559D01*
X156041890Y-97613569D01*
X155790000Y-97562560D01*
X154090000Y-97562560D01*
X153854683Y-97606838D01*
X153638559Y-97745910D01*
X153493569Y-97958110D01*
X153479914Y-98025541D01*
X153450054Y-97980853D01*
X152968285Y-97658946D01*
X152400000Y-97545907D01*
X151831715Y-97658946D01*
X151349946Y-97980853D01*
X151130000Y-98310026D01*
X150910054Y-97980853D01*
X150428285Y-97658946D01*
X149860000Y-97545907D01*
X149291715Y-97658946D01*
X148809946Y-97980853D01*
X148590000Y-98310026D01*
X148370054Y-97980853D01*
X147888285Y-97658946D01*
X147320000Y-97545907D01*
X146751715Y-97658946D01*
X146269946Y-97980853D01*
X146050000Y-98310026D01*
X145830054Y-97980853D01*
X145348285Y-97658946D01*
X144780000Y-97545907D01*
X144211715Y-97658946D01*
X143729946Y-97980853D01*
X143702150Y-98022452D01*
X143693162Y-97974683D01*
X143554090Y-97758559D01*
X143341890Y-97613569D01*
X143090000Y-97562560D01*
X141390000Y-97562560D01*
X141154683Y-97606838D01*
X140938559Y-97745910D01*
X140793569Y-97958110D01*
X140779914Y-98025541D01*
X140750054Y-97980853D01*
X140268285Y-97658946D01*
X139700000Y-97545907D01*
X139131715Y-97658946D01*
X138649946Y-97980853D01*
X138430000Y-98310026D01*
X138210054Y-97980853D01*
X137728285Y-97658946D01*
X137160000Y-97545907D01*
X136591715Y-97658946D01*
X136109946Y-97980853D01*
X135890000Y-98310026D01*
X135670054Y-97980853D01*
X135188285Y-97658946D01*
X134620000Y-97545907D01*
X134051715Y-97658946D01*
X133569946Y-97980853D01*
X133350000Y-98310026D01*
X133130054Y-97980853D01*
X132648285Y-97658946D01*
X132080000Y-97545907D01*
X131511715Y-97658946D01*
X131029946Y-97980853D01*
X131002150Y-98022452D01*
X130993162Y-97974683D01*
X130854090Y-97758559D01*
X130641890Y-97613569D01*
X130390000Y-97562560D01*
X128690000Y-97562560D01*
X128454683Y-97606838D01*
X128238559Y-97745910D01*
X128093569Y-97958110D01*
X128042560Y-98210000D01*
X127710000Y-98210000D01*
X127710000Y-97230000D01*
X179630000Y-97230000D01*
X179630000Y-126925000D01*
G36*
X136709591Y-110970481D02*
X137005816Y-111168412D01*
X136983200Y-111177757D01*
X136579176Y-111581077D01*
X136360250Y-112108309D01*
X136359752Y-112679187D01*
X136382049Y-112733149D01*
X134452100Y-114663098D01*
X134329161Y-114687552D01*
X134082599Y-114852299D01*
X133932118Y-115077510D01*
X133749683Y-115111838D01*
X133533559Y-115250910D01*
X133388569Y-115463110D01*
X133337560Y-115715000D01*
X133337560Y-116685000D01*
X133367796Y-116845690D01*
X133337560Y-116995000D01*
X133337560Y-117530300D01*
X132994396Y-117530300D01*
X132811139Y-117407852D01*
X132700699Y-117385884D01*
X132768834Y-117283913D01*
X132857134Y-116840000D01*
X132768834Y-116396087D01*
X132517378Y-116019756D01*
X132205000Y-115811032D01*
X132205000Y-114308002D01*
X133403620Y-113109382D01*
X133434990Y-113185303D01*
X133827630Y-113578629D01*
X134340900Y-113791757D01*
X134896661Y-113792242D01*
X135410303Y-113580010D01*
X135803629Y-113187370D01*
X136016757Y-112674100D01*
X136017242Y-112118339D01*
X135805010Y-111604697D01*
X135412370Y-111211371D01*
X135334122Y-111178880D01*
X135898002Y-110615000D01*
X136472066Y-110615000D01*
X136709591Y-110970481D01*
X136709591Y-110970481D01*
G37*
X136709591Y-110970481D02*
X137005816Y-111168412D01*
X136983200Y-111177757D01*
X136579176Y-111581077D01*
X136360250Y-112108309D01*
X136359752Y-112679187D01*
X136382049Y-112733149D01*
X134452100Y-114663098D01*
X134329161Y-114687552D01*
X134082599Y-114852299D01*
X133932118Y-115077510D01*
X133749683Y-115111838D01*
X133533559Y-115250910D01*
X133388569Y-115463110D01*
X133337560Y-115715000D01*
X133337560Y-116685000D01*
X133367796Y-116845690D01*
X133337560Y-116995000D01*
X133337560Y-117530300D01*
X132994396Y-117530300D01*
X132811139Y-117407852D01*
X132700699Y-117385884D01*
X132768834Y-117283913D01*
X132857134Y-116840000D01*
X132768834Y-116396087D01*
X132517378Y-116019756D01*
X132205000Y-115811032D01*
X132205000Y-114308002D01*
X133403620Y-113109382D01*
X133434990Y-113185303D01*
X133827630Y-113578629D01*
X134340900Y-113791757D01*
X134896661Y-113792242D01*
X135410303Y-113580010D01*
X135803629Y-113187370D01*
X136016757Y-112674100D01*
X136017242Y-112118339D01*
X135805010Y-111604697D01*
X135412370Y-111211371D01*
X135334122Y-111178880D01*
X135898002Y-110615000D01*
X136472066Y-110615000D01*
X136709591Y-110970481D01*
G36*
X148732299Y-110392401D02*
X148978861Y-110557148D01*
X149157101Y-110592602D01*
X149409591Y-110970481D01*
X149705816Y-111168412D01*
X149683200Y-111177757D01*
X149279176Y-111581077D01*
X149060250Y-112108309D01*
X149059752Y-112679187D01*
X149082049Y-112733149D01*
X147152100Y-114663098D01*
X147029161Y-114687552D01*
X146782599Y-114852299D01*
X146632118Y-115077510D01*
X146449683Y-115111838D01*
X146233559Y-115250910D01*
X146088569Y-115463110D01*
X146037560Y-115715000D01*
X146037560Y-116083058D01*
X144352101Y-114397599D01*
X144105539Y-114232852D01*
X143814700Y-114175000D01*
X141050300Y-114175000D01*
X141050300Y-113173952D01*
X141054990Y-113185303D01*
X141447630Y-113578629D01*
X141960900Y-113791757D01*
X142516661Y-113792242D01*
X143030303Y-113580010D01*
X143423629Y-113187370D01*
X143636757Y-112674100D01*
X143636759Y-112671661D01*
X145922758Y-112671661D01*
X146134990Y-113185303D01*
X146527630Y-113578629D01*
X147040900Y-113791757D01*
X147596661Y-113792242D01*
X148110303Y-113580010D01*
X148503629Y-113187370D01*
X148716757Y-112674100D01*
X148717242Y-112118339D01*
X148505010Y-111604697D01*
X148112370Y-111211371D01*
X147599100Y-110998243D01*
X147043339Y-110997758D01*
X146529697Y-111209990D01*
X146136371Y-111602630D01*
X145923243Y-112115900D01*
X145922758Y-112671661D01*
X143636759Y-112671661D01*
X143637242Y-112118339D01*
X143425010Y-111604697D01*
X143032370Y-111211371D01*
X142519100Y-110998243D01*
X141963339Y-110997758D01*
X141449697Y-111209990D01*
X141056371Y-111602630D01*
X141050300Y-111617251D01*
X141050300Y-105553952D01*
X141054990Y-105565303D01*
X141447630Y-105958629D01*
X141960900Y-106171757D01*
X142516661Y-106172242D01*
X143030303Y-105960010D01*
X143423629Y-105567370D01*
X143437070Y-105535000D01*
X143874898Y-105535000D01*
X148732299Y-110392401D01*
X148732299Y-110392401D01*
G37*
X148732299Y-110392401D02*
X148978861Y-110557148D01*
X149157101Y-110592602D01*
X149409591Y-110970481D01*
X149705816Y-111168412D01*
X149683200Y-111177757D01*
X149279176Y-111581077D01*
X149060250Y-112108309D01*
X149059752Y-112679187D01*
X149082049Y-112733149D01*
X147152100Y-114663098D01*
X147029161Y-114687552D01*
X146782599Y-114852299D01*
X146632118Y-115077510D01*
X146449683Y-115111838D01*
X146233559Y-115250910D01*
X146088569Y-115463110D01*
X146037560Y-115715000D01*
X146037560Y-116083058D01*
X144352101Y-114397599D01*
X144105539Y-114232852D01*
X143814700Y-114175000D01*
X141050300Y-114175000D01*
X141050300Y-113173952D01*
X141054990Y-113185303D01*
X141447630Y-113578629D01*
X141960900Y-113791757D01*
X142516661Y-113792242D01*
X143030303Y-113580010D01*
X143423629Y-113187370D01*
X143636757Y-112674100D01*
X143636759Y-112671661D01*
X145922758Y-112671661D01*
X146134990Y-113185303D01*
X146527630Y-113578629D01*
X147040900Y-113791757D01*
X147596661Y-113792242D01*
X148110303Y-113580010D01*
X148503629Y-113187370D01*
X148716757Y-112674100D01*
X148717242Y-112118339D01*
X148505010Y-111604697D01*
X148112370Y-111211371D01*
X147599100Y-110998243D01*
X147043339Y-110997758D01*
X146529697Y-111209990D01*
X146136371Y-111602630D01*
X145923243Y-112115900D01*
X145922758Y-112671661D01*
X143636759Y-112671661D01*
X143637242Y-112118339D01*
X143425010Y-111604697D01*
X143032370Y-111211371D01*
X142519100Y-110998243D01*
X141963339Y-110997758D01*
X141449697Y-111209990D01*
X141056371Y-111602630D01*
X141050300Y-111617251D01*
X141050300Y-105553952D01*
X141054990Y-105565303D01*
X141447630Y-105958629D01*
X141960900Y-106171757D01*
X142516661Y-106172242D01*
X143030303Y-105960010D01*
X143423629Y-105567370D01*
X143437070Y-105535000D01*
X143874898Y-105535000D01*
X148732299Y-110392401D01*
G36*
X165152899Y-104042401D02*
X165399460Y-104207148D01*
X165690300Y-104265000D01*
X166339121Y-104265000D01*
X166243243Y-104495900D01*
X166242758Y-105051661D01*
X166454990Y-105565303D01*
X166847630Y-105958629D01*
X167360900Y-106171757D01*
X167916661Y-106172242D01*
X167949055Y-106158857D01*
X172182599Y-110392401D01*
X172429161Y-110557148D01*
X172720000Y-110615000D01*
X174572066Y-110615000D01*
X174809591Y-110970481D01*
X175105816Y-111168412D01*
X175083200Y-111177757D01*
X174679176Y-111581077D01*
X174460250Y-112108309D01*
X174459752Y-112679187D01*
X174482049Y-112733149D01*
X172552100Y-114663098D01*
X172429161Y-114687552D01*
X172182599Y-114852299D01*
X172032118Y-115077510D01*
X171849683Y-115111838D01*
X171633559Y-115250910D01*
X171488569Y-115463110D01*
X171437560Y-115715000D01*
X171437560Y-116083058D01*
X169752101Y-114397599D01*
X169505539Y-114232852D01*
X169214700Y-114175000D01*
X164398667Y-114175000D01*
X164209698Y-113892189D01*
X163873290Y-113667408D01*
X164006800Y-113612243D01*
X164410824Y-113208923D01*
X164629750Y-112681691D01*
X164629758Y-112671661D01*
X166242758Y-112671661D01*
X166454990Y-113185303D01*
X166847630Y-113578629D01*
X167360900Y-113791757D01*
X167916661Y-113792242D01*
X168430303Y-113580010D01*
X168823629Y-113187370D01*
X169036757Y-112674100D01*
X169036759Y-112671661D01*
X171322758Y-112671661D01*
X171534990Y-113185303D01*
X171927630Y-113578629D01*
X172440900Y-113791757D01*
X172996661Y-113792242D01*
X173510303Y-113580010D01*
X173903629Y-113187370D01*
X174116757Y-112674100D01*
X174117242Y-112118339D01*
X173905010Y-111604697D01*
X173512370Y-111211371D01*
X172999100Y-110998243D01*
X172443339Y-110997758D01*
X171929697Y-111209990D01*
X171536371Y-111602630D01*
X171323243Y-112115900D01*
X171322758Y-112671661D01*
X169036759Y-112671661D01*
X169037242Y-112118339D01*
X168825010Y-111604697D01*
X168432370Y-111211371D01*
X167919100Y-110998243D01*
X167363339Y-110997758D01*
X166849697Y-111209990D01*
X166456371Y-111602630D01*
X166243243Y-112115900D01*
X166242758Y-112671661D01*
X164629758Y-112671661D01*
X164630248Y-112110813D01*
X164412243Y-111583200D01*
X164008923Y-111179176D01*
X163983730Y-111168715D01*
X164280409Y-110970481D01*
X164613155Y-110472491D01*
X164730000Y-109885072D01*
X164730000Y-109824928D01*
X164613155Y-109237509D01*
X164280409Y-108739519D01*
X163782419Y-108406773D01*
X163195000Y-108289928D01*
X162607581Y-108406773D01*
X162109591Y-108739519D01*
X162037265Y-108847763D01*
X157454502Y-104265000D01*
X158719121Y-104265000D01*
X158623243Y-104495900D01*
X158622758Y-105051661D01*
X158834990Y-105565303D01*
X159227630Y-105958629D01*
X159740900Y-106171757D01*
X160296661Y-106172242D01*
X160810303Y-105960010D01*
X161203629Y-105567370D01*
X161416757Y-105054100D01*
X161417242Y-104498339D01*
X161230637Y-104046720D01*
X161237101Y-104042401D01*
X161776937Y-103502565D01*
X161830910Y-103586441D01*
X162043110Y-103731431D01*
X162295000Y-103782440D01*
X164095000Y-103782440D01*
X164330317Y-103738162D01*
X164546441Y-103599090D01*
X164612665Y-103502167D01*
X165152899Y-104042401D01*
X165152899Y-104042401D01*
G37*
X165152899Y-104042401D02*
X165399460Y-104207148D01*
X165690300Y-104265000D01*
X166339121Y-104265000D01*
X166243243Y-104495900D01*
X166242758Y-105051661D01*
X166454990Y-105565303D01*
X166847630Y-105958629D01*
X167360900Y-106171757D01*
X167916661Y-106172242D01*
X167949055Y-106158857D01*
X172182599Y-110392401D01*
X172429161Y-110557148D01*
X172720000Y-110615000D01*
X174572066Y-110615000D01*
X174809591Y-110970481D01*
X175105816Y-111168412D01*
X175083200Y-111177757D01*
X174679176Y-111581077D01*
X174460250Y-112108309D01*
X174459752Y-112679187D01*
X174482049Y-112733149D01*
X172552100Y-114663098D01*
X172429161Y-114687552D01*
X172182599Y-114852299D01*
X172032118Y-115077510D01*
X171849683Y-115111838D01*
X171633559Y-115250910D01*
X171488569Y-115463110D01*
X171437560Y-115715000D01*
X171437560Y-116083058D01*
X169752101Y-114397599D01*
X169505539Y-114232852D01*
X169214700Y-114175000D01*
X164398667Y-114175000D01*
X164209698Y-113892189D01*
X163873290Y-113667408D01*
X164006800Y-113612243D01*
X164410824Y-113208923D01*
X164629750Y-112681691D01*
X164629758Y-112671661D01*
X166242758Y-112671661D01*
X166454990Y-113185303D01*
X166847630Y-113578629D01*
X167360900Y-113791757D01*
X167916661Y-113792242D01*
X168430303Y-113580010D01*
X168823629Y-113187370D01*
X169036757Y-112674100D01*
X169036759Y-112671661D01*
X171322758Y-112671661D01*
X171534990Y-113185303D01*
X171927630Y-113578629D01*
X172440900Y-113791757D01*
X172996661Y-113792242D01*
X173510303Y-113580010D01*
X173903629Y-113187370D01*
X174116757Y-112674100D01*
X174117242Y-112118339D01*
X173905010Y-111604697D01*
X173512370Y-111211371D01*
X172999100Y-110998243D01*
X172443339Y-110997758D01*
X171929697Y-111209990D01*
X171536371Y-111602630D01*
X171323243Y-112115900D01*
X171322758Y-112671661D01*
X169036759Y-112671661D01*
X169037242Y-112118339D01*
X168825010Y-111604697D01*
X168432370Y-111211371D01*
X167919100Y-110998243D01*
X167363339Y-110997758D01*
X166849697Y-111209990D01*
X166456371Y-111602630D01*
X166243243Y-112115900D01*
X166242758Y-112671661D01*
X164629758Y-112671661D01*
X164630248Y-112110813D01*
X164412243Y-111583200D01*
X164008923Y-111179176D01*
X163983730Y-111168715D01*
X164280409Y-110970481D01*
X164613155Y-110472491D01*
X164730000Y-109885072D01*
X164730000Y-109824928D01*
X164613155Y-109237509D01*
X164280409Y-108739519D01*
X163782419Y-108406773D01*
X163195000Y-108289928D01*
X162607581Y-108406773D01*
X162109591Y-108739519D01*
X162037265Y-108847763D01*
X157454502Y-104265000D01*
X158719121Y-104265000D01*
X158623243Y-104495900D01*
X158622758Y-105051661D01*
X158834990Y-105565303D01*
X159227630Y-105958629D01*
X159740900Y-106171757D01*
X160296661Y-106172242D01*
X160810303Y-105960010D01*
X161203629Y-105567370D01*
X161416757Y-105054100D01*
X161417242Y-104498339D01*
X161230637Y-104046720D01*
X161237101Y-104042401D01*
X161776937Y-103502565D01*
X161830910Y-103586441D01*
X162043110Y-103731431D01*
X162295000Y-103782440D01*
X164095000Y-103782440D01*
X164330317Y-103738162D01*
X164546441Y-103599090D01*
X164612665Y-103502167D01*
X165152899Y-104042401D01*
G36*
X152452899Y-104042401D02*
X152699460Y-104207148D01*
X152990300Y-104265000D01*
X153639121Y-104265000D01*
X153543243Y-104495900D01*
X153542758Y-105051661D01*
X153754990Y-105565303D01*
X154147630Y-105958629D01*
X154660900Y-106171757D01*
X155216661Y-106172242D01*
X155730303Y-105960010D01*
X156123629Y-105567370D01*
X156137070Y-105535000D01*
X156574898Y-105535000D01*
X161432299Y-110392401D01*
X161678861Y-110557148D01*
X161857101Y-110592602D01*
X162109591Y-110970481D01*
X162405816Y-111168412D01*
X162383200Y-111177757D01*
X161979176Y-111581077D01*
X161760250Y-112108309D01*
X161759752Y-112679187D01*
X161782049Y-112733149D01*
X159852100Y-114663098D01*
X159729161Y-114687552D01*
X159482599Y-114852299D01*
X159332118Y-115077510D01*
X159149683Y-115111838D01*
X158933559Y-115250910D01*
X158788569Y-115463110D01*
X158737560Y-115715000D01*
X158737560Y-116083058D01*
X157052101Y-114397599D01*
X156805539Y-114232852D01*
X156514700Y-114175000D01*
X151698667Y-114175000D01*
X151509698Y-113892189D01*
X151173290Y-113667408D01*
X151306800Y-113612243D01*
X151710824Y-113208923D01*
X151929750Y-112681691D01*
X151929758Y-112671661D01*
X153542758Y-112671661D01*
X153754990Y-113185303D01*
X154147630Y-113578629D01*
X154660900Y-113791757D01*
X155216661Y-113792242D01*
X155730303Y-113580010D01*
X156123629Y-113187370D01*
X156336757Y-112674100D01*
X156336759Y-112671661D01*
X158622758Y-112671661D01*
X158834990Y-113185303D01*
X159227630Y-113578629D01*
X159740900Y-113791757D01*
X160296661Y-113792242D01*
X160810303Y-113580010D01*
X161203629Y-113187370D01*
X161416757Y-112674100D01*
X161417242Y-112118339D01*
X161205010Y-111604697D01*
X160812370Y-111211371D01*
X160299100Y-110998243D01*
X159743339Y-110997758D01*
X159229697Y-111209990D01*
X158836371Y-111602630D01*
X158623243Y-112115900D01*
X158622758Y-112671661D01*
X156336759Y-112671661D01*
X156337242Y-112118339D01*
X156125010Y-111604697D01*
X155732370Y-111211371D01*
X155219100Y-110998243D01*
X154663339Y-110997758D01*
X154149697Y-111209990D01*
X153756371Y-111602630D01*
X153543243Y-112115900D01*
X153542758Y-112671661D01*
X151929758Y-112671661D01*
X151930248Y-112110813D01*
X151712243Y-111583200D01*
X151308923Y-111179176D01*
X151283730Y-111168715D01*
X151580409Y-110970481D01*
X151913155Y-110472491D01*
X152030000Y-109885072D01*
X152030000Y-109824928D01*
X151913155Y-109237509D01*
X151580409Y-108739519D01*
X151082419Y-108406773D01*
X150495000Y-108289928D01*
X149907581Y-108406773D01*
X149409591Y-108739519D01*
X149337265Y-108847763D01*
X144754502Y-104265000D01*
X146019121Y-104265000D01*
X145923243Y-104495900D01*
X145922758Y-105051661D01*
X146134990Y-105565303D01*
X146527630Y-105958629D01*
X147040900Y-106171757D01*
X147596661Y-106172242D01*
X148110303Y-105960010D01*
X148503629Y-105567370D01*
X148716757Y-105054100D01*
X148717242Y-104498339D01*
X148530637Y-104046720D01*
X148537101Y-104042401D01*
X149076937Y-103502565D01*
X149130910Y-103586441D01*
X149343110Y-103731431D01*
X149595000Y-103782440D01*
X151395000Y-103782440D01*
X151630317Y-103738162D01*
X151846441Y-103599090D01*
X151912665Y-103502167D01*
X152452899Y-104042401D01*
X152452899Y-104042401D01*
G37*
X152452899Y-104042401D02*
X152699460Y-104207148D01*
X152990300Y-104265000D01*
X153639121Y-104265000D01*
X153543243Y-104495900D01*
X153542758Y-105051661D01*
X153754990Y-105565303D01*
X154147630Y-105958629D01*
X154660900Y-106171757D01*
X155216661Y-106172242D01*
X155730303Y-105960010D01*
X156123629Y-105567370D01*
X156137070Y-105535000D01*
X156574898Y-105535000D01*
X161432299Y-110392401D01*
X161678861Y-110557148D01*
X161857101Y-110592602D01*
X162109591Y-110970481D01*
X162405816Y-111168412D01*
X162383200Y-111177757D01*
X161979176Y-111581077D01*
X161760250Y-112108309D01*
X161759752Y-112679187D01*
X161782049Y-112733149D01*
X159852100Y-114663098D01*
X159729161Y-114687552D01*
X159482599Y-114852299D01*
X159332118Y-115077510D01*
X159149683Y-115111838D01*
X158933559Y-115250910D01*
X158788569Y-115463110D01*
X158737560Y-115715000D01*
X158737560Y-116083058D01*
X157052101Y-114397599D01*
X156805539Y-114232852D01*
X156514700Y-114175000D01*
X151698667Y-114175000D01*
X151509698Y-113892189D01*
X151173290Y-113667408D01*
X151306800Y-113612243D01*
X151710824Y-113208923D01*
X151929750Y-112681691D01*
X151929758Y-112671661D01*
X153542758Y-112671661D01*
X153754990Y-113185303D01*
X154147630Y-113578629D01*
X154660900Y-113791757D01*
X155216661Y-113792242D01*
X155730303Y-113580010D01*
X156123629Y-113187370D01*
X156336757Y-112674100D01*
X156336759Y-112671661D01*
X158622758Y-112671661D01*
X158834990Y-113185303D01*
X159227630Y-113578629D01*
X159740900Y-113791757D01*
X160296661Y-113792242D01*
X160810303Y-113580010D01*
X161203629Y-113187370D01*
X161416757Y-112674100D01*
X161417242Y-112118339D01*
X161205010Y-111604697D01*
X160812370Y-111211371D01*
X160299100Y-110998243D01*
X159743339Y-110997758D01*
X159229697Y-111209990D01*
X158836371Y-111602630D01*
X158623243Y-112115900D01*
X158622758Y-112671661D01*
X156336759Y-112671661D01*
X156337242Y-112118339D01*
X156125010Y-111604697D01*
X155732370Y-111211371D01*
X155219100Y-110998243D01*
X154663339Y-110997758D01*
X154149697Y-111209990D01*
X153756371Y-111602630D01*
X153543243Y-112115900D01*
X153542758Y-112671661D01*
X151929758Y-112671661D01*
X151930248Y-112110813D01*
X151712243Y-111583200D01*
X151308923Y-111179176D01*
X151283730Y-111168715D01*
X151580409Y-110970481D01*
X151913155Y-110472491D01*
X152030000Y-109885072D01*
X152030000Y-109824928D01*
X151913155Y-109237509D01*
X151580409Y-108739519D01*
X151082419Y-108406773D01*
X150495000Y-108289928D01*
X149907581Y-108406773D01*
X149409591Y-108739519D01*
X149337265Y-108847763D01*
X144754502Y-104265000D01*
X146019121Y-104265000D01*
X145923243Y-104495900D01*
X145922758Y-105051661D01*
X146134990Y-105565303D01*
X146527630Y-105958629D01*
X147040900Y-106171757D01*
X147596661Y-106172242D01*
X148110303Y-105960010D01*
X148503629Y-105567370D01*
X148716757Y-105054100D01*
X148717242Y-104498339D01*
X148530637Y-104046720D01*
X148537101Y-104042401D01*
X149076937Y-103502565D01*
X149130910Y-103586441D01*
X149343110Y-103731431D01*
X149595000Y-103782440D01*
X151395000Y-103782440D01*
X151630317Y-103738162D01*
X151846441Y-103599090D01*
X151912665Y-103502167D01*
X152452899Y-104042401D01*
G36*
X133222758Y-102511661D02*
X133434990Y-103025303D01*
X133827630Y-103418629D01*
X134035512Y-103504949D01*
X133829697Y-103589990D01*
X133436371Y-103982630D01*
X133223243Y-104495900D01*
X133222758Y-105051661D01*
X133434990Y-105565303D01*
X133827630Y-105958629D01*
X134340900Y-106171757D01*
X134896661Y-106172242D01*
X135410303Y-105960010D01*
X135803629Y-105567370D01*
X136016757Y-105054100D01*
X136017242Y-104498339D01*
X136003857Y-104465945D01*
X136722329Y-103747473D01*
X136895000Y-103782440D01*
X138695000Y-103782440D01*
X138930317Y-103738162D01*
X139146441Y-103599090D01*
X139212665Y-103502167D01*
X139530300Y-103819802D01*
X139530300Y-114175000D01*
X138998667Y-114175000D01*
X138809698Y-113892189D01*
X138473290Y-113667408D01*
X138606800Y-113612243D01*
X139010824Y-113208923D01*
X139229750Y-112681691D01*
X139230248Y-112110813D01*
X139012243Y-111583200D01*
X138608923Y-111179176D01*
X138583730Y-111168715D01*
X138880409Y-110970481D01*
X139213155Y-110472491D01*
X139330000Y-109885072D01*
X139330000Y-109824928D01*
X139213155Y-109237509D01*
X138880409Y-108739519D01*
X138382419Y-108406773D01*
X137795000Y-108289928D01*
X137207581Y-108406773D01*
X136709591Y-108739519D01*
X136472066Y-109095000D01*
X135583200Y-109095000D01*
X135292360Y-109152852D01*
X135112699Y-109272897D01*
X130924183Y-105084381D01*
X130936757Y-105054100D01*
X130937242Y-104498339D01*
X130923857Y-104465945D01*
X133223059Y-102166743D01*
X133222758Y-102511661D01*
X133222758Y-102511661D01*
G37*
X133222758Y-102511661D02*
X133434990Y-103025303D01*
X133827630Y-103418629D01*
X134035512Y-103504949D01*
X133829697Y-103589990D01*
X133436371Y-103982630D01*
X133223243Y-104495900D01*
X133222758Y-105051661D01*
X133434990Y-105565303D01*
X133827630Y-105958629D01*
X134340900Y-106171757D01*
X134896661Y-106172242D01*
X135410303Y-105960010D01*
X135803629Y-105567370D01*
X136016757Y-105054100D01*
X136017242Y-104498339D01*
X136003857Y-104465945D01*
X136722329Y-103747473D01*
X136895000Y-103782440D01*
X138695000Y-103782440D01*
X138930317Y-103738162D01*
X139146441Y-103599090D01*
X139212665Y-103502167D01*
X139530300Y-103819802D01*
X139530300Y-114175000D01*
X138998667Y-114175000D01*
X138809698Y-113892189D01*
X138473290Y-113667408D01*
X138606800Y-113612243D01*
X139010824Y-113208923D01*
X139229750Y-112681691D01*
X139230248Y-112110813D01*
X139012243Y-111583200D01*
X138608923Y-111179176D01*
X138583730Y-111168715D01*
X138880409Y-110970481D01*
X139213155Y-110472491D01*
X139330000Y-109885072D01*
X139330000Y-109824928D01*
X139213155Y-109237509D01*
X138880409Y-108739519D01*
X138382419Y-108406773D01*
X137795000Y-108289928D01*
X137207581Y-108406773D01*
X136709591Y-108739519D01*
X136472066Y-109095000D01*
X135583200Y-109095000D01*
X135292360Y-109152852D01*
X135112699Y-109272897D01*
X130924183Y-105084381D01*
X130936757Y-105054100D01*
X130937242Y-104498339D01*
X130923857Y-104465945D01*
X133223059Y-102166743D01*
X133222758Y-102511661D01*
M02*
