M48
;DRILL file {KiCad 4.0.7-e2-6376~60~ubuntu17.10.1} date Sat Dec 16 23:24:13 2017
;FORMAT={3:3/ absolute / metric / suppress trailing zeros}
FMAT,2
METRIC,LZ
T1C0.400
T2C0.750
T3C0.762
T4C0.800
T5C0.900
T6C1.000
%
G90
G05
M71
T1
X132715Y-114935
X13589Y-108585
X13589Y-111125
X141605Y-116205
X144145Y-113665
X146685Y-109855
X15113Y-10668
X15367Y-11049
X15367Y-116205
X15875Y-108585
X160655Y-10668
X163195Y-10668
X169545Y-113665
X17145Y-109855
X17272Y-107315
X175895Y-106045
T2
X131445Y-11684
X131445Y-11811
X131445Y-11938
X144145Y-11684
X144145Y-11811
X144145Y-11938
X156845Y-11684
X156845Y-11811
X156845Y-11938
X169545Y-11684
X169545Y-11811
X169545Y-11938
T3
X12954Y-102235
X12954Y-104775
X12954Y-112395
X13462Y-102235
X13462Y-104775
X13462Y-112395
X14224Y-102235
X14224Y-104775
X14224Y-112395
X14732Y-102235
X14732Y-104775
X14732Y-112395
X15494Y-102235
X15494Y-104775
X15494Y-112395
X16002Y-102235
X16002Y-104775
X16002Y-112395
X16764Y-102235
X16764Y-104775
X16764Y-112395
X17272Y-102235
X17272Y-104775
X17272Y-112395
T4
X137795Y-112395
X137795Y-114935
X137795Y-117475
X137795Y-120015
X150495Y-112395
X150495Y-114935
X150495Y-117475
X150495Y-120015
X163195Y-112395
X163195Y-114935
X163195Y-117475
X163195Y-120015
X175895Y-112395
X175895Y-114935
X175895Y-117475
X175895Y-120015
T5
X137795Y-102235
X137795Y-109855
X150495Y-102235
X150495Y-109855
X163195Y-102235
X163195Y-109855
X175895Y-102235
X175895Y-109855
T6
X12954Y-09906
X12954Y-122555
X12954Y-125095
X13208Y-09906
X13462Y-09906
X13716Y-09906
X1397Y-09906
X14224Y-09906
X14478Y-09906
X14732Y-09906
X14986Y-09906
X14986Y-125095
X1524Y-09906
X1524Y-125095
X15494Y-09906
X15494Y-125095
X15748Y-09906
X15748Y-125095
X16002Y-09906
X16256Y-09906
X1651Y-09906
X16764Y-09906
X17018Y-09906
X17272Y-09906
X17526Y-09906
X1778Y-09906
X1778Y-122555
X1778Y-125095
T0
M30
