G04 #@! TF.FileFunction,Copper,L2,Bot,Signal*
%FSLAX46Y46*%
G04 Gerber Fmt 4.6, Leading zero omitted, Abs format (unit mm)*
G04 Created by KiCad (PCBNEW 4.0.7-e2-6376~60~ubuntu17.10.1) date Sat Dec 16 23:23:54 2017*
%MOMM*%
%LPD*%
G01*
G04 APERTURE LIST*
%ADD10C,0.100000*%
%ADD11C,1.600000*%
%ADD12O,1.600000X1.600000*%
%ADD13R,1.700000X1.700000*%
%ADD14O,1.700000X1.700000*%
%ADD15C,1.524000*%
%ADD16O,1.500000X1.050000*%
%ADD17R,1.500000X1.050000*%
%ADD18R,1.800000X1.800000*%
%ADD19O,1.800000X1.800000*%
%ADD20C,0.600000*%
%ADD21C,0.250000*%
%ADD22C,0.254000*%
G04 APERTURE END LIST*
D10*
D11*
X175895000Y-112395000D03*
D12*
X175895000Y-114935000D03*
D13*
X177800000Y-122555000D03*
D14*
X177800000Y-125095000D03*
D13*
X129540000Y-122555000D03*
D14*
X129540000Y-125095000D03*
D13*
X149860000Y-125095000D03*
D14*
X152400000Y-125095000D03*
X154940000Y-125095000D03*
X157480000Y-125095000D03*
D13*
X129540000Y-99060000D03*
D14*
X132080000Y-99060000D03*
X134620000Y-99060000D03*
X137160000Y-99060000D03*
X139700000Y-99060000D03*
D13*
X142240000Y-99060000D03*
D14*
X144780000Y-99060000D03*
X147320000Y-99060000D03*
X149860000Y-99060000D03*
X152400000Y-99060000D03*
D13*
X154940000Y-99060000D03*
D14*
X157480000Y-99060000D03*
X160020000Y-99060000D03*
X162560000Y-99060000D03*
X165100000Y-99060000D03*
D13*
X167640000Y-99060000D03*
D14*
X170180000Y-99060000D03*
X172720000Y-99060000D03*
X175260000Y-99060000D03*
X177800000Y-99060000D03*
D15*
X134620000Y-102235000D03*
X129540000Y-102235000D03*
X134620000Y-104775000D03*
X129540000Y-104775000D03*
X134620000Y-112395000D03*
X129540000Y-112395000D03*
X147320000Y-102235000D03*
X142240000Y-102235000D03*
X147320000Y-104775000D03*
X142240000Y-104775000D03*
X147320000Y-112395000D03*
X142240000Y-112395000D03*
X160020000Y-102235000D03*
X154940000Y-102235000D03*
X160020000Y-104775000D03*
X154940000Y-104775000D03*
X160020000Y-112395000D03*
X154940000Y-112395000D03*
X172720000Y-102235000D03*
X167640000Y-102235000D03*
X172720000Y-104775000D03*
X167640000Y-104775000D03*
X172720000Y-112395000D03*
X167640000Y-112395000D03*
D16*
X131445000Y-118110000D03*
X131445000Y-116840000D03*
D17*
X131445000Y-119380000D03*
D16*
X144145000Y-118110000D03*
X144145000Y-116840000D03*
D17*
X144145000Y-119380000D03*
D16*
X156845000Y-118110000D03*
X156845000Y-116840000D03*
D17*
X156845000Y-119380000D03*
D16*
X169545000Y-118110000D03*
X169545000Y-116840000D03*
D17*
X169545000Y-119380000D03*
D18*
X137795000Y-102235000D03*
D19*
X137795000Y-109855000D03*
D18*
X150495000Y-102235000D03*
D19*
X150495000Y-109855000D03*
D18*
X163195000Y-102235000D03*
D19*
X163195000Y-109855000D03*
D18*
X175895000Y-102235000D03*
D19*
X175895000Y-109855000D03*
D11*
X137795000Y-112395000D03*
D12*
X137795000Y-114935000D03*
D11*
X137795000Y-120015000D03*
D12*
X137795000Y-117475000D03*
D11*
X150495000Y-120015000D03*
D12*
X150495000Y-117475000D03*
D11*
X150495000Y-112395000D03*
D12*
X150495000Y-114935000D03*
D11*
X163195000Y-120015000D03*
D12*
X163195000Y-117475000D03*
D11*
X163195000Y-112395000D03*
D12*
X163195000Y-114935000D03*
D11*
X175895000Y-120015000D03*
D12*
X175895000Y-117475000D03*
D20*
X169545000Y-113665000D03*
X171450000Y-109855000D03*
X172720000Y-107315000D03*
X175895000Y-106045000D03*
X151130000Y-106680000D03*
X132715000Y-114935000D03*
X135890000Y-108585000D03*
X135890000Y-111125000D03*
X153670000Y-116205000D03*
X153670000Y-110490000D03*
X163195000Y-106680000D03*
X160655000Y-106680000D03*
X158750000Y-108585000D03*
X141605000Y-116205000D03*
X144145000Y-113665000D03*
X146685000Y-109855000D03*
D21*
X177800000Y-125095000D02*
X179070000Y-123825000D01*
X179070000Y-117475000D02*
X176530000Y-114935000D01*
X179070000Y-123825000D02*
X179070000Y-117475000D01*
X176530000Y-114935000D02*
X175895000Y-114935000D01*
X130350600Y-123919700D02*
X129540000Y-123919700D01*
X130715300Y-123555000D02*
X130350600Y-123919700D01*
X130715300Y-122858600D02*
X130715300Y-123555000D01*
X137513600Y-116060300D02*
X130715300Y-122858600D01*
X137795000Y-116060300D02*
X137513600Y-116060300D01*
X137795000Y-114935000D02*
X137795000Y-116060300D01*
X129540000Y-125095000D02*
X129540000Y-123919700D01*
X145220300Y-116070200D02*
X145220300Y-116840000D01*
X150210200Y-111080300D02*
X145220300Y-116070200D01*
X150495000Y-111080300D02*
X150210200Y-111080300D01*
X144145000Y-116840000D02*
X145220300Y-116840000D01*
X150495000Y-110467600D02*
X150495000Y-111080300D01*
X150495000Y-110467600D02*
X150495000Y-109855000D01*
X149267300Y-100828000D02*
X149860000Y-100235300D01*
X149267300Y-107402000D02*
X149267300Y-100828000D01*
X150495000Y-108629700D02*
X149267300Y-107402000D01*
X150495000Y-109855000D02*
X150495000Y-108629700D01*
X149860000Y-99060000D02*
X149860000Y-100235300D01*
X157920300Y-116070200D02*
X157920300Y-116840000D01*
X162910200Y-111080300D02*
X157920300Y-116070200D01*
X163195000Y-111080300D02*
X162910200Y-111080300D01*
X156845000Y-116840000D02*
X157920300Y-116840000D01*
X163195000Y-110467600D02*
X163195000Y-111080300D01*
X163195000Y-110467600D02*
X163195000Y-109855000D01*
X161967300Y-100828000D02*
X162560000Y-100235300D01*
X161967300Y-107402000D02*
X161967300Y-100828000D01*
X163195000Y-108629700D02*
X161967300Y-107402000D01*
X163195000Y-109855000D02*
X163195000Y-108629700D01*
X162560000Y-99060000D02*
X162560000Y-100235300D01*
X170620300Y-116077000D02*
X170620300Y-116840000D01*
X175617000Y-111080300D02*
X170620300Y-116077000D01*
X175895000Y-111080300D02*
X175617000Y-111080300D01*
X169545000Y-116840000D02*
X170620300Y-116840000D01*
X175895000Y-110467600D02*
X175895000Y-111080300D01*
X175895000Y-110467600D02*
X175895000Y-109855000D01*
X174667300Y-100828000D02*
X175260000Y-100235300D01*
X174667300Y-107402000D02*
X174667300Y-100828000D01*
X175895000Y-108629700D02*
X174667300Y-107402000D01*
X175895000Y-109855000D02*
X175895000Y-108629700D01*
X175260000Y-99060000D02*
X175260000Y-100235300D01*
X171450000Y-109855000D02*
X172720000Y-108585000D01*
X172720000Y-108585000D02*
X172720000Y-107315000D01*
X163195000Y-120015000D02*
X169545000Y-113665000D01*
X129540000Y-119380000D02*
X129540000Y-115570000D01*
X129540000Y-115570000D02*
X130175000Y-114935000D01*
X130175000Y-114935000D02*
X132715000Y-114935000D01*
X131445000Y-119380000D02*
X129540000Y-119380000D01*
X135890000Y-111125000D02*
X135890000Y-108585000D01*
X153670000Y-116205000D02*
X153670000Y-110490000D01*
X158750000Y-108585000D02*
X160655000Y-106680000D01*
X141605000Y-116205000D02*
X144145000Y-113665000D01*
X130295600Y-121379700D02*
X129540000Y-121379700D01*
X131445000Y-120230300D02*
X130295600Y-121379700D01*
X131445000Y-119380000D02*
X131445000Y-120230300D01*
X129540000Y-122555000D02*
X129540000Y-121379700D01*
X146540300Y-125095000D02*
X149860000Y-125095000D01*
X138920300Y-117475000D02*
X146540300Y-125095000D01*
X137795000Y-117475000D02*
X138920300Y-117475000D01*
X152400000Y-120224000D02*
X152400000Y-125095000D01*
X150776300Y-118600300D02*
X152400000Y-120224000D01*
X150495000Y-118600300D02*
X150776300Y-118600300D01*
X150495000Y-117475000D02*
X150495000Y-118600300D01*
X155769700Y-123090000D02*
X154940000Y-123919700D01*
X155769700Y-118110000D02*
X155769700Y-123090000D01*
X156845000Y-118110000D02*
X155769700Y-118110000D01*
X154940000Y-125095000D02*
X154940000Y-123919700D01*
X159850100Y-125095000D02*
X157480000Y-125095000D01*
X166835100Y-118110000D02*
X159850100Y-125095000D01*
X169545000Y-118110000D02*
X166835100Y-118110000D01*
X129540000Y-102235000D02*
X129540000Y-99060000D01*
X132080000Y-111125000D02*
X132080000Y-99060000D01*
X130810000Y-111125000D02*
X132080000Y-111125000D01*
X129540000Y-112395000D02*
X130810000Y-111125000D01*
X133350000Y-111125000D02*
X134620000Y-112395000D01*
X132080000Y-111125000D02*
X133350000Y-111125000D01*
X134620000Y-102235000D02*
X134620000Y-99060000D01*
X139700000Y-110490000D02*
X139700000Y-99060000D01*
X137795000Y-112395000D02*
X139700000Y-110490000D01*
X142240000Y-102235000D02*
X142240000Y-99060000D01*
X142240000Y-112395000D02*
X144780000Y-109855000D01*
X147320000Y-112395000D02*
X144780000Y-109855000D01*
X144780000Y-109855000D02*
X144780000Y-99060000D01*
X147320000Y-102235000D02*
X147320000Y-99060000D01*
X152400000Y-110490000D02*
X152400000Y-99060000D01*
X150495000Y-112395000D02*
X152400000Y-110490000D01*
X154940000Y-102235000D02*
X154940000Y-99060000D01*
X154940000Y-112395000D02*
X157480000Y-109855000D01*
X160020000Y-112395000D02*
X157480000Y-109855000D01*
X157480000Y-109855000D02*
X157480000Y-99060000D01*
X160020000Y-102235000D02*
X160020000Y-99060000D01*
X165100000Y-110490000D02*
X165100000Y-99060000D01*
X163195000Y-112395000D02*
X165100000Y-110490000D01*
X167640000Y-102235000D02*
X167640000Y-99060000D01*
X167640000Y-112395000D02*
X170180000Y-109855000D01*
X172720000Y-112395000D02*
X170180000Y-109855000D01*
X170180000Y-109855000D02*
X170180000Y-99060000D01*
X172720000Y-102235000D02*
X172720000Y-99060000D01*
X177800000Y-110490000D02*
X177800000Y-99060000D01*
X175895000Y-112395000D02*
X177800000Y-110490000D01*
D22*
G36*
X179630000Y-116971421D02*
X179607401Y-116937599D01*
X177268746Y-114598944D01*
X177220767Y-114357736D01*
X176909698Y-113892189D01*
X176573290Y-113667408D01*
X176706800Y-113612243D01*
X177110824Y-113208923D01*
X177329750Y-112681691D01*
X177330248Y-112110813D01*
X177307951Y-112056851D01*
X178337401Y-111027401D01*
X178502148Y-110780839D01*
X178560000Y-110490000D01*
X178560000Y-100332954D01*
X178850054Y-100139147D01*
X179171961Y-99657378D01*
X179285000Y-99089093D01*
X179285000Y-99030907D01*
X179171961Y-98462622D01*
X178850054Y-97980853D01*
X178368285Y-97658946D01*
X177800000Y-97545907D01*
X177231715Y-97658946D01*
X176749946Y-97980853D01*
X176530000Y-98310026D01*
X176310054Y-97980853D01*
X175828285Y-97658946D01*
X175260000Y-97545907D01*
X174691715Y-97658946D01*
X174209946Y-97980853D01*
X173990000Y-98310026D01*
X173770054Y-97980853D01*
X173288285Y-97658946D01*
X172720000Y-97545907D01*
X172151715Y-97658946D01*
X171669946Y-97980853D01*
X171450000Y-98310026D01*
X171230054Y-97980853D01*
X170748285Y-97658946D01*
X170180000Y-97545907D01*
X169611715Y-97658946D01*
X169129946Y-97980853D01*
X169102150Y-98022452D01*
X169093162Y-97974683D01*
X168954090Y-97758559D01*
X168741890Y-97613569D01*
X168490000Y-97562560D01*
X166790000Y-97562560D01*
X166554683Y-97606838D01*
X166338559Y-97745910D01*
X166193569Y-97958110D01*
X166179914Y-98025541D01*
X166150054Y-97980853D01*
X165668285Y-97658946D01*
X165100000Y-97545907D01*
X164531715Y-97658946D01*
X164049946Y-97980853D01*
X163830000Y-98310026D01*
X163610054Y-97980853D01*
X163128285Y-97658946D01*
X162560000Y-97545907D01*
X161991715Y-97658946D01*
X161509946Y-97980853D01*
X161290000Y-98310026D01*
X161070054Y-97980853D01*
X160588285Y-97658946D01*
X160020000Y-97545907D01*
X159451715Y-97658946D01*
X158969946Y-97980853D01*
X158750000Y-98310026D01*
X158530054Y-97980853D01*
X158048285Y-97658946D01*
X157480000Y-97545907D01*
X156911715Y-97658946D01*
X156429946Y-97980853D01*
X156402150Y-98022452D01*
X156393162Y-97974683D01*
X156254090Y-97758559D01*
X156041890Y-97613569D01*
X155790000Y-97562560D01*
X154090000Y-97562560D01*
X153854683Y-97606838D01*
X153638559Y-97745910D01*
X153493569Y-97958110D01*
X153479914Y-98025541D01*
X153450054Y-97980853D01*
X152968285Y-97658946D01*
X152400000Y-97545907D01*
X151831715Y-97658946D01*
X151349946Y-97980853D01*
X151130000Y-98310026D01*
X150910054Y-97980853D01*
X150428285Y-97658946D01*
X149860000Y-97545907D01*
X149291715Y-97658946D01*
X148809946Y-97980853D01*
X148590000Y-98310026D01*
X148370054Y-97980853D01*
X147888285Y-97658946D01*
X147320000Y-97545907D01*
X146751715Y-97658946D01*
X146269946Y-97980853D01*
X146050000Y-98310026D01*
X145830054Y-97980853D01*
X145348285Y-97658946D01*
X144780000Y-97545907D01*
X144211715Y-97658946D01*
X143729946Y-97980853D01*
X143702150Y-98022452D01*
X143693162Y-97974683D01*
X143554090Y-97758559D01*
X143341890Y-97613569D01*
X143090000Y-97562560D01*
X141390000Y-97562560D01*
X141154683Y-97606838D01*
X140938559Y-97745910D01*
X140793569Y-97958110D01*
X140779914Y-98025541D01*
X140750054Y-97980853D01*
X140268285Y-97658946D01*
X139700000Y-97545907D01*
X139131715Y-97658946D01*
X138649946Y-97980853D01*
X138430000Y-98310026D01*
X138210054Y-97980853D01*
X137728285Y-97658946D01*
X137160000Y-97545907D01*
X136591715Y-97658946D01*
X136109946Y-97980853D01*
X135890000Y-98310026D01*
X135670054Y-97980853D01*
X135188285Y-97658946D01*
X134620000Y-97545907D01*
X134051715Y-97658946D01*
X133569946Y-97980853D01*
X133350000Y-98310026D01*
X133130054Y-97980853D01*
X132648285Y-97658946D01*
X132080000Y-97545907D01*
X131511715Y-97658946D01*
X131029946Y-97980853D01*
X131002150Y-98022452D01*
X130993162Y-97974683D01*
X130854090Y-97758559D01*
X130641890Y-97613569D01*
X130390000Y-97562560D01*
X128690000Y-97562560D01*
X128454683Y-97606838D01*
X128238559Y-97745910D01*
X128093569Y-97958110D01*
X128042560Y-98210000D01*
X128042560Y-99910000D01*
X128086838Y-100145317D01*
X128225910Y-100361441D01*
X128438110Y-100506431D01*
X128690000Y-100557440D01*
X128780000Y-100557440D01*
X128780000Y-101037469D01*
X128749697Y-101049990D01*
X128356371Y-101442630D01*
X128143243Y-101955900D01*
X128142758Y-102511661D01*
X128354990Y-103025303D01*
X128747630Y-103418629D01*
X128955512Y-103504949D01*
X128749697Y-103589990D01*
X128356371Y-103982630D01*
X128143243Y-104495900D01*
X128142758Y-105051661D01*
X128354990Y-105565303D01*
X128747630Y-105958629D01*
X129260900Y-106171757D01*
X129816661Y-106172242D01*
X130330303Y-105960010D01*
X130723629Y-105567370D01*
X130936757Y-105054100D01*
X130937242Y-104498339D01*
X130725010Y-103984697D01*
X130332370Y-103591371D01*
X130124488Y-103505051D01*
X130330303Y-103420010D01*
X130723629Y-103027370D01*
X130936757Y-102514100D01*
X130937242Y-101958339D01*
X130725010Y-101444697D01*
X130332370Y-101051371D01*
X130300000Y-101037930D01*
X130300000Y-100557440D01*
X130390000Y-100557440D01*
X130625317Y-100513162D01*
X130841441Y-100374090D01*
X130986431Y-100161890D01*
X131000086Y-100094459D01*
X131029946Y-100139147D01*
X131320000Y-100332954D01*
X131320000Y-110365000D01*
X130810000Y-110365000D01*
X130519160Y-110422852D01*
X130272599Y-110587599D01*
X129849381Y-111010817D01*
X129819100Y-110998243D01*
X129263339Y-110997758D01*
X128749697Y-111209990D01*
X128356371Y-111602630D01*
X128143243Y-112115900D01*
X128142758Y-112671661D01*
X128354990Y-113185303D01*
X128747630Y-113578629D01*
X129260900Y-113791757D01*
X129816661Y-113792242D01*
X130330303Y-113580010D01*
X130723629Y-113187370D01*
X130936757Y-112674100D01*
X130937242Y-112118339D01*
X130923857Y-112085945D01*
X131124802Y-111885000D01*
X133035198Y-111885000D01*
X133235817Y-112085619D01*
X133223243Y-112115900D01*
X133222758Y-112671661D01*
X133434990Y-113185303D01*
X133827630Y-113578629D01*
X134340900Y-113791757D01*
X134896661Y-113792242D01*
X135410303Y-113580010D01*
X135803629Y-113187370D01*
X136016757Y-112674100D01*
X136017242Y-112118339D01*
X135805010Y-111604697D01*
X135412370Y-111211371D01*
X134899100Y-110998243D01*
X134343339Y-110997758D01*
X134310945Y-111011143D01*
X133887401Y-110587599D01*
X133640839Y-110422852D01*
X133350000Y-110365000D01*
X132840000Y-110365000D01*
X132840000Y-100332954D01*
X133130054Y-100139147D01*
X133350000Y-99809974D01*
X133569946Y-100139147D01*
X133860000Y-100332954D01*
X133860000Y-101037469D01*
X133829697Y-101049990D01*
X133436371Y-101442630D01*
X133223243Y-101955900D01*
X133222758Y-102511661D01*
X133434990Y-103025303D01*
X133827630Y-103418629D01*
X134035512Y-103504949D01*
X133829697Y-103589990D01*
X133436371Y-103982630D01*
X133223243Y-104495900D01*
X133222758Y-105051661D01*
X133434990Y-105565303D01*
X133827630Y-105958629D01*
X134340900Y-106171757D01*
X134896661Y-106172242D01*
X135410303Y-105960010D01*
X135803629Y-105567370D01*
X136016757Y-105054100D01*
X136017242Y-104498339D01*
X135805010Y-103984697D01*
X135412370Y-103591371D01*
X135204488Y-103505051D01*
X135410303Y-103420010D01*
X135803629Y-103027370D01*
X136016757Y-102514100D01*
X136017242Y-101958339D01*
X135805010Y-101444697D01*
X135412370Y-101051371D01*
X135380000Y-101037930D01*
X135380000Y-100332954D01*
X135670054Y-100139147D01*
X135890000Y-99809974D01*
X136109946Y-100139147D01*
X136591715Y-100461054D01*
X137160000Y-100574093D01*
X137728285Y-100461054D01*
X138210054Y-100139147D01*
X138430000Y-99809974D01*
X138649946Y-100139147D01*
X138940000Y-100332954D01*
X138940000Y-100737174D01*
X138695000Y-100687560D01*
X136895000Y-100687560D01*
X136659683Y-100731838D01*
X136443559Y-100870910D01*
X136298569Y-101083110D01*
X136247560Y-101335000D01*
X136247560Y-103135000D01*
X136291838Y-103370317D01*
X136430910Y-103586441D01*
X136643110Y-103731431D01*
X136895000Y-103782440D01*
X138695000Y-103782440D01*
X138930317Y-103738162D01*
X138940000Y-103731931D01*
X138940000Y-108828703D01*
X138880409Y-108739519D01*
X138382419Y-108406773D01*
X137795000Y-108289928D01*
X137207581Y-108406773D01*
X136709591Y-108739519D01*
X136376845Y-109237509D01*
X136260000Y-109824928D01*
X136260000Y-109885072D01*
X136376845Y-110472491D01*
X136709591Y-110970481D01*
X137005816Y-111168412D01*
X136983200Y-111177757D01*
X136579176Y-111581077D01*
X136360250Y-112108309D01*
X136359752Y-112679187D01*
X136577757Y-113206800D01*
X136981077Y-113610824D01*
X137116954Y-113667245D01*
X136780302Y-113892189D01*
X136469233Y-114357736D01*
X136360000Y-114906887D01*
X136360000Y-114963113D01*
X136469233Y-115512264D01*
X136676555Y-115822543D01*
X132830000Y-119669098D01*
X132830000Y-119665750D01*
X132671250Y-119507000D01*
X131572000Y-119507000D01*
X131572000Y-120381250D01*
X131730750Y-120540000D01*
X131959098Y-120540000D01*
X130994366Y-121504732D01*
X130928327Y-121345301D01*
X130749698Y-121166673D01*
X130516309Y-121070000D01*
X129825750Y-121070000D01*
X129667000Y-121228750D01*
X129667000Y-122428000D01*
X129687000Y-122428000D01*
X129687000Y-122682000D01*
X129667000Y-122682000D01*
X129667000Y-122702000D01*
X129413000Y-122702000D01*
X129413000Y-122682000D01*
X128213750Y-122682000D01*
X128055000Y-122840750D01*
X128055000Y-123531310D01*
X128151673Y-123764699D01*
X128330302Y-123943327D01*
X128504777Y-124015597D01*
X128460853Y-124044946D01*
X128138946Y-124526715D01*
X128025907Y-125095000D01*
X128138946Y-125663285D01*
X128460853Y-126145054D01*
X128942622Y-126466961D01*
X129510907Y-126580000D01*
X129569093Y-126580000D01*
X130137378Y-126466961D01*
X130619147Y-126145054D01*
X130941054Y-125663285D01*
X131054093Y-125095000D01*
X130941054Y-124526715D01*
X130891921Y-124453181D01*
X131252701Y-124092401D01*
X131417448Y-123845839D01*
X131475300Y-123555000D01*
X131475300Y-123173402D01*
X133625957Y-121022745D01*
X136966861Y-121022745D01*
X137040995Y-121268864D01*
X137578223Y-121461965D01*
X138148454Y-121434778D01*
X138549005Y-121268864D01*
X138623139Y-121022745D01*
X137795000Y-120194605D01*
X136966861Y-121022745D01*
X133625957Y-121022745D01*
X134850479Y-119798223D01*
X136348035Y-119798223D01*
X136375222Y-120368454D01*
X136541136Y-120769005D01*
X136787255Y-120843139D01*
X137615395Y-120015000D01*
X137974605Y-120015000D01*
X138802745Y-120843139D01*
X139048864Y-120769005D01*
X139241965Y-120231777D01*
X139214778Y-119661546D01*
X139048864Y-119260995D01*
X138802745Y-119186861D01*
X137974605Y-120015000D01*
X137615395Y-120015000D01*
X136787255Y-119186861D01*
X136541136Y-119260995D01*
X136348035Y-119798223D01*
X134850479Y-119798223D01*
X136520184Y-118128518D01*
X136780302Y-118517811D01*
X137104868Y-118734679D01*
X137040995Y-118761136D01*
X136966861Y-119007255D01*
X137795000Y-119835395D01*
X138623139Y-119007255D01*
X138549005Y-118761136D01*
X138481728Y-118736954D01*
X138809698Y-118517811D01*
X138841185Y-118470687D01*
X146002899Y-125632401D01*
X146249460Y-125797148D01*
X146540300Y-125855000D01*
X148362560Y-125855000D01*
X148362560Y-125945000D01*
X148406838Y-126180317D01*
X148545910Y-126396441D01*
X148758110Y-126541431D01*
X149010000Y-126592440D01*
X150710000Y-126592440D01*
X150945317Y-126548162D01*
X151161441Y-126409090D01*
X151306431Y-126196890D01*
X151320086Y-126129459D01*
X151349946Y-126174147D01*
X151831715Y-126496054D01*
X152400000Y-126609093D01*
X152968285Y-126496054D01*
X153450054Y-126174147D01*
X153670000Y-125844974D01*
X153889946Y-126174147D01*
X154371715Y-126496054D01*
X154940000Y-126609093D01*
X155508285Y-126496054D01*
X155990054Y-126174147D01*
X156210000Y-125844974D01*
X156429946Y-126174147D01*
X156911715Y-126496054D01*
X157480000Y-126609093D01*
X158048285Y-126496054D01*
X158530054Y-126174147D01*
X158743301Y-125855000D01*
X159850100Y-125855000D01*
X160140939Y-125797148D01*
X160387501Y-125632401D01*
X164997157Y-121022745D01*
X175066861Y-121022745D01*
X175140995Y-121268864D01*
X175678223Y-121461965D01*
X176248454Y-121434778D01*
X176400738Y-121371700D01*
X176315000Y-121578690D01*
X176315000Y-122269250D01*
X176473750Y-122428000D01*
X177673000Y-122428000D01*
X177673000Y-121228750D01*
X177514250Y-121070000D01*
X176823691Y-121070000D01*
X176692542Y-121124324D01*
X176723139Y-121022745D01*
X175895000Y-120194605D01*
X175066861Y-121022745D01*
X164997157Y-121022745D01*
X166354152Y-119665750D01*
X168160000Y-119665750D01*
X168160000Y-120031309D01*
X168256673Y-120264698D01*
X168435301Y-120443327D01*
X168668690Y-120540000D01*
X169259250Y-120540000D01*
X169418000Y-120381250D01*
X169418000Y-119507000D01*
X169672000Y-119507000D01*
X169672000Y-120381250D01*
X169830750Y-120540000D01*
X170421310Y-120540000D01*
X170654699Y-120443327D01*
X170833327Y-120264698D01*
X170930000Y-120031309D01*
X170930000Y-119798223D01*
X174448035Y-119798223D01*
X174475222Y-120368454D01*
X174641136Y-120769005D01*
X174887255Y-120843139D01*
X175715395Y-120015000D01*
X176074605Y-120015000D01*
X176902745Y-120843139D01*
X177148864Y-120769005D01*
X177341965Y-120231777D01*
X177314778Y-119661546D01*
X177148864Y-119260995D01*
X176902745Y-119186861D01*
X176074605Y-120015000D01*
X175715395Y-120015000D01*
X174887255Y-119186861D01*
X174641136Y-119260995D01*
X174448035Y-119798223D01*
X170930000Y-119798223D01*
X170930000Y-119665750D01*
X170771250Y-119507000D01*
X169672000Y-119507000D01*
X169418000Y-119507000D01*
X168318750Y-119507000D01*
X168160000Y-119665750D01*
X166354152Y-119665750D01*
X167149902Y-118870000D01*
X168160000Y-118870000D01*
X168160000Y-119094250D01*
X168318750Y-119253000D01*
X169207401Y-119253000D01*
X169292866Y-119270000D01*
X169797134Y-119270000D01*
X169882599Y-119253000D01*
X170771250Y-119253000D01*
X170930000Y-119094250D01*
X170930000Y-118728691D01*
X170861902Y-118564288D01*
X170868834Y-118553913D01*
X170957134Y-118110000D01*
X170868834Y-117666087D01*
X170800699Y-117564116D01*
X170911139Y-117542148D01*
X171157701Y-117377401D01*
X171322448Y-117130839D01*
X171380300Y-116840000D01*
X171380300Y-116391802D01*
X174644877Y-113127225D01*
X174677757Y-113206800D01*
X175081077Y-113610824D01*
X175216954Y-113667245D01*
X174880302Y-113892189D01*
X174569233Y-114357736D01*
X174460000Y-114906887D01*
X174460000Y-114963113D01*
X174569233Y-115512264D01*
X174880302Y-115977811D01*
X175220314Y-116205000D01*
X174880302Y-116432189D01*
X174569233Y-116897736D01*
X174460000Y-117446887D01*
X174460000Y-117503113D01*
X174569233Y-118052264D01*
X174880302Y-118517811D01*
X175204868Y-118734679D01*
X175140995Y-118761136D01*
X175066861Y-119007255D01*
X175895000Y-119835395D01*
X176723139Y-119007255D01*
X176649005Y-118761136D01*
X176581728Y-118736954D01*
X176909698Y-118517811D01*
X177220767Y-118052264D01*
X177330000Y-117503113D01*
X177330000Y-117446887D01*
X177220767Y-116897736D01*
X176909698Y-116432189D01*
X176569686Y-116205000D01*
X176662909Y-116142711D01*
X178310000Y-117789802D01*
X178310000Y-121070000D01*
X178085750Y-121070000D01*
X177927000Y-121228750D01*
X177927000Y-122428000D01*
X177947000Y-122428000D01*
X177947000Y-122682000D01*
X177927000Y-122682000D01*
X177927000Y-122702000D01*
X177673000Y-122702000D01*
X177673000Y-122682000D01*
X176473750Y-122682000D01*
X176315000Y-122840750D01*
X176315000Y-123531310D01*
X176411673Y-123764699D01*
X176590302Y-123943327D01*
X176764777Y-124015597D01*
X176720853Y-124044946D01*
X176398946Y-124526715D01*
X176285907Y-125095000D01*
X176398946Y-125663285D01*
X176720853Y-126145054D01*
X177202622Y-126466961D01*
X177770907Y-126580000D01*
X177829093Y-126580000D01*
X178397378Y-126466961D01*
X178879147Y-126145054D01*
X179201054Y-125663285D01*
X179314093Y-125095000D01*
X179241210Y-124728592D01*
X179607401Y-124362401D01*
X179630000Y-124328579D01*
X179630000Y-126925000D01*
X127710000Y-126925000D01*
X127710000Y-121578690D01*
X128055000Y-121578690D01*
X128055000Y-122269250D01*
X128213750Y-122428000D01*
X129413000Y-122428000D01*
X129413000Y-121228750D01*
X129254250Y-121070000D01*
X128563691Y-121070000D01*
X128330302Y-121166673D01*
X128151673Y-121345301D01*
X128055000Y-121578690D01*
X127710000Y-121578690D01*
X127710000Y-119665750D01*
X130060000Y-119665750D01*
X130060000Y-120031309D01*
X130156673Y-120264698D01*
X130335301Y-120443327D01*
X130568690Y-120540000D01*
X131159250Y-120540000D01*
X131318000Y-120381250D01*
X131318000Y-119507000D01*
X130218750Y-119507000D01*
X130060000Y-119665750D01*
X127710000Y-119665750D01*
X127710000Y-116840000D01*
X130032866Y-116840000D01*
X130121166Y-117283913D01*
X130248846Y-117475000D01*
X130121166Y-117666087D01*
X130032866Y-118110000D01*
X130121166Y-118553913D01*
X130128098Y-118564288D01*
X130060000Y-118728691D01*
X130060000Y-119094250D01*
X130218750Y-119253000D01*
X131107401Y-119253000D01*
X131192866Y-119270000D01*
X131697134Y-119270000D01*
X131782599Y-119253000D01*
X132671250Y-119253000D01*
X132830000Y-119094250D01*
X132830000Y-118728691D01*
X132761902Y-118564288D01*
X132768834Y-118553913D01*
X132857134Y-118110000D01*
X132768834Y-117666087D01*
X132641154Y-117475000D01*
X132768834Y-117283913D01*
X132857134Y-116840000D01*
X132768834Y-116396087D01*
X132517378Y-116019756D01*
X132141047Y-115768300D01*
X131697134Y-115680000D01*
X131192866Y-115680000D01*
X130748953Y-115768300D01*
X130372622Y-116019756D01*
X130121166Y-116396087D01*
X130032866Y-116840000D01*
X127710000Y-116840000D01*
X127710000Y-97230000D01*
X179630000Y-97230000D01*
X179630000Y-116971421D01*
X179630000Y-116971421D01*
G37*
X179630000Y-116971421D02*
X179607401Y-116937599D01*
X177268746Y-114598944D01*
X177220767Y-114357736D01*
X176909698Y-113892189D01*
X176573290Y-113667408D01*
X176706800Y-113612243D01*
X177110824Y-113208923D01*
X177329750Y-112681691D01*
X177330248Y-112110813D01*
X177307951Y-112056851D01*
X178337401Y-111027401D01*
X178502148Y-110780839D01*
X178560000Y-110490000D01*
X178560000Y-100332954D01*
X178850054Y-100139147D01*
X179171961Y-99657378D01*
X179285000Y-99089093D01*
X179285000Y-99030907D01*
X179171961Y-98462622D01*
X178850054Y-97980853D01*
X178368285Y-97658946D01*
X177800000Y-97545907D01*
X177231715Y-97658946D01*
X176749946Y-97980853D01*
X176530000Y-98310026D01*
X176310054Y-97980853D01*
X175828285Y-97658946D01*
X175260000Y-97545907D01*
X174691715Y-97658946D01*
X174209946Y-97980853D01*
X173990000Y-98310026D01*
X173770054Y-97980853D01*
X173288285Y-97658946D01*
X172720000Y-97545907D01*
X172151715Y-97658946D01*
X171669946Y-97980853D01*
X171450000Y-98310026D01*
X171230054Y-97980853D01*
X170748285Y-97658946D01*
X170180000Y-97545907D01*
X169611715Y-97658946D01*
X169129946Y-97980853D01*
X169102150Y-98022452D01*
X169093162Y-97974683D01*
X168954090Y-97758559D01*
X168741890Y-97613569D01*
X168490000Y-97562560D01*
X166790000Y-97562560D01*
X166554683Y-97606838D01*
X166338559Y-97745910D01*
X166193569Y-97958110D01*
X166179914Y-98025541D01*
X166150054Y-97980853D01*
X165668285Y-97658946D01*
X165100000Y-97545907D01*
X164531715Y-97658946D01*
X164049946Y-97980853D01*
X163830000Y-98310026D01*
X163610054Y-97980853D01*
X163128285Y-97658946D01*
X162560000Y-97545907D01*
X161991715Y-97658946D01*
X161509946Y-97980853D01*
X161290000Y-98310026D01*
X161070054Y-97980853D01*
X160588285Y-97658946D01*
X160020000Y-97545907D01*
X159451715Y-97658946D01*
X158969946Y-97980853D01*
X158750000Y-98310026D01*
X158530054Y-97980853D01*
X158048285Y-97658946D01*
X157480000Y-97545907D01*
X156911715Y-97658946D01*
X156429946Y-97980853D01*
X156402150Y-98022452D01*
X156393162Y-97974683D01*
X156254090Y-97758559D01*
X156041890Y-97613569D01*
X155790000Y-97562560D01*
X154090000Y-97562560D01*
X153854683Y-97606838D01*
X153638559Y-97745910D01*
X153493569Y-97958110D01*
X153479914Y-98025541D01*
X153450054Y-97980853D01*
X152968285Y-97658946D01*
X152400000Y-97545907D01*
X151831715Y-97658946D01*
X151349946Y-97980853D01*
X151130000Y-98310026D01*
X150910054Y-97980853D01*
X150428285Y-97658946D01*
X149860000Y-97545907D01*
X149291715Y-97658946D01*
X148809946Y-97980853D01*
X148590000Y-98310026D01*
X148370054Y-97980853D01*
X147888285Y-97658946D01*
X147320000Y-97545907D01*
X146751715Y-97658946D01*
X146269946Y-97980853D01*
X146050000Y-98310026D01*
X145830054Y-97980853D01*
X145348285Y-97658946D01*
X144780000Y-97545907D01*
X144211715Y-97658946D01*
X143729946Y-97980853D01*
X143702150Y-98022452D01*
X143693162Y-97974683D01*
X143554090Y-97758559D01*
X143341890Y-97613569D01*
X143090000Y-97562560D01*
X141390000Y-97562560D01*
X141154683Y-97606838D01*
X140938559Y-97745910D01*
X140793569Y-97958110D01*
X140779914Y-98025541D01*
X140750054Y-97980853D01*
X140268285Y-97658946D01*
X139700000Y-97545907D01*
X139131715Y-97658946D01*
X138649946Y-97980853D01*
X138430000Y-98310026D01*
X138210054Y-97980853D01*
X137728285Y-97658946D01*
X137160000Y-97545907D01*
X136591715Y-97658946D01*
X136109946Y-97980853D01*
X135890000Y-98310026D01*
X135670054Y-97980853D01*
X135188285Y-97658946D01*
X134620000Y-97545907D01*
X134051715Y-97658946D01*
X133569946Y-97980853D01*
X133350000Y-98310026D01*
X133130054Y-97980853D01*
X132648285Y-97658946D01*
X132080000Y-97545907D01*
X131511715Y-97658946D01*
X131029946Y-97980853D01*
X131002150Y-98022452D01*
X130993162Y-97974683D01*
X130854090Y-97758559D01*
X130641890Y-97613569D01*
X130390000Y-97562560D01*
X128690000Y-97562560D01*
X128454683Y-97606838D01*
X128238559Y-97745910D01*
X128093569Y-97958110D01*
X128042560Y-98210000D01*
X128042560Y-99910000D01*
X128086838Y-100145317D01*
X128225910Y-100361441D01*
X128438110Y-100506431D01*
X128690000Y-100557440D01*
X128780000Y-100557440D01*
X128780000Y-101037469D01*
X128749697Y-101049990D01*
X128356371Y-101442630D01*
X128143243Y-101955900D01*
X128142758Y-102511661D01*
X128354990Y-103025303D01*
X128747630Y-103418629D01*
X128955512Y-103504949D01*
X128749697Y-103589990D01*
X128356371Y-103982630D01*
X128143243Y-104495900D01*
X128142758Y-105051661D01*
X128354990Y-105565303D01*
X128747630Y-105958629D01*
X129260900Y-106171757D01*
X129816661Y-106172242D01*
X130330303Y-105960010D01*
X130723629Y-105567370D01*
X130936757Y-105054100D01*
X130937242Y-104498339D01*
X130725010Y-103984697D01*
X130332370Y-103591371D01*
X130124488Y-103505051D01*
X130330303Y-103420010D01*
X130723629Y-103027370D01*
X130936757Y-102514100D01*
X130937242Y-101958339D01*
X130725010Y-101444697D01*
X130332370Y-101051371D01*
X130300000Y-101037930D01*
X130300000Y-100557440D01*
X130390000Y-100557440D01*
X130625317Y-100513162D01*
X130841441Y-100374090D01*
X130986431Y-100161890D01*
X131000086Y-100094459D01*
X131029946Y-100139147D01*
X131320000Y-100332954D01*
X131320000Y-110365000D01*
X130810000Y-110365000D01*
X130519160Y-110422852D01*
X130272599Y-110587599D01*
X129849381Y-111010817D01*
X129819100Y-110998243D01*
X129263339Y-110997758D01*
X128749697Y-111209990D01*
X128356371Y-111602630D01*
X128143243Y-112115900D01*
X128142758Y-112671661D01*
X128354990Y-113185303D01*
X128747630Y-113578629D01*
X129260900Y-113791757D01*
X129816661Y-113792242D01*
X130330303Y-113580010D01*
X130723629Y-113187370D01*
X130936757Y-112674100D01*
X130937242Y-112118339D01*
X130923857Y-112085945D01*
X131124802Y-111885000D01*
X133035198Y-111885000D01*
X133235817Y-112085619D01*
X133223243Y-112115900D01*
X133222758Y-112671661D01*
X133434990Y-113185303D01*
X133827630Y-113578629D01*
X134340900Y-113791757D01*
X134896661Y-113792242D01*
X135410303Y-113580010D01*
X135803629Y-113187370D01*
X136016757Y-112674100D01*
X136017242Y-112118339D01*
X135805010Y-111604697D01*
X135412370Y-111211371D01*
X134899100Y-110998243D01*
X134343339Y-110997758D01*
X134310945Y-111011143D01*
X133887401Y-110587599D01*
X133640839Y-110422852D01*
X133350000Y-110365000D01*
X132840000Y-110365000D01*
X132840000Y-100332954D01*
X133130054Y-100139147D01*
X133350000Y-99809974D01*
X133569946Y-100139147D01*
X133860000Y-100332954D01*
X133860000Y-101037469D01*
X133829697Y-101049990D01*
X133436371Y-101442630D01*
X133223243Y-101955900D01*
X133222758Y-102511661D01*
X133434990Y-103025303D01*
X133827630Y-103418629D01*
X134035512Y-103504949D01*
X133829697Y-103589990D01*
X133436371Y-103982630D01*
X133223243Y-104495900D01*
X133222758Y-105051661D01*
X133434990Y-105565303D01*
X133827630Y-105958629D01*
X134340900Y-106171757D01*
X134896661Y-106172242D01*
X135410303Y-105960010D01*
X135803629Y-105567370D01*
X136016757Y-105054100D01*
X136017242Y-104498339D01*
X135805010Y-103984697D01*
X135412370Y-103591371D01*
X135204488Y-103505051D01*
X135410303Y-103420010D01*
X135803629Y-103027370D01*
X136016757Y-102514100D01*
X136017242Y-101958339D01*
X135805010Y-101444697D01*
X135412370Y-101051371D01*
X135380000Y-101037930D01*
X135380000Y-100332954D01*
X135670054Y-100139147D01*
X135890000Y-99809974D01*
X136109946Y-100139147D01*
X136591715Y-100461054D01*
X137160000Y-100574093D01*
X137728285Y-100461054D01*
X138210054Y-100139147D01*
X138430000Y-99809974D01*
X138649946Y-100139147D01*
X138940000Y-100332954D01*
X138940000Y-100737174D01*
X138695000Y-100687560D01*
X136895000Y-100687560D01*
X136659683Y-100731838D01*
X136443559Y-100870910D01*
X136298569Y-101083110D01*
X136247560Y-101335000D01*
X136247560Y-103135000D01*
X136291838Y-103370317D01*
X136430910Y-103586441D01*
X136643110Y-103731431D01*
X136895000Y-103782440D01*
X138695000Y-103782440D01*
X138930317Y-103738162D01*
X138940000Y-103731931D01*
X138940000Y-108828703D01*
X138880409Y-108739519D01*
X138382419Y-108406773D01*
X137795000Y-108289928D01*
X137207581Y-108406773D01*
X136709591Y-108739519D01*
X136376845Y-109237509D01*
X136260000Y-109824928D01*
X136260000Y-109885072D01*
X136376845Y-110472491D01*
X136709591Y-110970481D01*
X137005816Y-111168412D01*
X136983200Y-111177757D01*
X136579176Y-111581077D01*
X136360250Y-112108309D01*
X136359752Y-112679187D01*
X136577757Y-113206800D01*
X136981077Y-113610824D01*
X137116954Y-113667245D01*
X136780302Y-113892189D01*
X136469233Y-114357736D01*
X136360000Y-114906887D01*
X136360000Y-114963113D01*
X136469233Y-115512264D01*
X136676555Y-115822543D01*
X132830000Y-119669098D01*
X132830000Y-119665750D01*
X132671250Y-119507000D01*
X131572000Y-119507000D01*
X131572000Y-120381250D01*
X131730750Y-120540000D01*
X131959098Y-120540000D01*
X130994366Y-121504732D01*
X130928327Y-121345301D01*
X130749698Y-121166673D01*
X130516309Y-121070000D01*
X129825750Y-121070000D01*
X129667000Y-121228750D01*
X129667000Y-122428000D01*
X129687000Y-122428000D01*
X129687000Y-122682000D01*
X129667000Y-122682000D01*
X129667000Y-122702000D01*
X129413000Y-122702000D01*
X129413000Y-122682000D01*
X128213750Y-122682000D01*
X128055000Y-122840750D01*
X128055000Y-123531310D01*
X128151673Y-123764699D01*
X128330302Y-123943327D01*
X128504777Y-124015597D01*
X128460853Y-124044946D01*
X128138946Y-124526715D01*
X128025907Y-125095000D01*
X128138946Y-125663285D01*
X128460853Y-126145054D01*
X128942622Y-126466961D01*
X129510907Y-126580000D01*
X129569093Y-126580000D01*
X130137378Y-126466961D01*
X130619147Y-126145054D01*
X130941054Y-125663285D01*
X131054093Y-125095000D01*
X130941054Y-124526715D01*
X130891921Y-124453181D01*
X131252701Y-124092401D01*
X131417448Y-123845839D01*
X131475300Y-123555000D01*
X131475300Y-123173402D01*
X133625957Y-121022745D01*
X136966861Y-121022745D01*
X137040995Y-121268864D01*
X137578223Y-121461965D01*
X138148454Y-121434778D01*
X138549005Y-121268864D01*
X138623139Y-121022745D01*
X137795000Y-120194605D01*
X136966861Y-121022745D01*
X133625957Y-121022745D01*
X134850479Y-119798223D01*
X136348035Y-119798223D01*
X136375222Y-120368454D01*
X136541136Y-120769005D01*
X136787255Y-120843139D01*
X137615395Y-120015000D01*
X137974605Y-120015000D01*
X138802745Y-120843139D01*
X139048864Y-120769005D01*
X139241965Y-120231777D01*
X139214778Y-119661546D01*
X139048864Y-119260995D01*
X138802745Y-119186861D01*
X137974605Y-120015000D01*
X137615395Y-120015000D01*
X136787255Y-119186861D01*
X136541136Y-119260995D01*
X136348035Y-119798223D01*
X134850479Y-119798223D01*
X136520184Y-118128518D01*
X136780302Y-118517811D01*
X137104868Y-118734679D01*
X137040995Y-118761136D01*
X136966861Y-119007255D01*
X137795000Y-119835395D01*
X138623139Y-119007255D01*
X138549005Y-118761136D01*
X138481728Y-118736954D01*
X138809698Y-118517811D01*
X138841185Y-118470687D01*
X146002899Y-125632401D01*
X146249460Y-125797148D01*
X146540300Y-125855000D01*
X148362560Y-125855000D01*
X148362560Y-125945000D01*
X148406838Y-126180317D01*
X148545910Y-126396441D01*
X148758110Y-126541431D01*
X149010000Y-126592440D01*
X150710000Y-126592440D01*
X150945317Y-126548162D01*
X151161441Y-126409090D01*
X151306431Y-126196890D01*
X151320086Y-126129459D01*
X151349946Y-126174147D01*
X151831715Y-126496054D01*
X152400000Y-126609093D01*
X152968285Y-126496054D01*
X153450054Y-126174147D01*
X153670000Y-125844974D01*
X153889946Y-126174147D01*
X154371715Y-126496054D01*
X154940000Y-126609093D01*
X155508285Y-126496054D01*
X155990054Y-126174147D01*
X156210000Y-125844974D01*
X156429946Y-126174147D01*
X156911715Y-126496054D01*
X157480000Y-126609093D01*
X158048285Y-126496054D01*
X158530054Y-126174147D01*
X158743301Y-125855000D01*
X159850100Y-125855000D01*
X160140939Y-125797148D01*
X160387501Y-125632401D01*
X164997157Y-121022745D01*
X175066861Y-121022745D01*
X175140995Y-121268864D01*
X175678223Y-121461965D01*
X176248454Y-121434778D01*
X176400738Y-121371700D01*
X176315000Y-121578690D01*
X176315000Y-122269250D01*
X176473750Y-122428000D01*
X177673000Y-122428000D01*
X177673000Y-121228750D01*
X177514250Y-121070000D01*
X176823691Y-121070000D01*
X176692542Y-121124324D01*
X176723139Y-121022745D01*
X175895000Y-120194605D01*
X175066861Y-121022745D01*
X164997157Y-121022745D01*
X166354152Y-119665750D01*
X168160000Y-119665750D01*
X168160000Y-120031309D01*
X168256673Y-120264698D01*
X168435301Y-120443327D01*
X168668690Y-120540000D01*
X169259250Y-120540000D01*
X169418000Y-120381250D01*
X169418000Y-119507000D01*
X169672000Y-119507000D01*
X169672000Y-120381250D01*
X169830750Y-120540000D01*
X170421310Y-120540000D01*
X170654699Y-120443327D01*
X170833327Y-120264698D01*
X170930000Y-120031309D01*
X170930000Y-119798223D01*
X174448035Y-119798223D01*
X174475222Y-120368454D01*
X174641136Y-120769005D01*
X174887255Y-120843139D01*
X175715395Y-120015000D01*
X176074605Y-120015000D01*
X176902745Y-120843139D01*
X177148864Y-120769005D01*
X177341965Y-120231777D01*
X177314778Y-119661546D01*
X177148864Y-119260995D01*
X176902745Y-119186861D01*
X176074605Y-120015000D01*
X175715395Y-120015000D01*
X174887255Y-119186861D01*
X174641136Y-119260995D01*
X174448035Y-119798223D01*
X170930000Y-119798223D01*
X170930000Y-119665750D01*
X170771250Y-119507000D01*
X169672000Y-119507000D01*
X169418000Y-119507000D01*
X168318750Y-119507000D01*
X168160000Y-119665750D01*
X166354152Y-119665750D01*
X167149902Y-118870000D01*
X168160000Y-118870000D01*
X168160000Y-119094250D01*
X168318750Y-119253000D01*
X169207401Y-119253000D01*
X169292866Y-119270000D01*
X169797134Y-119270000D01*
X169882599Y-119253000D01*
X170771250Y-119253000D01*
X170930000Y-119094250D01*
X170930000Y-118728691D01*
X170861902Y-118564288D01*
X170868834Y-118553913D01*
X170957134Y-118110000D01*
X170868834Y-117666087D01*
X170800699Y-117564116D01*
X170911139Y-117542148D01*
X171157701Y-117377401D01*
X171322448Y-117130839D01*
X171380300Y-116840000D01*
X171380300Y-116391802D01*
X174644877Y-113127225D01*
X174677757Y-113206800D01*
X175081077Y-113610824D01*
X175216954Y-113667245D01*
X174880302Y-113892189D01*
X174569233Y-114357736D01*
X174460000Y-114906887D01*
X174460000Y-114963113D01*
X174569233Y-115512264D01*
X174880302Y-115977811D01*
X175220314Y-116205000D01*
X174880302Y-116432189D01*
X174569233Y-116897736D01*
X174460000Y-117446887D01*
X174460000Y-117503113D01*
X174569233Y-118052264D01*
X174880302Y-118517811D01*
X175204868Y-118734679D01*
X175140995Y-118761136D01*
X175066861Y-119007255D01*
X175895000Y-119835395D01*
X176723139Y-119007255D01*
X176649005Y-118761136D01*
X176581728Y-118736954D01*
X176909698Y-118517811D01*
X177220767Y-118052264D01*
X177330000Y-117503113D01*
X177330000Y-117446887D01*
X177220767Y-116897736D01*
X176909698Y-116432189D01*
X176569686Y-116205000D01*
X176662909Y-116142711D01*
X178310000Y-117789802D01*
X178310000Y-121070000D01*
X178085750Y-121070000D01*
X177927000Y-121228750D01*
X177927000Y-122428000D01*
X177947000Y-122428000D01*
X177947000Y-122682000D01*
X177927000Y-122682000D01*
X177927000Y-122702000D01*
X177673000Y-122702000D01*
X177673000Y-122682000D01*
X176473750Y-122682000D01*
X176315000Y-122840750D01*
X176315000Y-123531310D01*
X176411673Y-123764699D01*
X176590302Y-123943327D01*
X176764777Y-124015597D01*
X176720853Y-124044946D01*
X176398946Y-124526715D01*
X176285907Y-125095000D01*
X176398946Y-125663285D01*
X176720853Y-126145054D01*
X177202622Y-126466961D01*
X177770907Y-126580000D01*
X177829093Y-126580000D01*
X178397378Y-126466961D01*
X178879147Y-126145054D01*
X179201054Y-125663285D01*
X179314093Y-125095000D01*
X179241210Y-124728592D01*
X179607401Y-124362401D01*
X179630000Y-124328579D01*
X179630000Y-126925000D01*
X127710000Y-126925000D01*
X127710000Y-121578690D01*
X128055000Y-121578690D01*
X128055000Y-122269250D01*
X128213750Y-122428000D01*
X129413000Y-122428000D01*
X129413000Y-121228750D01*
X129254250Y-121070000D01*
X128563691Y-121070000D01*
X128330302Y-121166673D01*
X128151673Y-121345301D01*
X128055000Y-121578690D01*
X127710000Y-121578690D01*
X127710000Y-119665750D01*
X130060000Y-119665750D01*
X130060000Y-120031309D01*
X130156673Y-120264698D01*
X130335301Y-120443327D01*
X130568690Y-120540000D01*
X131159250Y-120540000D01*
X131318000Y-120381250D01*
X131318000Y-119507000D01*
X130218750Y-119507000D01*
X130060000Y-119665750D01*
X127710000Y-119665750D01*
X127710000Y-116840000D01*
X130032866Y-116840000D01*
X130121166Y-117283913D01*
X130248846Y-117475000D01*
X130121166Y-117666087D01*
X130032866Y-118110000D01*
X130121166Y-118553913D01*
X130128098Y-118564288D01*
X130060000Y-118728691D01*
X130060000Y-119094250D01*
X130218750Y-119253000D01*
X131107401Y-119253000D01*
X131192866Y-119270000D01*
X131697134Y-119270000D01*
X131782599Y-119253000D01*
X132671250Y-119253000D01*
X132830000Y-119094250D01*
X132830000Y-118728691D01*
X132761902Y-118564288D01*
X132768834Y-118553913D01*
X132857134Y-118110000D01*
X132768834Y-117666087D01*
X132641154Y-117475000D01*
X132768834Y-117283913D01*
X132857134Y-116840000D01*
X132768834Y-116396087D01*
X132517378Y-116019756D01*
X132141047Y-115768300D01*
X131697134Y-115680000D01*
X131192866Y-115680000D01*
X130748953Y-115768300D01*
X130372622Y-116019756D01*
X130121166Y-116396087D01*
X130032866Y-116840000D01*
X127710000Y-116840000D01*
X127710000Y-97230000D01*
X179630000Y-97230000D01*
X179630000Y-116971421D01*
G36*
X156429946Y-100139147D02*
X156720000Y-100332954D01*
X156720000Y-109540198D01*
X155249381Y-111010817D01*
X155219100Y-110998243D01*
X154663339Y-110997758D01*
X154149697Y-111209990D01*
X153756371Y-111602630D01*
X153543243Y-112115900D01*
X153542758Y-112671661D01*
X153754990Y-113185303D01*
X154147630Y-113578629D01*
X154660900Y-113791757D01*
X155216661Y-113792242D01*
X155730303Y-113580010D01*
X156123629Y-113187370D01*
X156336757Y-112674100D01*
X156337242Y-112118339D01*
X156323857Y-112085945D01*
X157480000Y-110929802D01*
X158635817Y-112085619D01*
X158623243Y-112115900D01*
X158622758Y-112671661D01*
X158834990Y-113185303D01*
X159227630Y-113578629D01*
X159304959Y-113610739D01*
X157382899Y-115532799D01*
X157262557Y-115712905D01*
X157097134Y-115680000D01*
X156592866Y-115680000D01*
X156148953Y-115768300D01*
X155772622Y-116019756D01*
X155521166Y-116396087D01*
X155432866Y-116840000D01*
X155521166Y-117283913D01*
X155589301Y-117385884D01*
X155478861Y-117407852D01*
X155232299Y-117572599D01*
X155067552Y-117819161D01*
X155009700Y-118110000D01*
X155009700Y-122775198D01*
X154402599Y-123382299D01*
X154237852Y-123628861D01*
X154202402Y-123807077D01*
X153889946Y-124015853D01*
X153670000Y-124345026D01*
X153450054Y-124015853D01*
X153160000Y-123822046D01*
X153160000Y-120224000D01*
X153102148Y-119933161D01*
X152937401Y-119686599D01*
X151613405Y-118362603D01*
X151820767Y-118052264D01*
X151930000Y-117503113D01*
X151930000Y-117446887D01*
X151820767Y-116897736D01*
X151509698Y-116432189D01*
X151169686Y-116205000D01*
X151509698Y-115977811D01*
X151820767Y-115512264D01*
X151930000Y-114963113D01*
X151930000Y-114906887D01*
X151820767Y-114357736D01*
X151509698Y-113892189D01*
X151173290Y-113667408D01*
X151306800Y-113612243D01*
X151710824Y-113208923D01*
X151929750Y-112681691D01*
X151930248Y-112110813D01*
X151907951Y-112056851D01*
X152937401Y-111027401D01*
X153102148Y-110780839D01*
X153160000Y-110490000D01*
X153160000Y-100332954D01*
X153450054Y-100139147D01*
X153477850Y-100097548D01*
X153486838Y-100145317D01*
X153625910Y-100361441D01*
X153838110Y-100506431D01*
X154090000Y-100557440D01*
X154180000Y-100557440D01*
X154180000Y-101037469D01*
X154149697Y-101049990D01*
X153756371Y-101442630D01*
X153543243Y-101955900D01*
X153542758Y-102511661D01*
X153754990Y-103025303D01*
X154147630Y-103418629D01*
X154355512Y-103504949D01*
X154149697Y-103589990D01*
X153756371Y-103982630D01*
X153543243Y-104495900D01*
X153542758Y-105051661D01*
X153754990Y-105565303D01*
X154147630Y-105958629D01*
X154660900Y-106171757D01*
X155216661Y-106172242D01*
X155730303Y-105960010D01*
X156123629Y-105567370D01*
X156336757Y-105054100D01*
X156337242Y-104498339D01*
X156125010Y-103984697D01*
X155732370Y-103591371D01*
X155524488Y-103505051D01*
X155730303Y-103420010D01*
X156123629Y-103027370D01*
X156336757Y-102514100D01*
X156337242Y-101958339D01*
X156125010Y-101444697D01*
X155732370Y-101051371D01*
X155700000Y-101037930D01*
X155700000Y-100557440D01*
X155790000Y-100557440D01*
X156025317Y-100513162D01*
X156241441Y-100374090D01*
X156386431Y-100161890D01*
X156400086Y-100094459D01*
X156429946Y-100139147D01*
X156429946Y-100139147D01*
G37*
X156429946Y-100139147D02*
X156720000Y-100332954D01*
X156720000Y-109540198D01*
X155249381Y-111010817D01*
X155219100Y-110998243D01*
X154663339Y-110997758D01*
X154149697Y-111209990D01*
X153756371Y-111602630D01*
X153543243Y-112115900D01*
X153542758Y-112671661D01*
X153754990Y-113185303D01*
X154147630Y-113578629D01*
X154660900Y-113791757D01*
X155216661Y-113792242D01*
X155730303Y-113580010D01*
X156123629Y-113187370D01*
X156336757Y-112674100D01*
X156337242Y-112118339D01*
X156323857Y-112085945D01*
X157480000Y-110929802D01*
X158635817Y-112085619D01*
X158623243Y-112115900D01*
X158622758Y-112671661D01*
X158834990Y-113185303D01*
X159227630Y-113578629D01*
X159304959Y-113610739D01*
X157382899Y-115532799D01*
X157262557Y-115712905D01*
X157097134Y-115680000D01*
X156592866Y-115680000D01*
X156148953Y-115768300D01*
X155772622Y-116019756D01*
X155521166Y-116396087D01*
X155432866Y-116840000D01*
X155521166Y-117283913D01*
X155589301Y-117385884D01*
X155478861Y-117407852D01*
X155232299Y-117572599D01*
X155067552Y-117819161D01*
X155009700Y-118110000D01*
X155009700Y-122775198D01*
X154402599Y-123382299D01*
X154237852Y-123628861D01*
X154202402Y-123807077D01*
X153889946Y-124015853D01*
X153670000Y-124345026D01*
X153450054Y-124015853D01*
X153160000Y-123822046D01*
X153160000Y-120224000D01*
X153102148Y-119933161D01*
X152937401Y-119686599D01*
X151613405Y-118362603D01*
X151820767Y-118052264D01*
X151930000Y-117503113D01*
X151930000Y-117446887D01*
X151820767Y-116897736D01*
X151509698Y-116432189D01*
X151169686Y-116205000D01*
X151509698Y-115977811D01*
X151820767Y-115512264D01*
X151930000Y-114963113D01*
X151930000Y-114906887D01*
X151820767Y-114357736D01*
X151509698Y-113892189D01*
X151173290Y-113667408D01*
X151306800Y-113612243D01*
X151710824Y-113208923D01*
X151929750Y-112681691D01*
X151930248Y-112110813D01*
X151907951Y-112056851D01*
X152937401Y-111027401D01*
X153102148Y-110780839D01*
X153160000Y-110490000D01*
X153160000Y-100332954D01*
X153450054Y-100139147D01*
X153477850Y-100097548D01*
X153486838Y-100145317D01*
X153625910Y-100361441D01*
X153838110Y-100506431D01*
X154090000Y-100557440D01*
X154180000Y-100557440D01*
X154180000Y-101037469D01*
X154149697Y-101049990D01*
X153756371Y-101442630D01*
X153543243Y-101955900D01*
X153542758Y-102511661D01*
X153754990Y-103025303D01*
X154147630Y-103418629D01*
X154355512Y-103504949D01*
X154149697Y-103589990D01*
X153756371Y-103982630D01*
X153543243Y-104495900D01*
X153542758Y-105051661D01*
X153754990Y-105565303D01*
X154147630Y-105958629D01*
X154660900Y-106171757D01*
X155216661Y-106172242D01*
X155730303Y-105960010D01*
X156123629Y-105567370D01*
X156336757Y-105054100D01*
X156337242Y-104498339D01*
X156125010Y-103984697D01*
X155732370Y-103591371D01*
X155524488Y-103505051D01*
X155730303Y-103420010D01*
X156123629Y-103027370D01*
X156336757Y-102514100D01*
X156337242Y-101958339D01*
X156125010Y-101444697D01*
X155732370Y-101051371D01*
X155700000Y-101037930D01*
X155700000Y-100557440D01*
X155790000Y-100557440D01*
X156025317Y-100513162D01*
X156241441Y-100374090D01*
X156386431Y-100161890D01*
X156400086Y-100094459D01*
X156429946Y-100139147D01*
G36*
X169129946Y-100139147D02*
X169420000Y-100332954D01*
X169420000Y-109540198D01*
X167949381Y-111010817D01*
X167919100Y-110998243D01*
X167363339Y-110997758D01*
X166849697Y-111209990D01*
X166456371Y-111602630D01*
X166243243Y-112115900D01*
X166242758Y-112671661D01*
X166454990Y-113185303D01*
X166847630Y-113578629D01*
X167360900Y-113791757D01*
X167916661Y-113792242D01*
X168430303Y-113580010D01*
X168823629Y-113187370D01*
X169036757Y-112674100D01*
X169037242Y-112118339D01*
X169023857Y-112085945D01*
X170180000Y-110929802D01*
X171335817Y-112085619D01*
X171323243Y-112115900D01*
X171322758Y-112671661D01*
X171534990Y-113185303D01*
X171927630Y-113578629D01*
X172009764Y-113612734D01*
X170082899Y-115539599D01*
X169966567Y-115713702D01*
X169797134Y-115680000D01*
X169292866Y-115680000D01*
X168848953Y-115768300D01*
X168472622Y-116019756D01*
X168221166Y-116396087D01*
X168132866Y-116840000D01*
X168221166Y-117283913D01*
X168265324Y-117350000D01*
X166835100Y-117350000D01*
X166544261Y-117407852D01*
X166297699Y-117572599D01*
X164495856Y-119374442D01*
X164448864Y-119260995D01*
X164202745Y-119186861D01*
X163374605Y-120015000D01*
X163388748Y-120029142D01*
X163209142Y-120208748D01*
X163195000Y-120194605D01*
X162366861Y-121022745D01*
X162440995Y-121268864D01*
X162559013Y-121311285D01*
X159535298Y-124335000D01*
X158743301Y-124335000D01*
X158530054Y-124015853D01*
X158048285Y-123693946D01*
X157480000Y-123580907D01*
X156911715Y-123693946D01*
X156429946Y-124015853D01*
X156210000Y-124345026D01*
X155990054Y-124015853D01*
X155947250Y-123987252D01*
X156307101Y-123627401D01*
X156471848Y-123380839D01*
X156529700Y-123090000D01*
X156529700Y-120540000D01*
X156559250Y-120540000D01*
X156718000Y-120381250D01*
X156718000Y-119507000D01*
X156972000Y-119507000D01*
X156972000Y-120381250D01*
X157130750Y-120540000D01*
X157721310Y-120540000D01*
X157954699Y-120443327D01*
X158133327Y-120264698D01*
X158230000Y-120031309D01*
X158230000Y-119798223D01*
X161748035Y-119798223D01*
X161775222Y-120368454D01*
X161941136Y-120769005D01*
X162187255Y-120843139D01*
X163015395Y-120015000D01*
X162187255Y-119186861D01*
X161941136Y-119260995D01*
X161748035Y-119798223D01*
X158230000Y-119798223D01*
X158230000Y-119665750D01*
X158071250Y-119507000D01*
X156972000Y-119507000D01*
X156718000Y-119507000D01*
X156698000Y-119507000D01*
X156698000Y-119270000D01*
X157097134Y-119270000D01*
X157182599Y-119253000D01*
X158071250Y-119253000D01*
X158230000Y-119094250D01*
X158230000Y-118728691D01*
X158161902Y-118564288D01*
X158168834Y-118553913D01*
X158257134Y-118110000D01*
X158168834Y-117666087D01*
X158100699Y-117564116D01*
X158211139Y-117542148D01*
X158457701Y-117377401D01*
X158622448Y-117130839D01*
X158680300Y-116840000D01*
X158680300Y-116385002D01*
X161942889Y-113122413D01*
X161977757Y-113206800D01*
X162381077Y-113610824D01*
X162516954Y-113667245D01*
X162180302Y-113892189D01*
X161869233Y-114357736D01*
X161760000Y-114906887D01*
X161760000Y-114963113D01*
X161869233Y-115512264D01*
X162180302Y-115977811D01*
X162520314Y-116205000D01*
X162180302Y-116432189D01*
X161869233Y-116897736D01*
X161760000Y-117446887D01*
X161760000Y-117503113D01*
X161869233Y-118052264D01*
X162180302Y-118517811D01*
X162504868Y-118734679D01*
X162440995Y-118761136D01*
X162366861Y-119007255D01*
X163195000Y-119835395D01*
X164023139Y-119007255D01*
X163949005Y-118761136D01*
X163881728Y-118736954D01*
X164209698Y-118517811D01*
X164520767Y-118052264D01*
X164630000Y-117503113D01*
X164630000Y-117446887D01*
X164520767Y-116897736D01*
X164209698Y-116432189D01*
X163869686Y-116205000D01*
X164209698Y-115977811D01*
X164520767Y-115512264D01*
X164630000Y-114963113D01*
X164630000Y-114906887D01*
X164520767Y-114357736D01*
X164209698Y-113892189D01*
X163873290Y-113667408D01*
X164006800Y-113612243D01*
X164410824Y-113208923D01*
X164629750Y-112681691D01*
X164630248Y-112110813D01*
X164607951Y-112056851D01*
X165637401Y-111027401D01*
X165802148Y-110780839D01*
X165860000Y-110490000D01*
X165860000Y-100332954D01*
X166150054Y-100139147D01*
X166177850Y-100097548D01*
X166186838Y-100145317D01*
X166325910Y-100361441D01*
X166538110Y-100506431D01*
X166790000Y-100557440D01*
X166880000Y-100557440D01*
X166880000Y-101037469D01*
X166849697Y-101049990D01*
X166456371Y-101442630D01*
X166243243Y-101955900D01*
X166242758Y-102511661D01*
X166454990Y-103025303D01*
X166847630Y-103418629D01*
X167055512Y-103504949D01*
X166849697Y-103589990D01*
X166456371Y-103982630D01*
X166243243Y-104495900D01*
X166242758Y-105051661D01*
X166454990Y-105565303D01*
X166847630Y-105958629D01*
X167360900Y-106171757D01*
X167916661Y-106172242D01*
X168430303Y-105960010D01*
X168823629Y-105567370D01*
X169036757Y-105054100D01*
X169037242Y-104498339D01*
X168825010Y-103984697D01*
X168432370Y-103591371D01*
X168224488Y-103505051D01*
X168430303Y-103420010D01*
X168823629Y-103027370D01*
X169036757Y-102514100D01*
X169037242Y-101958339D01*
X168825010Y-101444697D01*
X168432370Y-101051371D01*
X168400000Y-101037930D01*
X168400000Y-100557440D01*
X168490000Y-100557440D01*
X168725317Y-100513162D01*
X168941441Y-100374090D01*
X169086431Y-100161890D01*
X169100086Y-100094459D01*
X169129946Y-100139147D01*
X169129946Y-100139147D01*
G37*
X169129946Y-100139147D02*
X169420000Y-100332954D01*
X169420000Y-109540198D01*
X167949381Y-111010817D01*
X167919100Y-110998243D01*
X167363339Y-110997758D01*
X166849697Y-111209990D01*
X166456371Y-111602630D01*
X166243243Y-112115900D01*
X166242758Y-112671661D01*
X166454990Y-113185303D01*
X166847630Y-113578629D01*
X167360900Y-113791757D01*
X167916661Y-113792242D01*
X168430303Y-113580010D01*
X168823629Y-113187370D01*
X169036757Y-112674100D01*
X169037242Y-112118339D01*
X169023857Y-112085945D01*
X170180000Y-110929802D01*
X171335817Y-112085619D01*
X171323243Y-112115900D01*
X171322758Y-112671661D01*
X171534990Y-113185303D01*
X171927630Y-113578629D01*
X172009764Y-113612734D01*
X170082899Y-115539599D01*
X169966567Y-115713702D01*
X169797134Y-115680000D01*
X169292866Y-115680000D01*
X168848953Y-115768300D01*
X168472622Y-116019756D01*
X168221166Y-116396087D01*
X168132866Y-116840000D01*
X168221166Y-117283913D01*
X168265324Y-117350000D01*
X166835100Y-117350000D01*
X166544261Y-117407852D01*
X166297699Y-117572599D01*
X164495856Y-119374442D01*
X164448864Y-119260995D01*
X164202745Y-119186861D01*
X163374605Y-120015000D01*
X163388748Y-120029142D01*
X163209142Y-120208748D01*
X163195000Y-120194605D01*
X162366861Y-121022745D01*
X162440995Y-121268864D01*
X162559013Y-121311285D01*
X159535298Y-124335000D01*
X158743301Y-124335000D01*
X158530054Y-124015853D01*
X158048285Y-123693946D01*
X157480000Y-123580907D01*
X156911715Y-123693946D01*
X156429946Y-124015853D01*
X156210000Y-124345026D01*
X155990054Y-124015853D01*
X155947250Y-123987252D01*
X156307101Y-123627401D01*
X156471848Y-123380839D01*
X156529700Y-123090000D01*
X156529700Y-120540000D01*
X156559250Y-120540000D01*
X156718000Y-120381250D01*
X156718000Y-119507000D01*
X156972000Y-119507000D01*
X156972000Y-120381250D01*
X157130750Y-120540000D01*
X157721310Y-120540000D01*
X157954699Y-120443327D01*
X158133327Y-120264698D01*
X158230000Y-120031309D01*
X158230000Y-119798223D01*
X161748035Y-119798223D01*
X161775222Y-120368454D01*
X161941136Y-120769005D01*
X162187255Y-120843139D01*
X163015395Y-120015000D01*
X162187255Y-119186861D01*
X161941136Y-119260995D01*
X161748035Y-119798223D01*
X158230000Y-119798223D01*
X158230000Y-119665750D01*
X158071250Y-119507000D01*
X156972000Y-119507000D01*
X156718000Y-119507000D01*
X156698000Y-119507000D01*
X156698000Y-119270000D01*
X157097134Y-119270000D01*
X157182599Y-119253000D01*
X158071250Y-119253000D01*
X158230000Y-119094250D01*
X158230000Y-118728691D01*
X158161902Y-118564288D01*
X158168834Y-118553913D01*
X158257134Y-118110000D01*
X158168834Y-117666087D01*
X158100699Y-117564116D01*
X158211139Y-117542148D01*
X158457701Y-117377401D01*
X158622448Y-117130839D01*
X158680300Y-116840000D01*
X158680300Y-116385002D01*
X161942889Y-113122413D01*
X161977757Y-113206800D01*
X162381077Y-113610824D01*
X162516954Y-113667245D01*
X162180302Y-113892189D01*
X161869233Y-114357736D01*
X161760000Y-114906887D01*
X161760000Y-114963113D01*
X161869233Y-115512264D01*
X162180302Y-115977811D01*
X162520314Y-116205000D01*
X162180302Y-116432189D01*
X161869233Y-116897736D01*
X161760000Y-117446887D01*
X161760000Y-117503113D01*
X161869233Y-118052264D01*
X162180302Y-118517811D01*
X162504868Y-118734679D01*
X162440995Y-118761136D01*
X162366861Y-119007255D01*
X163195000Y-119835395D01*
X164023139Y-119007255D01*
X163949005Y-118761136D01*
X163881728Y-118736954D01*
X164209698Y-118517811D01*
X164520767Y-118052264D01*
X164630000Y-117503113D01*
X164630000Y-117446887D01*
X164520767Y-116897736D01*
X164209698Y-116432189D01*
X163869686Y-116205000D01*
X164209698Y-115977811D01*
X164520767Y-115512264D01*
X164630000Y-114963113D01*
X164630000Y-114906887D01*
X164520767Y-114357736D01*
X164209698Y-113892189D01*
X163873290Y-113667408D01*
X164006800Y-113612243D01*
X164410824Y-113208923D01*
X164629750Y-112681691D01*
X164630248Y-112110813D01*
X164607951Y-112056851D01*
X165637401Y-111027401D01*
X165802148Y-110780839D01*
X165860000Y-110490000D01*
X165860000Y-100332954D01*
X166150054Y-100139147D01*
X166177850Y-100097548D01*
X166186838Y-100145317D01*
X166325910Y-100361441D01*
X166538110Y-100506431D01*
X166790000Y-100557440D01*
X166880000Y-100557440D01*
X166880000Y-101037469D01*
X166849697Y-101049990D01*
X166456371Y-101442630D01*
X166243243Y-101955900D01*
X166242758Y-102511661D01*
X166454990Y-103025303D01*
X166847630Y-103418629D01*
X167055512Y-103504949D01*
X166849697Y-103589990D01*
X166456371Y-103982630D01*
X166243243Y-104495900D01*
X166242758Y-105051661D01*
X166454990Y-105565303D01*
X166847630Y-105958629D01*
X167360900Y-106171757D01*
X167916661Y-106172242D01*
X168430303Y-105960010D01*
X168823629Y-105567370D01*
X169036757Y-105054100D01*
X169037242Y-104498339D01*
X168825010Y-103984697D01*
X168432370Y-103591371D01*
X168224488Y-103505051D01*
X168430303Y-103420010D01*
X168823629Y-103027370D01*
X169036757Y-102514100D01*
X169037242Y-101958339D01*
X168825010Y-101444697D01*
X168432370Y-101051371D01*
X168400000Y-101037930D01*
X168400000Y-100557440D01*
X168490000Y-100557440D01*
X168725317Y-100513162D01*
X168941441Y-100374090D01*
X169086431Y-100161890D01*
X169100086Y-100094459D01*
X169129946Y-100139147D01*
G36*
X143729946Y-100139147D02*
X144020000Y-100332954D01*
X144020000Y-109540198D01*
X142549381Y-111010817D01*
X142519100Y-110998243D01*
X141963339Y-110997758D01*
X141449697Y-111209990D01*
X141056371Y-111602630D01*
X140843243Y-112115900D01*
X140842758Y-112671661D01*
X141054990Y-113185303D01*
X141447630Y-113578629D01*
X141960900Y-113791757D01*
X142516661Y-113792242D01*
X143030303Y-113580010D01*
X143423629Y-113187370D01*
X143636757Y-112674100D01*
X143637242Y-112118339D01*
X143623857Y-112085945D01*
X144780000Y-110929802D01*
X145935817Y-112085619D01*
X145923243Y-112115900D01*
X145922758Y-112671661D01*
X146134990Y-113185303D01*
X146527630Y-113578629D01*
X146604959Y-113610739D01*
X144682899Y-115532799D01*
X144562557Y-115712905D01*
X144397134Y-115680000D01*
X143892866Y-115680000D01*
X143448953Y-115768300D01*
X143072622Y-116019756D01*
X142821166Y-116396087D01*
X142732866Y-116840000D01*
X142821166Y-117283913D01*
X142948846Y-117475000D01*
X142821166Y-117666087D01*
X142732866Y-118110000D01*
X142821166Y-118553913D01*
X142828098Y-118564288D01*
X142760000Y-118728691D01*
X142760000Y-119094250D01*
X142918750Y-119253000D01*
X143807401Y-119253000D01*
X143892866Y-119270000D01*
X144397134Y-119270000D01*
X144482599Y-119253000D01*
X145371250Y-119253000D01*
X145530000Y-119094250D01*
X145530000Y-118728691D01*
X145461902Y-118564288D01*
X145468834Y-118553913D01*
X145557134Y-118110000D01*
X145468834Y-117666087D01*
X145400699Y-117564116D01*
X145511139Y-117542148D01*
X145757701Y-117377401D01*
X145922448Y-117130839D01*
X145980300Y-116840000D01*
X145980300Y-116385002D01*
X149242889Y-113122413D01*
X149277757Y-113206800D01*
X149681077Y-113610824D01*
X149816954Y-113667245D01*
X149480302Y-113892189D01*
X149169233Y-114357736D01*
X149060000Y-114906887D01*
X149060000Y-114963113D01*
X149169233Y-115512264D01*
X149480302Y-115977811D01*
X149820314Y-116205000D01*
X149480302Y-116432189D01*
X149169233Y-116897736D01*
X149060000Y-117446887D01*
X149060000Y-117503113D01*
X149169233Y-118052264D01*
X149480302Y-118517811D01*
X149755118Y-118701437D01*
X149765014Y-118751187D01*
X149740995Y-118761136D01*
X149666861Y-119007255D01*
X150495000Y-119835395D01*
X150509142Y-119821252D01*
X150688748Y-120000858D01*
X150674605Y-120015000D01*
X151502745Y-120843139D01*
X151640000Y-120801796D01*
X151640000Y-123822046D01*
X151349946Y-124015853D01*
X151322150Y-124057452D01*
X151313162Y-124009683D01*
X151174090Y-123793559D01*
X150961890Y-123648569D01*
X150710000Y-123597560D01*
X149010000Y-123597560D01*
X148774683Y-123641838D01*
X148558559Y-123780910D01*
X148413569Y-123993110D01*
X148362560Y-124245000D01*
X148362560Y-124335000D01*
X146855102Y-124335000D01*
X143542847Y-121022745D01*
X149666861Y-121022745D01*
X149740995Y-121268864D01*
X150278223Y-121461965D01*
X150848454Y-121434778D01*
X151249005Y-121268864D01*
X151323139Y-121022745D01*
X150495000Y-120194605D01*
X149666861Y-121022745D01*
X143542847Y-121022745D01*
X142185852Y-119665750D01*
X142760000Y-119665750D01*
X142760000Y-120031309D01*
X142856673Y-120264698D01*
X143035301Y-120443327D01*
X143268690Y-120540000D01*
X143859250Y-120540000D01*
X144018000Y-120381250D01*
X144018000Y-119507000D01*
X144272000Y-119507000D01*
X144272000Y-120381250D01*
X144430750Y-120540000D01*
X145021310Y-120540000D01*
X145254699Y-120443327D01*
X145433327Y-120264698D01*
X145530000Y-120031309D01*
X145530000Y-119798223D01*
X149048035Y-119798223D01*
X149075222Y-120368454D01*
X149241136Y-120769005D01*
X149487255Y-120843139D01*
X150315395Y-120015000D01*
X149487255Y-119186861D01*
X149241136Y-119260995D01*
X149048035Y-119798223D01*
X145530000Y-119798223D01*
X145530000Y-119665750D01*
X145371250Y-119507000D01*
X144272000Y-119507000D01*
X144018000Y-119507000D01*
X142918750Y-119507000D01*
X142760000Y-119665750D01*
X142185852Y-119665750D01*
X139457701Y-116937599D01*
X139211139Y-116772852D01*
X139010679Y-116732978D01*
X138809698Y-116432189D01*
X138519585Y-116238341D01*
X138534882Y-116161437D01*
X138809698Y-115977811D01*
X139120767Y-115512264D01*
X139230000Y-114963113D01*
X139230000Y-114906887D01*
X139120767Y-114357736D01*
X138809698Y-113892189D01*
X138473290Y-113667408D01*
X138606800Y-113612243D01*
X139010824Y-113208923D01*
X139229750Y-112681691D01*
X139230248Y-112110813D01*
X139207951Y-112056851D01*
X140237401Y-111027401D01*
X140402148Y-110780839D01*
X140460000Y-110490000D01*
X140460000Y-100332954D01*
X140750054Y-100139147D01*
X140777850Y-100097548D01*
X140786838Y-100145317D01*
X140925910Y-100361441D01*
X141138110Y-100506431D01*
X141390000Y-100557440D01*
X141480000Y-100557440D01*
X141480000Y-101037469D01*
X141449697Y-101049990D01*
X141056371Y-101442630D01*
X140843243Y-101955900D01*
X140842758Y-102511661D01*
X141054990Y-103025303D01*
X141447630Y-103418629D01*
X141655512Y-103504949D01*
X141449697Y-103589990D01*
X141056371Y-103982630D01*
X140843243Y-104495900D01*
X140842758Y-105051661D01*
X141054990Y-105565303D01*
X141447630Y-105958629D01*
X141960900Y-106171757D01*
X142516661Y-106172242D01*
X143030303Y-105960010D01*
X143423629Y-105567370D01*
X143636757Y-105054100D01*
X143637242Y-104498339D01*
X143425010Y-103984697D01*
X143032370Y-103591371D01*
X142824488Y-103505051D01*
X143030303Y-103420010D01*
X143423629Y-103027370D01*
X143636757Y-102514100D01*
X143637242Y-101958339D01*
X143425010Y-101444697D01*
X143032370Y-101051371D01*
X143000000Y-101037930D01*
X143000000Y-100557440D01*
X143090000Y-100557440D01*
X143325317Y-100513162D01*
X143541441Y-100374090D01*
X143686431Y-100161890D01*
X143700086Y-100094459D01*
X143729946Y-100139147D01*
X143729946Y-100139147D01*
G37*
X143729946Y-100139147D02*
X144020000Y-100332954D01*
X144020000Y-109540198D01*
X142549381Y-111010817D01*
X142519100Y-110998243D01*
X141963339Y-110997758D01*
X141449697Y-111209990D01*
X141056371Y-111602630D01*
X140843243Y-112115900D01*
X140842758Y-112671661D01*
X141054990Y-113185303D01*
X141447630Y-113578629D01*
X141960900Y-113791757D01*
X142516661Y-113792242D01*
X143030303Y-113580010D01*
X143423629Y-113187370D01*
X143636757Y-112674100D01*
X143637242Y-112118339D01*
X143623857Y-112085945D01*
X144780000Y-110929802D01*
X145935817Y-112085619D01*
X145923243Y-112115900D01*
X145922758Y-112671661D01*
X146134990Y-113185303D01*
X146527630Y-113578629D01*
X146604959Y-113610739D01*
X144682899Y-115532799D01*
X144562557Y-115712905D01*
X144397134Y-115680000D01*
X143892866Y-115680000D01*
X143448953Y-115768300D01*
X143072622Y-116019756D01*
X142821166Y-116396087D01*
X142732866Y-116840000D01*
X142821166Y-117283913D01*
X142948846Y-117475000D01*
X142821166Y-117666087D01*
X142732866Y-118110000D01*
X142821166Y-118553913D01*
X142828098Y-118564288D01*
X142760000Y-118728691D01*
X142760000Y-119094250D01*
X142918750Y-119253000D01*
X143807401Y-119253000D01*
X143892866Y-119270000D01*
X144397134Y-119270000D01*
X144482599Y-119253000D01*
X145371250Y-119253000D01*
X145530000Y-119094250D01*
X145530000Y-118728691D01*
X145461902Y-118564288D01*
X145468834Y-118553913D01*
X145557134Y-118110000D01*
X145468834Y-117666087D01*
X145400699Y-117564116D01*
X145511139Y-117542148D01*
X145757701Y-117377401D01*
X145922448Y-117130839D01*
X145980300Y-116840000D01*
X145980300Y-116385002D01*
X149242889Y-113122413D01*
X149277757Y-113206800D01*
X149681077Y-113610824D01*
X149816954Y-113667245D01*
X149480302Y-113892189D01*
X149169233Y-114357736D01*
X149060000Y-114906887D01*
X149060000Y-114963113D01*
X149169233Y-115512264D01*
X149480302Y-115977811D01*
X149820314Y-116205000D01*
X149480302Y-116432189D01*
X149169233Y-116897736D01*
X149060000Y-117446887D01*
X149060000Y-117503113D01*
X149169233Y-118052264D01*
X149480302Y-118517811D01*
X149755118Y-118701437D01*
X149765014Y-118751187D01*
X149740995Y-118761136D01*
X149666861Y-119007255D01*
X150495000Y-119835395D01*
X150509142Y-119821252D01*
X150688748Y-120000858D01*
X150674605Y-120015000D01*
X151502745Y-120843139D01*
X151640000Y-120801796D01*
X151640000Y-123822046D01*
X151349946Y-124015853D01*
X151322150Y-124057452D01*
X151313162Y-124009683D01*
X151174090Y-123793559D01*
X150961890Y-123648569D01*
X150710000Y-123597560D01*
X149010000Y-123597560D01*
X148774683Y-123641838D01*
X148558559Y-123780910D01*
X148413569Y-123993110D01*
X148362560Y-124245000D01*
X148362560Y-124335000D01*
X146855102Y-124335000D01*
X143542847Y-121022745D01*
X149666861Y-121022745D01*
X149740995Y-121268864D01*
X150278223Y-121461965D01*
X150848454Y-121434778D01*
X151249005Y-121268864D01*
X151323139Y-121022745D01*
X150495000Y-120194605D01*
X149666861Y-121022745D01*
X143542847Y-121022745D01*
X142185852Y-119665750D01*
X142760000Y-119665750D01*
X142760000Y-120031309D01*
X142856673Y-120264698D01*
X143035301Y-120443327D01*
X143268690Y-120540000D01*
X143859250Y-120540000D01*
X144018000Y-120381250D01*
X144018000Y-119507000D01*
X144272000Y-119507000D01*
X144272000Y-120381250D01*
X144430750Y-120540000D01*
X145021310Y-120540000D01*
X145254699Y-120443327D01*
X145433327Y-120264698D01*
X145530000Y-120031309D01*
X145530000Y-119798223D01*
X149048035Y-119798223D01*
X149075222Y-120368454D01*
X149241136Y-120769005D01*
X149487255Y-120843139D01*
X150315395Y-120015000D01*
X149487255Y-119186861D01*
X149241136Y-119260995D01*
X149048035Y-119798223D01*
X145530000Y-119798223D01*
X145530000Y-119665750D01*
X145371250Y-119507000D01*
X144272000Y-119507000D01*
X144018000Y-119507000D01*
X142918750Y-119507000D01*
X142760000Y-119665750D01*
X142185852Y-119665750D01*
X139457701Y-116937599D01*
X139211139Y-116772852D01*
X139010679Y-116732978D01*
X138809698Y-116432189D01*
X138519585Y-116238341D01*
X138534882Y-116161437D01*
X138809698Y-115977811D01*
X139120767Y-115512264D01*
X139230000Y-114963113D01*
X139230000Y-114906887D01*
X139120767Y-114357736D01*
X138809698Y-113892189D01*
X138473290Y-113667408D01*
X138606800Y-113612243D01*
X139010824Y-113208923D01*
X139229750Y-112681691D01*
X139230248Y-112110813D01*
X139207951Y-112056851D01*
X140237401Y-111027401D01*
X140402148Y-110780839D01*
X140460000Y-110490000D01*
X140460000Y-100332954D01*
X140750054Y-100139147D01*
X140777850Y-100097548D01*
X140786838Y-100145317D01*
X140925910Y-100361441D01*
X141138110Y-100506431D01*
X141390000Y-100557440D01*
X141480000Y-100557440D01*
X141480000Y-101037469D01*
X141449697Y-101049990D01*
X141056371Y-101442630D01*
X140843243Y-101955900D01*
X140842758Y-102511661D01*
X141054990Y-103025303D01*
X141447630Y-103418629D01*
X141655512Y-103504949D01*
X141449697Y-103589990D01*
X141056371Y-103982630D01*
X140843243Y-104495900D01*
X140842758Y-105051661D01*
X141054990Y-105565303D01*
X141447630Y-105958629D01*
X141960900Y-106171757D01*
X142516661Y-106172242D01*
X143030303Y-105960010D01*
X143423629Y-105567370D01*
X143636757Y-105054100D01*
X143637242Y-104498339D01*
X143425010Y-103984697D01*
X143032370Y-103591371D01*
X142824488Y-103505051D01*
X143030303Y-103420010D01*
X143423629Y-103027370D01*
X143636757Y-102514100D01*
X143637242Y-101958339D01*
X143425010Y-101444697D01*
X143032370Y-101051371D01*
X143000000Y-101037930D01*
X143000000Y-100557440D01*
X143090000Y-100557440D01*
X143325317Y-100513162D01*
X143541441Y-100374090D01*
X143686431Y-100161890D01*
X143700086Y-100094459D01*
X143729946Y-100139147D01*
G36*
X171669946Y-100139147D02*
X171960000Y-100332954D01*
X171960000Y-101037469D01*
X171929697Y-101049990D01*
X171536371Y-101442630D01*
X171323243Y-101955900D01*
X171322758Y-102511661D01*
X171534990Y-103025303D01*
X171927630Y-103418629D01*
X172135512Y-103504949D01*
X171929697Y-103589990D01*
X171536371Y-103982630D01*
X171323243Y-104495900D01*
X171322758Y-105051661D01*
X171534990Y-105565303D01*
X171927630Y-105958629D01*
X172440900Y-106171757D01*
X172996661Y-106172242D01*
X173510303Y-105960010D01*
X173903629Y-105567370D01*
X173907300Y-105558529D01*
X173907300Y-107402000D01*
X173965152Y-107692839D01*
X174129899Y-107939401D01*
X174881781Y-108691283D01*
X174809591Y-108739519D01*
X174476845Y-109237509D01*
X174360000Y-109824928D01*
X174360000Y-109885072D01*
X174476845Y-110472491D01*
X174746476Y-110876022D01*
X173937988Y-111684510D01*
X173905010Y-111604697D01*
X173512370Y-111211371D01*
X172999100Y-110998243D01*
X172443339Y-110997758D01*
X172410945Y-111011143D01*
X170940000Y-109540198D01*
X170940000Y-100332954D01*
X171230054Y-100139147D01*
X171450000Y-99809974D01*
X171669946Y-100139147D01*
X171669946Y-100139147D01*
G37*
X171669946Y-100139147D02*
X171960000Y-100332954D01*
X171960000Y-101037469D01*
X171929697Y-101049990D01*
X171536371Y-101442630D01*
X171323243Y-101955900D01*
X171322758Y-102511661D01*
X171534990Y-103025303D01*
X171927630Y-103418629D01*
X172135512Y-103504949D01*
X171929697Y-103589990D01*
X171536371Y-103982630D01*
X171323243Y-104495900D01*
X171322758Y-105051661D01*
X171534990Y-105565303D01*
X171927630Y-105958629D01*
X172440900Y-106171757D01*
X172996661Y-106172242D01*
X173510303Y-105960010D01*
X173903629Y-105567370D01*
X173907300Y-105558529D01*
X173907300Y-107402000D01*
X173965152Y-107692839D01*
X174129899Y-107939401D01*
X174881781Y-108691283D01*
X174809591Y-108739519D01*
X174476845Y-109237509D01*
X174360000Y-109824928D01*
X174360000Y-109885072D01*
X174476845Y-110472491D01*
X174746476Y-110876022D01*
X173937988Y-111684510D01*
X173905010Y-111604697D01*
X173512370Y-111211371D01*
X172999100Y-110998243D01*
X172443339Y-110997758D01*
X172410945Y-111011143D01*
X170940000Y-109540198D01*
X170940000Y-100332954D01*
X171230054Y-100139147D01*
X171450000Y-99809974D01*
X171669946Y-100139147D01*
G36*
X146269946Y-100139147D02*
X146560000Y-100332954D01*
X146560000Y-101037469D01*
X146529697Y-101049990D01*
X146136371Y-101442630D01*
X145923243Y-101955900D01*
X145922758Y-102511661D01*
X146134990Y-103025303D01*
X146527630Y-103418629D01*
X146735512Y-103504949D01*
X146529697Y-103589990D01*
X146136371Y-103982630D01*
X145923243Y-104495900D01*
X145922758Y-105051661D01*
X146134990Y-105565303D01*
X146527630Y-105958629D01*
X147040900Y-106171757D01*
X147596661Y-106172242D01*
X148110303Y-105960010D01*
X148503629Y-105567370D01*
X148507300Y-105558529D01*
X148507300Y-107402000D01*
X148565152Y-107692839D01*
X148729899Y-107939401D01*
X149481781Y-108691283D01*
X149409591Y-108739519D01*
X149076845Y-109237509D01*
X148960000Y-109824928D01*
X148960000Y-109885072D01*
X149076845Y-110472491D01*
X149343752Y-110871946D01*
X148536000Y-111679698D01*
X148505010Y-111604697D01*
X148112370Y-111211371D01*
X147599100Y-110998243D01*
X147043339Y-110997758D01*
X147010945Y-111011143D01*
X145540000Y-109540198D01*
X145540000Y-100332954D01*
X145830054Y-100139147D01*
X146050000Y-99809974D01*
X146269946Y-100139147D01*
X146269946Y-100139147D01*
G37*
X146269946Y-100139147D02*
X146560000Y-100332954D01*
X146560000Y-101037469D01*
X146529697Y-101049990D01*
X146136371Y-101442630D01*
X145923243Y-101955900D01*
X145922758Y-102511661D01*
X146134990Y-103025303D01*
X146527630Y-103418629D01*
X146735512Y-103504949D01*
X146529697Y-103589990D01*
X146136371Y-103982630D01*
X145923243Y-104495900D01*
X145922758Y-105051661D01*
X146134990Y-105565303D01*
X146527630Y-105958629D01*
X147040900Y-106171757D01*
X147596661Y-106172242D01*
X148110303Y-105960010D01*
X148503629Y-105567370D01*
X148507300Y-105558529D01*
X148507300Y-107402000D01*
X148565152Y-107692839D01*
X148729899Y-107939401D01*
X149481781Y-108691283D01*
X149409591Y-108739519D01*
X149076845Y-109237509D01*
X148960000Y-109824928D01*
X148960000Y-109885072D01*
X149076845Y-110472491D01*
X149343752Y-110871946D01*
X148536000Y-111679698D01*
X148505010Y-111604697D01*
X148112370Y-111211371D01*
X147599100Y-110998243D01*
X147043339Y-110997758D01*
X147010945Y-111011143D01*
X145540000Y-109540198D01*
X145540000Y-100332954D01*
X145830054Y-100139147D01*
X146050000Y-99809974D01*
X146269946Y-100139147D01*
G36*
X158969946Y-100139147D02*
X159260000Y-100332954D01*
X159260000Y-101037469D01*
X159229697Y-101049990D01*
X158836371Y-101442630D01*
X158623243Y-101955900D01*
X158622758Y-102511661D01*
X158834990Y-103025303D01*
X159227630Y-103418629D01*
X159435512Y-103504949D01*
X159229697Y-103589990D01*
X158836371Y-103982630D01*
X158623243Y-104495900D01*
X158622758Y-105051661D01*
X158834990Y-105565303D01*
X159227630Y-105958629D01*
X159740900Y-106171757D01*
X160296661Y-106172242D01*
X160810303Y-105960010D01*
X161203629Y-105567370D01*
X161207300Y-105558529D01*
X161207300Y-107402000D01*
X161265152Y-107692839D01*
X161429899Y-107939401D01*
X162181781Y-108691283D01*
X162109591Y-108739519D01*
X161776845Y-109237509D01*
X161660000Y-109824928D01*
X161660000Y-109885072D01*
X161776845Y-110472491D01*
X162043752Y-110871946D01*
X161236000Y-111679698D01*
X161205010Y-111604697D01*
X160812370Y-111211371D01*
X160299100Y-110998243D01*
X159743339Y-110997758D01*
X159710945Y-111011143D01*
X158240000Y-109540198D01*
X158240000Y-100332954D01*
X158530054Y-100139147D01*
X158750000Y-99809974D01*
X158969946Y-100139147D01*
X158969946Y-100139147D01*
G37*
X158969946Y-100139147D02*
X159260000Y-100332954D01*
X159260000Y-101037469D01*
X159229697Y-101049990D01*
X158836371Y-101442630D01*
X158623243Y-101955900D01*
X158622758Y-102511661D01*
X158834990Y-103025303D01*
X159227630Y-103418629D01*
X159435512Y-103504949D01*
X159229697Y-103589990D01*
X158836371Y-103982630D01*
X158623243Y-104495900D01*
X158622758Y-105051661D01*
X158834990Y-105565303D01*
X159227630Y-105958629D01*
X159740900Y-106171757D01*
X160296661Y-106172242D01*
X160810303Y-105960010D01*
X161203629Y-105567370D01*
X161207300Y-105558529D01*
X161207300Y-107402000D01*
X161265152Y-107692839D01*
X161429899Y-107939401D01*
X162181781Y-108691283D01*
X162109591Y-108739519D01*
X161776845Y-109237509D01*
X161660000Y-109824928D01*
X161660000Y-109885072D01*
X161776845Y-110472491D01*
X162043752Y-110871946D01*
X161236000Y-111679698D01*
X161205010Y-111604697D01*
X160812370Y-111211371D01*
X160299100Y-110998243D01*
X159743339Y-110997758D01*
X159710945Y-111011143D01*
X158240000Y-109540198D01*
X158240000Y-100332954D01*
X158530054Y-100139147D01*
X158750000Y-99809974D01*
X158969946Y-100139147D01*
G36*
X164340000Y-108828703D02*
X164280409Y-108739519D01*
X163930313Y-108505593D01*
X163897148Y-108338861D01*
X163732401Y-108092299D01*
X162727300Y-107087198D01*
X162727300Y-103782440D01*
X164095000Y-103782440D01*
X164330317Y-103738162D01*
X164340000Y-103731931D01*
X164340000Y-108828703D01*
X164340000Y-108828703D01*
G37*
X164340000Y-108828703D02*
X164280409Y-108739519D01*
X163930313Y-108505593D01*
X163897148Y-108338861D01*
X163732401Y-108092299D01*
X162727300Y-107087198D01*
X162727300Y-103782440D01*
X164095000Y-103782440D01*
X164330317Y-103738162D01*
X164340000Y-103731931D01*
X164340000Y-108828703D01*
G36*
X151640000Y-108828703D02*
X151580409Y-108739519D01*
X151230313Y-108505593D01*
X151197148Y-108338861D01*
X151032401Y-108092299D01*
X150027300Y-107087198D01*
X150027300Y-103782440D01*
X151395000Y-103782440D01*
X151630317Y-103738162D01*
X151640000Y-103731931D01*
X151640000Y-108828703D01*
X151640000Y-108828703D01*
G37*
X151640000Y-108828703D02*
X151580409Y-108739519D01*
X151230313Y-108505593D01*
X151197148Y-108338861D01*
X151032401Y-108092299D01*
X150027300Y-107087198D01*
X150027300Y-103782440D01*
X151395000Y-103782440D01*
X151630317Y-103738162D01*
X151640000Y-103731931D01*
X151640000Y-108828703D01*
G36*
X177040000Y-108828703D02*
X176980409Y-108739519D01*
X176630313Y-108505593D01*
X176597148Y-108338861D01*
X176432401Y-108092299D01*
X175427300Y-107087198D01*
X175427300Y-103782440D01*
X176795000Y-103782440D01*
X177030317Y-103738162D01*
X177040000Y-103731931D01*
X177040000Y-108828703D01*
X177040000Y-108828703D01*
G37*
X177040000Y-108828703D02*
X176980409Y-108739519D01*
X176630313Y-108505593D01*
X176597148Y-108338861D01*
X176432401Y-108092299D01*
X175427300Y-107087198D01*
X175427300Y-103782440D01*
X176795000Y-103782440D01*
X177030317Y-103738162D01*
X177040000Y-103731931D01*
X177040000Y-108828703D01*
M02*
